<?xml version="1.0" encoding="utf-8"?>
<!-- Generator: Adobe Illustrator 15.1.0, SVG Export Plug-In . SVG Version: 6.00 Build 0)  -->
<!DOCTYPE svg PUBLIC "-//W3C//DTD SVG 1.1//EN" "http://www.w3.org/Graphics/SVG/1.1/DTD/svg11.dtd">
<svg version="1.1" id="Layer_1" xmlns="http://www.w3.org/2000/svg" xmlns:xlink="http://www.w3.org/1999/xlink" x="0px" y="0px"
	 width="43px" height="553px" viewBox="0 0 43 553" enable-background="new 0 0 43 553" xml:space="preserve">
<g>
	<path fill="#EF0A7C" d="M31.04,0.16l11.905-0.08v53.264c0.08,0.324,0.064,0.634,0,0.926V553.08h-9.78
		c-4.75-0.253-7.368-2.168-2.224-3.463c2.891-0.498,0.531-0.998,2.633-2.652c-0.68-0.146-1.357-0.389-2.02-0.729
		c-1.682-0.861-3.248-2.32-4.478-4.023c-2.37-2.343,4.104-4.282,6.157-7.626c-3.426-2.855-9.243,1.43-5.479-6.197
		c0.695-1.427,4.104-1.427,4.784-4.283c0.016-0.079,0.016-0.162,0.031-0.242c0.563-4.235-1.276-1.443-2.924-2.904
		c0,0-0.033-0.015-0.033-0.031c-0.049-0.049-0.098-0.098-0.146-0.146c-5.816-5.71-6.496-3.812-1.018-10.48
		c4.783-5.709,3.068-6.666-2.053-7.625c-0.485-0.082-1.084-0.099-1.729-0.131c-3.086-0.111-7.436-0.242-7.159-6.537
		c0.179-2.19,1.521-2.889,3.2-3.229c1.582-0.341,3.49-0.354,4.992-1.056c2.053-0.469,4.104-0.957,5.478-3.326
		c2.731-4.77,0.68-2.385,0-5.727c-0.678-1.898-3.084,0.487-3.425-3.326c0-0.957,3.425-4.283,4.104-4.769
		c-1.389-2.272-7.125-2.547-8.726-4.625c-0.438-0.552-0.582-1.25-0.259-2.142c0.225-0.633,0.711-1.381,1.471-2.271
		c2.391-2.87,6.834,0,8.549-4.77c2.035-5.241-1.715-4.771-4.799-5.713c-5.221-0.52,1.713-2.853,2.406-3.811
		c-2.052-0.471-3.766-1.9-4.8-4.286c2.394-1.913,7.87-4.768,4.8-9.522c-2.052-2.855-6.156,0.473-8.549-0.957
		c1.018-3.342,3.749-4.769,5.462-7.137c-11.957-5.729,6.157-20.494-3.425-23.817c-1.424-0.521-4.396-0.763-5.817-2.144
		c-0.018-0.017-0.033-0.031-0.05-0.048c-0.872-0.894-1.114-2.272,0.065-4.478c0.438-1.006,1.776-1.33,3.345-1.491h0.08
		c2.118-0.196,4.639-0.082,5.802-0.896c2.506-2.287,2.925-3.666,2.198-4.606c-0.582-0.797-1.955-1.297-3.555-1.771
		c-1.488-0.453-3.168-0.892-4.525-1.555c-2.278-1.104-3.685-2.857-1.972-6.346c0.129-0.34,2.845-1.167,5.786-2.288
		c0.354-0.146,0.711-0.291,1.066-0.438c5.008-2.027,9.84-4.899,3.053-7.754c1.309-1.152,2.021-1.638,2.649-2.207
		c0.696-0.617,1.311-1.313,2.538-3.033c-0.146-0.275-0.291-0.52-0.453-0.764c-1.453-2.14-3.684-2.951-5.493-4.542
		c-0.438-0.405-0.873-0.843-1.245-1.362c1.714-4.283,6.837-3.812,9.923-6.668c-0.194-0.453-0.389-0.859-0.581-1.233
		c-0.503-0.972-1.019-1.688-1.553-2.173c-2.827-2.76-5.8,0.242-8.807-2.791c-3.119-2.986,0.08-4.43,3.279-6.168h0.017
		c2.407-1.328,4.8-2.805,4.509-5.254c-0.227-1.121-0.922-1.866-1.745-2.517c-1.616-1.264-3.716-2.11-3.716-4.64
		c0-3.795,2.729-0.94,3.749-3.795c1.712-4.301-0.341-2.873,0.694-7.156c0.678-2.854,0.338-4.284,2.39-6.182
		c-1.372-0.488-5.121-0.488-6.155-2.385c-2.392-4.771,1.373-2.385,1.713-5.24c1.358-9.523-4.104-5.242-10.261-6.199
		c-0.081-0.016-0.178-0.032-0.259-0.049c-0.033,0-0.05-0.016-0.081-0.016c-0.098-0.016-0.194-0.049-0.309-0.064
		c-1.406-0.342-2.697-0.99-3.731-1.803c0-0.015-0.019-0.015-0.019-0.015c-2.744-2.19-3.537-5.581,0.987-7.576
		c1.162-0.375,2.359-0.39,3.587-0.274c3.475,0.307,7.143,1.671,10.422-1.153c0.162-0.146,0.309-0.292,0.453-0.438
		c0.744-0.714,1.293-1.348,1.682-1.914c0.062-0.082,0.129-0.162,0.178-0.244c2.684-4.12-3.217-4.363-6.416-5.971
		c-9.228-5.24-1.713-6.666,2.053-11.438c1.633-2.271,2.295-3.684,2.326-4.576c0.082-1.541-1.616-1.654-3.344-2.107
		c-1.521-0.406-3.055-1.104-3.428-3.311c-0.289-2.645,1.777-4.512,3.797-6.295c1.133-0.973,2.23-1.948,2.912-3.001
		c0.967-1.509,1.063-3.213-0.892-5.468c-1.712-1.916-6.155,2.369-6.851-2.385c-0.018-0.211-0.018-0.422,0-0.617
		c0.031-0.827,0.322-1.443,0.744-1.946c1.178-1.46,3.359-1.966,3.359-3.634c-0.211-4.625-4.443-3.635-8.192-3.538
		c-1.196,0.049-2.358-0.015-3.313-0.372c-0.017,0-0.048-0.016-0.065-0.016c-0.951-0.375-1.695-1.057-2.1-2.258
		c-1.098-3.422-0.13-5.126,1.665-5.937c0.015,0,0.031-0.017,0.049-0.017c0.209-0.111,0.437-0.176,0.679-0.242
		c3.265-1.021,8.354,0.082,9.583-0.472c1.229-0.567,2.568-1.833,3.862-3.407c2.003-2.369,3.927-5.468,5.362-8.03
		c-1.566-2.062-3.278-3.472-4.782-4.591c-4.396-3.31-6.868-4.139,2.054-11.602c8.129-6.264-1.246-4.479-6.933-6.83
		c-1.245-0.486-2.312-1.201-2.991-2.223c0.971-1.914,2.215-2.823,3.299-3.65c1.633-1.184,2.924-2.174,2.521-5.873
		c-0.341-2.855-6.837-4.754-0.341-7.608c-1.373-1.431-3.426-2.856-5.141-4.3c2.846-4.836,8.293-4.397,11.557-8.422
		c0.259-0.323,0.518-0.697,0.758-1.104c-1.532-1.217-3.78-1.849-5.283-3.424c-0.822-0.857-1.438-2.01-1.55-3.713
		c-0.341-6.199,7.513-7.141,7.853-11.422c0.551-5.843-5.414-7.628-11.764-8.438c-2.618-0.357-5.315-0.535-7.66-0.765h-0.079
		c0,0,0,0-0.018,0c-2.569-0.258-4.686-0.582-5.77-1.279c-10.455-6.133,2.116-9.183,9.209-11.13c0.033,0,0.049-0.017,0.084-0.017
		c1.679-0.471,3.054-0.86,3.699-1.234c0.259-0.112,0.581-0.258,0.938-0.452c2.795-1.461,7.836-5.322,6.914-9.559
		c-1.019-3.341-8.207-1.427-3.407-6.666c-2.296-1.592-3.927-3.05-4.703-4.494c-0.808-1.525-0.663-3.002,0.694-4.574
		c0.809-0.91,2.004-1.852,3.668-2.84c0.064-0.033,0.131-0.082,0.193-0.115c3.943-2.303,5.01-3.894,4.412-5.045
		c-0.857-1.654-5.188-2.369-9.404-2.937c-0.211-0.018-0.42-0.051-0.614-0.081c-1.276-0.214-2.391-0.535-3.312-1.007
		c-0.017,0-0.033-0.018-0.049-0.018c-2.859-1.395-3.91-3.763-2.472-5.807c0.241-0.373,0.581-0.716,1.001-1.056
		c0.986-0.811,2.441-1.525,4.428-2.027c1.778-0.633,7.306-0.649,9.729-2.659c0.742-0.619,1.195-1.412,1.179-2.469
		c-0.017-0.812-0.306-1.802-1-2.969c1.372-2.871-0.341-5.238-2.394-7.154c1.373-4.754-2.392-1.429-2.392-4.283
		c0.34-4.771,4.784-2.854,5.14-5.241c0.662-3.698-3.539-4.396-7.24-4.833c-0.709-0.066-1.405-0.146-2.035-0.227
		c-1.18-0.148-2.149-0.326-2.698-0.65c0.016-0.195,0.048-0.39,0.08-0.566c0.5-2.612,2.974-4.301,5.688-5.613
		c6.076-2.904,13.396-3.911,2.778-9.054c0.341-0.487,1.034-0.959,1.712-1.445c-4.476-2.66-4.699-3.845-3.102-5.515
		c0.984-1.007,2.65-2.208,4.461-4.009c-0.486-0.682-1.245-1.282-2.104-1.833C27.288,3.941,21.249,0.91,31.04,0.16z"/>
</g>
</svg>
