<?xml version="1.0" encoding="utf-8"?>
<!-- Generator: Adobe Illustrator 15.1.0, SVG Export Plug-In . SVG Version: 6.00 Build 0)  -->
<!DOCTYPE svg PUBLIC "-//W3C//DTD SVG 1.1//EN" "http://www.w3.org/Graphics/SVG/1.1/DTD/svg11.dtd">
<svg version="1.1" id="Layer_1" xmlns="http://www.w3.org/2000/svg" xmlns:xlink="http://www.w3.org/1999/xlink" x="0px" y="0px"
	 width="43px" height="553px" viewBox="0 0 43 553" enable-background="new 0 0 43 553" xml:space="preserve">
<g>
	<path fill="#2AA8C3" d="M24.324,0l18.62,0.08v53.264c0.082,0.324,0.066,0.634,0,0.926V553.08H21.179
		c-1.02-0.244-2.618-0.453-3.022-0.584c-1.018-0.322-2.618-0.941-4.186-1.863c-0.018-0.018-0.033-0.035-0.033-0.035
		c-0.178-0.096-0.34-0.192-0.518-0.308c-2.779-1.752-5.316-4.478-4.427-8.274c0.291-0.938,2.003-2.094,4.151-3.213
		c0.018-0.016,0.049-0.016,0.064-0.033c3.248-1.701,7.45-3.309,8.985-3.892c-0.453-5.632-2.763-6.085-5.14-6.555
		c-0.031,0-0.049-0.015-0.082-0.015c-1.42-0.278-2.857-0.586-3.94-1.998c-0.05-0.064-0.114-0.146-0.146-0.227
		c-0.017-0.019-0.017-0.033-0.031-0.05c-1.004-1.737-1.586-6.505-0.194-8.308c2.196-3.812,2.196,0.957,4.767,0.488
		c1.844,0,4.769,0,5.866-1.914c2.568-3.812-0.373-3.812,0-7.61c0-0.974,0.824-4.07,1.374-6.149c0.274-1.021,0.47-1.783,0.47-1.945
		c-1.115-3.813-3.669,0-4.769-3.344c-0.711-1.703-0.323-3.146,0.34-4.478c1.341-2.759,3.749-5.013-0.712-7.902
		c-2.812-1.833-6.271,1.673-9.228,0.392c-0.03-0.017-0.049-0.017-0.08-0.033c-0.856-0.405-1.682-1.232-2.424-2.74
		c-4.041-8.566,2.196-8.566,5.865-7.627c1.438,0.357,2.617,0.615,3.637,0.682h0.08c2.684,0.18,4.072-1.021,5.284-5.597
		c0.176-0.665,0.355-1.412,0.533-2.224c-0.243,0.033-0.518,0.065-0.792,0.082c-3.346,0.209-8.209-1.057-6.173-7.221
		c1.098-2.384,14.657-4.77,7.32-11.438c-0.695-0.635-1.487-0.877-2.344-0.86h-0.08c-3.62,0.097-8.403,4.493-12.233,1.817
		c-4.04-2.385-5.493-10.479-0.729-13.338c1.455-0.938,3.377-0.6,5.381-0.422h0.082c2.002,0.179,4.088,0.179,5.897-1.477
		c5.382-4.77,4.232-5.938,1.471-6.62c-0.033,0-0.049-0.015-0.08-0.015c-1.375-0.309-3.137-0.52-4.687-0.989
		c-3.572-1.071-6.949-4.301-5.916-7.642c0.018-0.051,0.033-0.1,0.05-0.147c0.192-0.616,0.565-1.231,1.115-1.849l0.017-0.016
		c0.389-0.455,0.854-0.879,1.438-1.299c1.052-0.553,5.996-0.635,9.018-2.32c0.033-0.016,0.05-0.03,0.08-0.047
		c2.183-1.252,3.297-3.377,1.165-7.156c-0.872-1.592-3.685-1.786-5.883-2.577c-0.017,0-0.05-0.019-0.063-0.019
		c-2.393-0.878-4.041-2.481-1.763-7.414c1.116-2.336,2.894-3.051,4.733-3.604c0.019,0,0.051-0.018,0.064-0.018
		c0.89-0.26,1.795-0.485,2.636-0.826c1.019-0.438,1.955-1.071,2.666-2.225c0.469-0.761,0.842-1.767,1.065-3.113
		c0.081-0.487,0.146-1.037,0.194-1.639c0.129-1.672-0.194-3.408-0.694-5.16c-0.063-0.227-0.13-0.47-0.209-0.714
		c-0.616-1.946-1.407-3.926-2.005-5.856c-0.323-1.021-0.582-2.043-0.743-3.034c-0.259-2.044-1.924-5.062-3.2-8.274v-0.016
		c-0.081-0.163-0.13-0.309-0.194-0.471c0-0.018,0-0.032-0.016-0.032c-0.438-1.136-0.808-2.271-1.051-3.406
		c-0.551-2.614-0.534-4.332-0.178-5.534c0-0.033,0-0.048,0.017-0.08c0-0.016,0-0.016,0-0.016c0.306-0.991,0.824-1.607,1.392-2.078
		c0.03-0.016,0.047-0.049,0.08-0.064c1.146-0.957,2.454-1.396,2.454-3.181c0.372-4.771-0.402-3.05-1.874-6.376
		c0.356,0.439-0.938-7.139-1.099-7.625c0.728-3.812,1.099-4.283,4.396-8.096c-0.938-2.239-2.217-2.743-3.669-2.678h-0.08
		c-1.892,0.084-4.074,1.104-6.144,0.293c-1.13-0.73-3.103-2.289-3.976-4.268c-0.273-0.6-0.436-1.25-0.436-1.932
		c0-4.753,1.471-2.854,4.04-4.283c3.296-1.896,9.162-0.958,8.789-6.668c0-1.542-1.179-2.255-2.261-2.889
		c-0.016,0-0.051-0.016-0.065-0.031c-0.889-0.504-1.696-0.975-1.696-1.833c0-1.282,0.631-2.565,1.373-3.765
		c0.064-0.098,0.131-0.18,0.18-0.276c0.016-0.017,0.031-0.049,0.048-0.063c0.598-0.925,1.244-1.785,1.697-2.563
		c-2.198-0.958-4.396-1.914-5.494-4.771c1.098-0.713,2.763-1.33,4.395-1.994c3.847-1.574,7.465-3.377,2.57-7.059
		c-1.035-0.665-7.483-0.859-10.698-2.986c-0.033-0.016-0.062-0.047-0.097-0.064c-1.261-0.843-1.987-2.012-1.683-3.618
		c0.293-1.638,2.069-2.237,4.283-2.577c0.031,0,0.064-0.019,0.098-0.019c3.57-0.552,8.208-0.487,9.566-3.115
		c3.652-6.181-1.471-9.522-3.314-14.765c1.472-0.469,4.04-2.383,3.669-4.752c-0.354-3.344-2.57-0.957-3.296-2.873
		c-0.469-0.924-1.406-1.248-1.907-2.141c-0.018-0.033-0.049-0.082-0.064-0.115c-0.178-0.373-0.291-0.844-0.274-1.477v-0.048
		c0.017-0.146,0.017-0.325,0.049-0.503c0.372-3.278,3.216-1.477,3.992-2.807c0.016-0.017,0.016-0.032,0.031-0.049
		c0.34-0.697,0.564-1.33,0.713-1.897c1.355-4.916-3.542-5.111-4.833-7.173c-0.695-1.069-0.404-2.66,2.294-5.693
		c-1.421-0.455-4.201-1.363-5.38-3.146c-0.033-0.049-0.082-0.113-0.113-0.18c-2.199-4.77,0-2.854,1.453-4.77
		c2.215-2.387,8.065-3.814,4.04-10.482c-0.082-0.113-0.162-0.227-0.258-0.322c-0.033-0.049-0.065-0.084-0.099-0.131
		c-2.794-3.132-9.192-0.811-9.549-8.111c-0.211-4.187,1.972-5.437,4.476-6.133h0.018c0.049-0.016,0.113-0.033,0.162-0.049
		c1.711-0.453,3.57-0.666,4.878-1.443c1.262-0.827,3.023-1.801,4.139-3.31c0.823-1.104,1.308-2.483,1.001-4.3
		c-0.145-0.729-0.388-1.232-0.693-1.574c-1.324-1.508-3.768-0.324-4.072-2.238c-1.745-7.739,5.203-8.08-1.212-13.888
		c-0.049-0.063-0.113-0.112-0.164-0.161c-0.258-0.229-0.531-0.473-0.822-0.716c-0.129-0.112-0.243-0.227-0.354-0.342h-0.018
		c-0.018-0.017-0.018-0.017-0.033-0.031c-5.703-5.239-3.135-3.114,1.875-9.638c6.157-8.923-1.293-10.918-6.433-14.163
		c0-0.016-0.015-0.016-0.015-0.016c-0.049-0.033-0.114-0.064-0.162-0.1c-6.223-3.341-4.768-5.238,1.471-6.667
		c0.938-0.244,1.874-0.438,2.779-0.635c0.016,0,0.049-0.015,0.064-0.015c3.636-0.745,6.527-1.479,5.704-5.694
		c-0.145-0.779-0.438-1.671-0.855-2.71c-1.102-2.856-4.024,0-4.024-5.24c0-5.71,4.024-2.855,5.14-6.198
		c0.065-0.259,0.111-0.502,0.146-0.729c0.822-4.722-2.441-5.582-5.222-7.236c-0.016,0-0.049-0.017-0.063-0.032v-0.017
		c-0.501-0.291-1.002-0.617-1.455-1.006c0,0-0.017-0.016-0.03-0.016c-0.018-0.018-0.051-0.034-0.065-0.065
		c-0.55-0.504-1.052-1.103-1.39-1.851c1.842-3.326,14.674-3.812,6.609-9.993c0.161-0.179,0.29-0.34,0.42-0.503
		c1.455-1.851,1.356-3.245,0.694-4.574c-1.244-2.469-4.476-4.69-3.312-9.217c0.241-1.071,0.904-1.508,1.567-1.801
		c1.405-0.634,2.86-0.683,0.631-4.867c-0.745-2.387-3.297-2.387-5.141-2.856c-0.11-0.062-0.209-0.112-0.322-0.161
		c-4.33-2.319-6.043-3.78-6.172-4.771v-0.017c-0.229-1.815,4.943-2.059,8.936-3.309c0.032-0.017,0.048-0.017,0.081-0.033
		c2.456-0.778,4.443-1.932,4.443-4.089c0-3.812-3.669-1.427-4.023-5.239c-0.372-2.856,3.669-2.856,3.296-6.196
		c-0.097-0.487-0.34-0.927-0.709-1.314l-0.1-0.099c-2.617-2.727-10.181-3.991-5.431-8.112c0.195-0.129,0.421-0.21,0.632-0.242h0.081
		v-0.018c0.549-0.064,1.146,0.114,1.761,0.358c0.856,0.355,1.745,0.875,2.618,1.218c0.712,0.274,1.405,0.421,2.034,0.227
		c0.341-0.082,0.647-0.276,0.938-0.586c2.247-2.435,1.633-4.736,0.099-6.472c-1.471-1.672-3.782-2.823-5.22-3.053
		c0-6.195,5.494-5.238,4.023-11.438c-0.145-0.957-1.471-1.979-2.506-2.969c-0.016-0.018-0.031-0.031-0.047-0.049
		c-1.327-1.267-2.149-2.468,0.711-3.31c0.017,0,0.049-0.018,0.063-0.018c0.404-0.112,0.872-0.211,1.423-0.323
		C23.266,2.87,17.524,0.719,24.324,0z"/>
</g>
</svg>
