<?xml version="1.0" encoding="utf-8"?>
<!-- Generator: Adobe Illustrator 15.1.0, SVG Export Plug-In . SVG Version: 6.00 Build 0)  -->
<!DOCTYPE svg PUBLIC "-//W3C//DTD SVG 1.1//EN" "http://www.w3.org/Graphics/SVG/1.1/DTD/svg11.dtd">
<svg version="1.1" id="Layer_1" xmlns="http://www.w3.org/2000/svg" xmlns:xlink="http://www.w3.org/1999/xlink" x="0px" y="0px"
	 width="43px" height="553px" viewBox="0 0 43 553" enable-background="new 0 0 43 553" xml:space="preserve">
<g>
	<path fill="#2AA8C3" d="M18.675,553l-18.621,0.08v-53.264c-0.081-0.324-0.065-0.634,0-0.926V0.08H21.82
		c1.02,0.244,2.618,0.453,3.022,0.584c1.018,0.323,2.618,0.941,4.186,1.863c0.018,0.018,0.033,0.035,0.033,0.035
		c0.178,0.096,0.34,0.193,0.518,0.308c2.779,1.752,5.316,4.477,4.427,8.274c-0.291,0.939-2.003,2.094-4.151,3.213
		c-0.018,0.016-0.049,0.016-0.064,0.033c-3.248,1.702-7.45,3.309-8.985,3.892c0.453,5.632,2.762,6.085,5.139,6.555
		c0.031,0,0.049,0.015,0.082,0.015c1.42,0.278,2.857,0.585,3.94,1.997c0.05,0.065,0.114,0.146,0.146,0.227
		c0.017,0.019,0.017,0.034,0.031,0.05c1.004,1.737,1.586,6.505,0.194,8.308c-2.196,3.812-2.196-0.958-4.767-0.488
		c-1.844,0-4.769,0-5.866,1.914c-2.568,3.812,0.373,3.812,0,7.61c0,0.974-0.824,4.07-1.374,6.149
		c-0.275,1.022-0.469,1.784-0.469,1.945c1.115,3.814,3.669,0,4.768,3.344c0.711,1.704,0.323,3.146-0.34,4.478
		c-1.341,2.758-3.749,5.012,0.712,7.902c2.812,1.833,6.271-1.673,9.228-0.392c0.03,0.017,0.049,0.017,0.08,0.034
		c0.856,0.405,1.682,1.232,2.424,2.74c4.041,8.567-2.196,8.567-5.865,7.627c-1.438-0.357-2.617-0.616-3.637-0.682h-0.08
		c-2.684-0.179-4.072,1.021-5.284,5.597c-0.176,0.665-0.355,1.412-0.533,2.223c0.243-0.033,0.518-0.065,0.792-0.082
		c3.346-0.209,8.209,1.057,6.173,7.221c-1.098,2.384-14.657,4.77-7.32,11.438c0.695,0.634,1.487,0.876,2.344,0.86h0.08
		c3.62-0.097,8.403-4.493,12.233-1.818c4.04,2.386,5.493,10.48,0.729,13.338c-1.455,0.939-3.377,0.6-5.381,0.422H28.9
		c-2.002-0.178-4.088-0.178-5.897,1.477c-5.382,4.769-4.233,5.937-1.471,6.62c0.033,0,0.049,0.015,0.08,0.015
		c1.375,0.308,3.137,0.519,4.687,0.989c3.572,1.072,6.949,4.301,5.916,7.641c-0.018,0.051-0.033,0.1-0.05,0.148
		c-0.192,0.617-0.565,1.232-1.115,1.849l-0.017,0.016c-0.389,0.455-0.854,0.878-1.438,1.298c-1.052,0.553-5.996,0.635-9.018,2.32
		c-0.033,0.016-0.049,0.031-0.08,0.047c-2.183,1.252-3.297,3.377-1.165,7.157c0.872,1.591,3.685,1.786,5.883,2.577
		c0.017,0,0.05,0.018,0.063,0.018c2.393,0.878,4.041,2.482,1.763,7.415c-1.116,2.336-2.894,3.05-4.733,3.603
		c-0.019,0-0.051,0.017-0.064,0.017c-0.89,0.26-1.795,0.486-2.636,0.826c-1.018,0.439-1.955,1.072-2.666,2.225
		c-0.468,0.761-0.841,1.767-1.065,3.113c-0.081,0.488-0.146,1.038-0.195,1.639c-0.129,1.672,0.195,3.408,0.695,5.16
		c0.064,0.227,0.13,0.47,0.209,0.714c0.616,1.947,1.407,3.926,2.005,5.857c0.323,1.021,0.582,2.043,0.743,3.034
		c0.259,2.044,1.924,5.062,3.2,8.274v0.016c0.081,0.163,0.13,0.309,0.194,0.47c0,0.018,0,0.033,0.016,0.033
		c0.438,1.136,0.808,2.271,1.051,3.406c0.551,2.614,0.534,4.332,0.178,5.534c0,0.033,0,0.048-0.017,0.08c0,0.016,0,0.016,0,0.016
		c-0.306,0.991-0.824,1.607-1.392,2.078c-0.03,0.016-0.047,0.049-0.08,0.065c-1.146,0.957-2.455,1.396-2.455,3.18
		c-0.372,4.771,0.403,3.05,1.874,6.376c-0.356-0.439,0.938,7.139,1.099,7.625c-0.728,3.813-1.099,4.284-4.396,8.096
		c0.938,2.239,2.216,2.743,3.668,2.677h0.08c1.892-0.083,4.074-1.104,6.144-0.292c1.13,0.73,3.103,2.289,3.976,4.267
		c0.273,0.6,0.436,1.25,0.436,1.932c0,4.753-1.471,2.854-4.04,4.283c-3.296,1.897-9.162,0.958-8.789,6.668
		c0,1.542,1.179,2.255,2.261,2.889c0.016,0,0.051,0.016,0.065,0.031c0.889,0.504,1.696,0.975,1.696,1.833
		c0,1.282-0.631,2.565-1.373,3.765c-0.064,0.097-0.131,0.179-0.18,0.276c-0.016,0.016-0.031,0.049-0.048,0.064
		c-0.598,0.924-1.244,1.784-1.697,2.563c2.198,0.958,4.396,1.914,5.494,4.771c-1.098,0.713-2.763,1.33-4.395,1.994
		c-3.848,1.574-7.466,3.376-2.57,7.058c1.035,0.665,7.483,0.86,10.698,2.986c0.033,0.016,0.062,0.048,0.097,0.065
		c1.261,0.843,1.987,2.012,1.683,3.618c-0.293,1.638-2.069,2.237-4.283,2.577c-0.031,0-0.064,0.019-0.098,0.019
		c-3.57,0.552-8.208,0.487-9.566,3.115c-3.652,6.181,1.471,9.522,3.314,14.765c-1.472,0.469-4.04,2.383-3.669,4.752
		c0.354,3.344,2.57,0.957,3.296,2.873c0.469,0.924,1.406,1.248,1.907,2.141c0.018,0.033,0.049,0.082,0.064,0.115
		c0.178,0.373,0.291,0.844,0.274,1.477v0.048c-0.017,0.146-0.017,0.325-0.049,0.503c-0.372,3.278-3.216,1.477-3.992,2.807
		c-0.016,0.017-0.016,0.032-0.032,0.049c-0.34,0.697-0.564,1.33-0.712,1.897c-1.356,4.916,3.541,5.111,4.833,7.173
		c0.695,1.069,0.404,2.66-2.294,5.693c1.421,0.455,4.202,1.363,5.38,3.146c0.033,0.049,0.082,0.113,0.113,0.18
		c2.199,4.77,0,2.854-1.453,4.77c-2.215,2.387-8.065,3.814-4.041,10.482c0.082,0.113,0.163,0.227,0.259,0.322
		c0.033,0.049,0.065,0.084,0.099,0.131c2.794,3.132,9.192,0.811,9.549,8.111c0.211,4.187-1.972,5.437-4.476,6.133h-0.018
		c-0.049,0.016-0.113,0.033-0.162,0.049c-1.711,0.453-3.57,0.666-4.878,1.443c-1.262,0.827-3.022,1.801-4.139,3.31
		c-0.823,1.104-1.308,2.483-1.001,4.3c0.145,0.729,0.388,1.232,0.694,1.574c1.324,1.508,3.767,0.324,4.072,2.238
		c1.745,7.739-5.203,8.08,1.211,13.888c0.049,0.063,0.113,0.112,0.164,0.161c0.258,0.229,0.531,0.473,0.822,0.716
		c0.129,0.112,0.243,0.227,0.354,0.342h0.018c0.018,0.017,0.018,0.017,0.033,0.031c5.703,5.239,3.135,3.114-1.875,9.638
		c-6.157,8.923,1.293,10.918,6.433,14.163c0,0.016,0.015,0.016,0.015,0.016c0.049,0.033,0.114,0.064,0.162,0.1
		c6.223,3.341,4.768,5.238-1.471,6.667c-0.938,0.244-1.874,0.438-2.779,0.635c-0.016,0-0.049,0.015-0.064,0.015
		c-3.636,0.745-6.527,1.479-5.704,5.694c0.145,0.779,0.438,1.671,0.856,2.71c1.101,2.856,4.024,0,4.024,5.24
		c0,5.71-4.024,2.855-5.14,6.198c-0.065,0.259-0.111,0.502-0.146,0.729c-0.823,4.722,2.441,5.582,5.222,7.236
		c0.016,0,0.049,0.017,0.063,0.032v0.017c0.501,0.291,1.002,0.617,1.455,1.006c0,0,0.017,0.016,0.03,0.016
		c0.018,0.018,0.051,0.034,0.065,0.065c0.55,0.504,1.052,1.103,1.39,1.851c-1.842,3.326-14.674,3.812-6.609,9.993
		c-0.161,0.179-0.29,0.34-0.42,0.503c-1.455,1.851-1.356,3.245-0.694,4.574c1.244,2.469,4.476,4.69,3.312,9.217
		c-0.241,1.071-0.904,1.508-1.567,1.801c-1.405,0.634-2.86,0.683-0.631,4.867c0.745,2.387,3.297,2.387,5.141,2.856
		c0.11,0.062,0.209,0.112,0.322,0.161c4.33,2.319,6.043,3.78,6.172,4.771v0.017c0.229,1.815-4.943,2.059-8.936,3.309
		c-0.032,0.017-0.048,0.017-0.081,0.033c-2.456,0.778-4.443,1.932-4.443,4.089c0,3.812,3.669,1.427,4.023,5.239
		c0.372,2.856-3.669,2.856-3.297,6.196c0.097,0.487,0.34,0.927,0.71,1.314l0.099,0.099c2.617,2.727,10.181,3.991,5.431,8.112
		c-0.195,0.129-0.421,0.21-0.632,0.242H23.76v0.018c-0.549,0.064-1.146-0.114-1.761-0.358c-0.856-0.355-1.745-0.875-2.618-1.218
		c-0.712-0.274-1.405-0.421-2.035-0.227c-0.34,0.082-0.647,0.276-0.938,0.586c-2.247,2.435-1.632,4.736-0.099,6.472
		c1.472,1.672,3.783,2.823,5.221,3.053c0,6.195-5.494,5.238-4.023,11.438c0.145,0.957,1.47,1.979,2.505,2.969
		c0.017,0.018,0.032,0.031,0.048,0.049c1.326,1.267,2.149,2.468-0.712,3.31c-0.016,0-0.048,0.018-0.063,0.018
		c-0.404,0.112-0.872,0.211-1.423,0.323C19.734,550.29,21.969,551.031,18.675,553z"/>
</g>
</svg>
