<?xml version="1.0" encoding="utf-8"?>
<!-- Generator: Adobe Illustrator 15.1.0, SVG Export Plug-In . SVG Version: 6.00 Build 0)  -->
<!DOCTYPE svg PUBLIC "-//W3C//DTD SVG 1.1//EN" "http://www.w3.org/Graphics/SVG/1.1/DTD/svg11.dtd">
<svg version="1.1" id="Layer_1" xmlns="http://www.w3.org/2000/svg" xmlns:xlink="http://www.w3.org/1999/xlink" x="0px" y="0px"
	 width="43px" height="553px" viewBox="0 0 43 553" enable-background="new 0 0 43 553" xml:space="preserve">
<g>
	<path fill="#CCE312" d="M0.054,498.892V0.08h2.618c0.145,0.031,6.513,0.632,7.934,1.426c0.744,0.356,1.342,0.698,1.793,1.039
		c2.344,1.704,1.164,3.116-0.953,4.381C9.055,8.353,5.483,9.635,4.497,11.03c1.276,2.854,3.814,2.854,5.091,6.669
		c-2.537,3.341-5.85,2.385-6.61,9.054c0.856-0.812,4.461,0.356,7.45,2.546c1.132,0.827,2.165,1.816,2.924,2.904
		c0,0,0.033,0.015,0.033,0.032c0.793,1.104,1.276,2.305,1.276,3.568c0,7.609-3.555,1.429-4.833,1.9
		c-2.536,0.468-4.313,2.855-5.832,7.138c2.795,4.77,10.665,0.484,8.128,12.864c-3.296-4.282-8.128-0.956-9.905,5.242
		c1.777,3.326,4.314,1.427,6.093,3.326c3.554,4.3,1.276,4.3-0.761,7.624c-8.127,12.866,4.314,0.958,4.573,13.337
		c-1.276,0.957-3.556,0-4.832,1.427c-4.314,4.284-0.759,3.327,1.02,6.198c5.332,8.567-4.573,6.181-3.556,17.621
		c1.018-0.473,4.315-3.815,5.333-1.917c2.294,3.814-2.797,6.67-3.038,9.54c-0.518,6.653,6.593,3.329,5.833,11.422
		c-2.536,0-6.093-2.854-6.351,4.285c-0.259,2.854,2.035,4.282,1.778,7.625c-0.259,2.855-3.055,6.668-3.814,9.052
		c1.276-0.486,6.108-6.196,5.851,0c-0.259,3.814-4.314,6.183-5.592,8.096c1.746,3.506,5.219,1.947,8.629,0.715
		c2.279-0.826,4.524-1.507,6.221-0.455c0.922,0.57,1.683,1.672,2.183,3.555c-0.114,0.08-0.21,0.146-0.323,0.225
		c-1.713,1.088-3.62,1.429-5.591,1.559c-4.121,0.325-8.499-0.194-11.878,3.927c1.729,2.597,8.128,2.109,12.378,2.872
		c0.452,0.082,0.89,0.178,1.276,0.276c1.357,0.405,2.344,1.022,2.603,2.093c0.274,1.687-0.436,3.065-1.665,4.202
		c-1.906,1.784-5.043,3.034-7.707,4.104c-1.924,0.763-3.571,1.444-4.348,2.174c0.308,1.006,1.196,1.395,2.263,1.623
		c2.471,0.518,5.979,0.096,5.622,4.087c-0.016,0.163-0.063,0.309-0.129,0.455c-0.873,1.995-5.817,2.434-7.238,2.871
		c-1.277,0.959-3.814,0.959-3.571,4.3c0,2.693,1.665,1.963,2.714,2.093c0.243,0.031,0.453,0.097,0.598,0.275
		c0.404,0.682,0.713,1.314,0.954,1.898c1.6,3.895-0.065,5.825-2.488,9.54c2.294,1.427,4.832-2.385,7.385-0.957
		c0.21,0.114,0.42,0.244,0.614,0.374h0.016c2.941,2.01,2.973,5.45,0.129,7.252c-0.259,0.242-1.422,0.356-2.908,0.519
		c-4.299,0.471-11.28,1.313-6.754,6.618c-0.502,0.959-0.761,2.386-1.276,3.344c6.366,7.139-1.261,7.608,0.774,13.806
		c1.52,5.712,7.611-0.471,5.835,9.994c-2.538,0-7.628,2.871-3.814,7.156c1.276,1.897,3.814-1.428,5.349,1.426
		c1.195,2.483,1.065,3.667,0.42,4.641c-0.404,0.632-1.051,1.167-1.681,1.914c-0.063,0.081-0.129,0.162-0.178,0.244
		c-0.21,0.243-0.404,0.503-0.599,0.811c-1.018,1.444-4.314,4.299-4.572,7.153c-0.517,5.712,1.519,2.857,3.296,4.285
		c4.832,3.812,2.536,3.812-0.241,9.523c1.066,0.858,2.698,0.341,4.153,0.211c0.953-0.099,1.842-0.018,2.439,0.746
		c0.404,0.485,0.711,0.941,0.904,1.362c1.6,3.262-2.375,4.673-3.942,7.203c1.407,0.325,2.925,0.65,3.572,2.402
		c0.29,0.779,0.403,1.85,0.24,3.31c-0.727,0.179-1.891-0.081-3.151-0.309c-2.325-0.454-5.023-0.877-6.01,1.266
		c-2.279,4.771,1.534,4.771,1.018,9.054c0,2.384-2.278,5.241-3.038,7.139c6.352,2.384,3.814,3.341,0.502,11.438
		c1.986,2.287,5.721,1.312,8.999,1.412c2.149,0.047,4.123,0.582,5.237,2.87c2.392,5.404-2.699,8.243-5.817,9.75
		c-0.194,0.083-0.372,0.163-0.533,0.245c-3.571,1.427-8.903,1.427-8.388,9.054c0.502,5.709,4.056,3.811-0.516,9.052
		c0.516,0.958,3.554,3.812,3.554,4.753c0.259,3.814-2.795,4.285-3.297,6.668c-2.035,8.583,3.556,4.77,6.094,8.583
		c-1.261,4.284-4.574,5.711-6.094,9.036c1.213,2.969,3.136,3.214,5.155,3.116c2.215-0.098,4.559-0.584,6.285,1.654
		c-0.387,1.217-1.002,2.158-1.76,2.873c-5.123,4.93-16.596,0.323-6.625,12.36c-7.886,9.542,3.296,4.771,1.018,12.397
		c-1.018,2.854-5.607,1.897-5.091,6.667c0.761,3.798,5.332,1.429,6.868,1.429c1.261,0,6.851-0.959,6.092,4.283
		c-0.502,2.854-5.591,2.385-6.608,2.854c-4.058,1.427-11.685,7.625-3.556,11.438c-0.502,0.47-1.276,1.898-2.035,2.368
		c1.018,4.771,3.554,1.427,5.848,3.343c-1.018,3.812-4.314,3.812-6.35,5.711c1.52,6.913,8.048,0.974,12.136,3.846
		c0.695,0.485,1.324,1.232,1.843,2.352c-1.486,2.563-3.846,2.726-6.255,2.693c-2.941-0.049-5.946-0.389-7.48,3.018
		c1.276,2.856,3.312,2.856,5.089,3.327c-0.76,3.812-3.297,3.342-5.332,4.769c1.52,5.273,5.785,2.271,8.419,4.477
		c0.469,0.391,0.889,0.942,1.228,1.722c-0.112,0.114-1.082,0.356-2.406,0.747C6.193,494.722,0.732,496.475,0.054,498.892z"/>
</g>
<g>
	<path fill="#CCE312" d="M0.054,523.99v-24.174c0.16,0.697,0.76,1.444,1.906,2.24c-0.517,0.485-1.018,1.914-1.519,2.384
		c3.297,2.384,2.795,6.198,0,8.582c0.76,1.899,16.773,2.855,8.387,8.079C7.858,521.719,1.766,522.514,0.054,523.99z"/>
</g>
<g>
	<path fill="#CCE312" d="M2.672,553.08H0.054v-27.452c0.533,0.505,1.535,1.056,3.183,1.673c-0.774,0.47-1.535,2.854-2.294,3.341
		c1.52,1.43,3.312,2.368,4.073,5.241c-1.277,1.428-2.797,2.369-3.814,4.282c2.795,4.284,7.11,0.47,10.423,0.47
		c1.212,0,2.536,0.115,3.296,0.682c0.824,0.65,0.954,1.852-0.502,4.09c-0.516,0.795-1.146,1.363-1.856,1.752
		c-3.556,2.044-9.196,0-12.379,1.573C0.618,551.23,1.589,552.27,2.672,553.08z"/>
</g>
</svg>
