<?xml version="1.0" encoding="utf-8"?>
<!-- Generator: Adobe Illustrator 15.1.0, SVG Export Plug-In . SVG Version: 6.00 Build 0)  -->
<!DOCTYPE svg PUBLIC "-//W3C//DTD SVG 1.1//EN" "http://www.w3.org/Graphics/SVG/1.1/DTD/svg11.dtd">
<svg version="1.1" id="Layer_1" xmlns="http://www.w3.org/2000/svg" xmlns:xlink="http://www.w3.org/1999/xlink" x="0px" y="0px"
	 width="43px" height="553px" viewBox="0 0 43 553" enable-background="new 0 0 43 553" xml:space="preserve">
<g>
	<path fill="#EF0A7C" d="M11.959,553l-11.905,0.08v-53.264c-0.081-0.324-0.065-0.634,0-0.926V0.08h9.78
		c4.75,0.253,7.368,2.168,2.224,3.463c-2.891,0.498-0.532,0.998-2.633,2.651c0.679,0.146,1.357,0.389,2.02,0.73
		c1.681,0.861,3.248,2.32,4.477,4.023c2.37,2.343-4.104,4.282-6.157,7.626c3.426,2.856,9.243-1.43,5.479,6.197
		c-0.695,1.427-4.104,1.427-4.784,4.283c-0.016,0.08-0.016,0.163-0.031,0.243c-0.564,4.235,1.276,1.443,2.924,2.904
		c0,0,0.033,0.015,0.033,0.032c0.049,0.048,0.097,0.097,0.146,0.146c5.816,5.71,6.497,3.812,1.018,10.481
		c-4.783,5.709-3.069,6.666,2.053,7.625c0.485,0.081,1.083,0.098,1.729,0.13c3.086,0.112,7.436,0.242,7.159,6.538
		c-0.179,2.19-1.521,2.888-3.2,3.229c-1.582,0.34-3.49,0.355-4.992,1.055c-2.053,0.469-4.105,0.958-5.478,3.326
		c-2.731,4.77-0.679,2.385,0,5.727c0.678,1.899,3.085-0.487,3.425,3.327c0,0.956-3.425,4.283-4.104,4.768
		c1.388,2.273,7.124,2.547,8.725,4.625c0.438,0.552,0.582,1.25,0.259,2.141c-0.225,0.634-0.711,1.381-1.471,2.272
		c-2.391,2.87-6.834,0-8.548,4.77c-2.036,5.241,1.714,4.77,4.799,5.712c5.22,0.52-1.713,2.853-2.407,3.811
		c2.052,0.471,3.766,1.9,4.8,4.286c-2.393,1.913-7.87,4.768-4.8,9.522c2.052,2.856,6.156-0.472,8.549,0.957
		c-1.018,3.342-3.749,4.769-5.462,7.138c11.957,5.728-6.157,20.493,3.425,23.817c1.423,0.521,4.396,0.763,5.817,2.143
		c0.018,0.017,0.033,0.032,0.05,0.048c0.872,0.893,1.114,2.272-0.065,4.478c-0.438,1.006-1.776,1.33-3.345,1.491h-0.08
		c-2.118,0.196-4.639,0.082-5.802,0.895c-2.506,2.287-2.925,3.667-2.198,4.607c0.582,0.797,1.955,1.297,3.555,1.77
		c1.487,0.454,3.168,0.892,4.525,1.555c2.278,1.104,3.685,2.857,1.972,6.346c-0.129,0.34-2.844,1.167-5.786,2.288
		c-0.354,0.146-0.711,0.291-1.067,0.438c-5.008,2.027-9.84,4.9-3.053,7.754c-1.309,1.152-2.021,1.638-2.649,2.207
		c-0.696,0.617-1.311,1.313-2.538,3.033c0.146,0.276,0.291,0.52,0.453,0.764c1.453,2.14,3.684,2.951,5.493,4.542
		c0.438,0.405,0.873,0.843,1.245,1.362c-1.714,4.283-6.837,3.812-9.923,6.669c0.194,0.453,0.389,0.859,0.582,1.233
		c0.502,0.972,1.018,1.688,1.552,2.173c2.827,2.759,5.8-0.242,8.807,2.791c3.119,2.986-0.08,4.43-3.28,6.167H13.26
		c-2.408,1.329-4.8,2.805-4.509,5.255c0.226,1.12,0.922,1.866,1.745,2.516c1.616,1.264,3.716,2.11,3.716,4.64
		c0,3.795-2.729,0.94-3.749,3.795c-1.712,4.3,0.341,2.873-0.694,7.156c-0.678,2.854-0.339,4.284-2.39,6.182
		c1.372,0.488,5.121,0.488,6.155,2.385c2.392,4.77-1.373,2.384-1.712,5.24c-1.359,9.523,4.104,5.242,10.26,6.199
		c0.081,0.015,0.178,0.032,0.259,0.048c0.033,0,0.05,0.016,0.081,0.016c0.098,0.016,0.194,0.049,0.309,0.065
		c1.406,0.341,2.697,0.99,3.731,1.802c0,0.015,0.019,0.015,0.019,0.015c2.744,2.19,3.537,5.581-0.987,7.576
		c-1.162,0.375-2.359,0.39-3.587,0.275c-3.475-0.307-7.144-1.671-10.423,1.153c-0.162,0.146-0.308,0.292-0.453,0.439
		c-0.744,0.713-1.293,1.347-1.681,1.914c-0.063,0.081-0.129,0.162-0.178,0.244c-2.683,4.12,3.216,4.363,6.416,5.97
		c9.228,5.241,1.713,6.667-2.053,11.438c-1.632,2.271-2.295,3.684-2.326,4.576c-0.082,1.541,1.616,1.654,3.344,2.107
		c1.521,0.406,3.055,1.104,3.427,3.311c0.289,2.645-1.777,4.512-3.797,6.295c-1.132,0.973-2.23,1.948-2.911,3.001
		c-0.968,1.509-1.064,3.213,0.891,5.468c1.712,1.916,6.156-2.369,6.851,2.385c0.018,0.211,0.018,0.422,0,0.617
		c-0.032,0.827-0.322,1.443-0.744,1.946c-1.178,1.46-3.36,1.966-3.36,3.634c0.211,4.625,4.443,3.635,8.192,3.538
		c1.196-0.049,2.358,0.015,3.313,0.372c0.017,0,0.048,0.016,0.065,0.016c0.951,0.375,1.695,1.057,2.1,2.258
		c1.098,3.422,0.13,5.126-1.665,5.937c-0.015,0-0.031,0.017-0.049,0.017c-0.209,0.111-0.437,0.176-0.679,0.242
		c-3.265,1.021-8.354-0.082-9.583,0.472c-1.229,0.567-2.569,1.833-3.863,3.407c-2.003,2.369-3.926,5.468-5.362,8.03
		c1.566,2.062,3.278,3.472,4.782,4.591c4.395,3.31,6.868,4.139-2.053,11.602c-8.129,6.264,1.245,4.479,6.932,6.83
		c1.245,0.486,2.311,1.201,2.991,2.223c-0.971,1.914-2.215,2.823-3.298,3.65c-1.633,1.184-2.925,2.174-2.521,5.873
		c0.34,2.855,6.837,4.754,0.34,7.608c1.374,1.431,3.427,2.856,5.141,4.3c-2.846,4.836-8.292,4.397-11.556,8.422
		c-0.259,0.323-0.518,0.697-0.758,1.104c1.532,1.217,3.78,1.849,5.283,3.424c0.823,0.857,1.437,2.01,1.55,3.713
		c0.34,6.199-7.513,7.141-7.853,11.422c-0.55,5.843,5.414,7.628,11.764,8.438c2.618,0.357,5.315,0.535,7.66,0.765h0.079
		c0,0,0,0,0.018,0c2.569,0.258,4.686,0.582,5.77,1.279c10.455,6.133-2.116,9.183-9.209,11.13c-0.033,0-0.049,0.017-0.084,0.017
		c-1.679,0.471-3.053,0.86-3.699,1.234c-0.259,0.112-0.581,0.258-0.938,0.452c-2.795,1.461-7.836,5.322-6.915,9.559
		c1.019,3.341,8.208,1.427,3.408,6.666c2.296,1.592,3.927,3.05,4.703,4.494c0.808,1.525,0.663,3.002-0.694,4.574
		c-0.809,0.91-2.004,1.852-3.669,2.84c-0.064,0.033-0.13,0.082-0.193,0.115c-3.943,2.303-5.01,3.894-4.412,5.045
		c0.857,1.654,5.188,2.369,9.404,2.937c0.212,0.018,0.421,0.051,0.615,0.081c1.276,0.214,2.391,0.535,3.312,1.007
		c0.017,0,0.033,0.018,0.049,0.018c2.859,1.395,3.91,3.763,2.472,5.807c-0.241,0.373-0.581,0.716-1.001,1.056
		c-0.986,0.811-2.441,1.525-4.428,2.027c-1.778,0.633-7.305,0.649-9.729,2.659c-0.743,0.619-1.196,1.412-1.179,2.469
		c0.016,0.812,0.306,1.802,1,2.969c-1.372,2.871,0.341,5.238,2.393,7.154c-1.373,4.754,2.392,1.429,2.392,4.283
		c-0.34,4.771-4.784,2.854-5.139,5.241c-0.663,3.698,3.539,4.396,7.24,4.833c0.709,0.066,1.405,0.146,2.035,0.227
		c1.18,0.148,2.149,0.326,2.698,0.65c-0.016,0.195-0.048,0.39-0.08,0.566c-0.5,2.612-2.973,4.301-5.689,5.613
		c-6.075,2.904-13.396,3.911-2.778,9.054c-0.34,0.487-1.034,0.959-1.712,1.445c4.476,2.66,4.7,3.845,3.102,5.515
		c-0.985,1.007-2.65,2.208-4.461,4.009c0.486,0.682,1.245,1.282,2.103,1.833C15.711,549.219,21.75,552.25,11.959,553z"/>
</g>
</svg>
