<?xml version="1.0" encoding="utf-8"?>
<!-- Generator: Adobe Illustrator 15.1.0, SVG Export Plug-In . SVG Version: 6.00 Build 0)  -->
<!DOCTYPE svg PUBLIC "-//W3C//DTD SVG 1.1//EN" "http://www.w3.org/Graphics/SVG/1.1/DTD/svg11.dtd">
<svg version="1.1" id="Layer_1" xmlns="http://www.w3.org/2000/svg" xmlns:xlink="http://www.w3.org/1999/xlink" x="0px" y="0px"
	 width="43px" height="553px" viewBox="0 0 43 553" enable-background="new 0 0 43 553" xml:space="preserve">
<g>
	<path fill="#CCE312" d="M43.525,54.269V553.08h-2.617c-0.146-0.031-6.514-0.632-7.935-1.426c-0.744-0.355-1.343-0.698-1.793-1.039
		c-2.345-1.704-1.164-3.116,0.953-4.381c2.391-1.428,5.963-2.709,6.948-4.104c-1.275-2.854-3.813-2.854-5.09-6.669
		c2.537-3.341,5.85-2.385,6.609-9.054c-0.855,0.812-4.461-0.356-7.45-2.546c-1.132-0.827-2.165-1.816-2.924-2.904
		c0,0-0.032-0.015-0.032-0.031c-0.794-1.104-1.277-2.306-1.277-3.568c0-7.609,3.556-1.43,4.834-1.9
		c2.535-0.468,4.312-2.855,5.832-7.138c-2.795-4.771-10.666-0.484-8.129-12.864c3.297,4.282,8.129,0.956,9.905-5.242
		c-1.776-3.326-4.313-1.427-6.093-3.326c-3.555-4.3-1.275-4.3,0.762-7.623c8.127-12.867-4.314-0.959-4.574-13.338
		c1.276-0.957,3.557,0,4.832-1.427c4.314-4.284,0.76-3.327-1.02-6.198c-5.332-8.566,4.573-6.181,3.557-17.621
		c-1.019,0.474-4.315,3.815-5.334,1.918c-2.293-3.814,2.797-6.67,3.039-9.541c0.518-6.652-6.594-3.328-5.834-11.422
		c2.536,0,6.094,2.854,6.352-4.285c0.259-2.854-2.035-4.281-1.778-7.625c0.259-2.854,3.056-6.668,3.813-9.051
		c-1.275,0.485-6.107,6.195-5.851,0c0.259-3.814,4.313-6.184,5.593-8.097c-1.746-3.506-5.22-1.947-8.629-0.715
		c-2.279,0.825-4.525,1.507-6.222,0.455c-0.922-0.57-1.683-1.673-2.183-3.556c0.114-0.08,0.209-0.146,0.323-0.225
		c1.713-1.088,3.62-1.429,5.592-1.559c4.121-0.325,8.498,0.193,11.877-3.928c-1.729-2.597-8.127-2.108-12.377-2.871
		c-0.453-0.082-0.891-0.179-1.276-0.276c-1.356-0.405-2.345-1.022-2.603-2.093c-0.274-1.688,0.436-3.065,1.664-4.202
		c1.906-1.784,5.043-3.034,7.707-4.104c1.924-0.763,3.571-1.443,4.348-2.174c-0.307-1.006-1.195-1.395-2.262-1.623
		c-2.472-0.518-5.979-0.096-5.623-4.087c0.017-0.163,0.063-0.31,0.129-0.455c0.873-1.995,5.817-2.435,7.238-2.871
		c1.277-0.959,3.814-0.959,3.571-4.3c0-2.693-1.665-1.963-2.714-2.093c-0.243-0.031-0.453-0.097-0.598-0.275
		c-0.404-0.682-0.713-1.313-0.955-1.897c-1.6-3.896,0.065-5.825,2.488-9.541c-2.294-1.426-4.832,2.386-7.385,0.957
		c-0.21-0.113-0.42-0.243-0.613-0.373h-0.017c-2.94-2.01-2.974-5.45-0.129-7.252c0.259-0.242,1.422-0.356,2.907-0.52
		c4.3-0.471,11.281-1.312,6.754-6.617c0.503-0.959,0.762-2.387,1.277-3.345c-6.367-7.139,1.26-7.608-0.774-13.806
		c-1.521-5.713-7.611,0.471-5.835-9.994c2.537,0,7.628-2.871,3.814-7.156c-1.277-1.896-3.814,1.428-5.35-1.426
		c-1.195-2.482-1.064-3.667-0.42-4.641c0.404-0.633,1.051-1.168,1.681-1.914c0.063-0.082,0.129-0.162,0.179-0.244
		c0.209-0.243,0.403-0.503,0.599-0.811c1.018-1.445,4.313-4.3,4.571-7.154c0.518-5.711-1.519-2.856-3.295-4.284
		c-4.832-3.812-2.537-3.812,0.24-9.523c-1.066-0.858-2.697-0.341-4.152-0.211c-0.953,0.099-1.842,0.019-2.439-0.746
		c-0.404-0.485-0.711-0.94-0.904-1.362c-1.6-3.262,2.375-4.672,3.942-7.203c-1.407-0.324-2.925-0.649-3.572-2.401
		c-0.29-0.778-0.403-1.851-0.239-3.31c0.727-0.18,1.891,0.08,3.15,0.309c2.325,0.454,5.023,0.877,6.01-1.266
		c2.279-4.771-1.533-4.771-1.018-9.055c0-2.384,2.277-5.24,3.038-7.139c-6.353-2.384-3.814-3.341-0.503-11.438
		c-1.985-2.287-5.721-1.312-8.998-1.412c-2.149-0.047-4.123-0.582-5.237-2.87c-2.392-5.404,2.699-8.243,5.817-9.75
		c0.193-0.083,0.371-0.163,0.533-0.245c3.57-1.428,8.902-1.428,8.388-9.055c-0.503-5.709-4.056-3.811,0.516-9.051
		c-0.516-0.959-3.554-3.812-3.554-4.754c-0.26-3.813,2.795-4.285,3.297-6.668c2.035-8.583-3.557-4.77-6.094-8.583
		c1.261-4.284,4.574-5.711,6.094-9.036c-1.213-2.969-3.137-3.214-5.154-3.115c-2.216,0.098-4.56,0.584-6.285-1.654
		c0.387-1.217,1.002-2.158,1.76-2.873c5.123-4.93,16.596-0.323,6.625-12.36c7.887-9.542-3.297-4.771-1.019-12.396
		c1.019-2.854,5.607-1.897,5.091-6.667c-0.761-3.798-5.332-1.429-6.867-1.429c-1.262,0-6.852,0.959-6.092-4.283
		c0.502-2.854,5.59-2.386,6.607-2.854c4.059-1.427,11.686-7.625,3.557-11.438c0.502-0.471,1.275-1.898,2.034-2.368
		c-1.019-4.771-3.554-1.427-5.848-3.343c1.018-3.812,4.313-3.812,6.35-5.711c-1.521-6.913-8.048-0.975-12.136-3.847
		c-0.695-0.484-1.324-1.231-1.844-2.352c1.486-2.563,3.847-2.727,6.256-2.693c2.941,0.049,5.945,0.39,7.48-3.018
		c-1.277-2.856-3.312-2.856-5.09-3.327c0.76-3.812,3.297-3.342,5.332-4.77c-1.52-5.272-5.785-2.271-8.419-4.477
		c-0.469-0.391-0.889-0.942-1.228-1.722c0.111-0.114,1.082-0.356,2.406-0.747C37.387,58.438,42.848,56.686,43.525,54.269z"/>
</g>
<g>
	<path fill="#CCE312" d="M43.525,29.17v24.174c-0.16-0.696-0.76-1.443-1.906-2.239c0.518-0.485,1.019-1.914,1.52-2.385
		c-3.297-2.384-2.795-6.197,0-8.581c-0.76-1.899-16.773-2.855-8.387-8.079C35.722,31.441,41.813,30.646,43.525,29.17z"/>
</g>
<g>
	<path fill="#CCE312" d="M40.908,0.08h2.617v27.452c-0.533-0.505-1.535-1.056-3.183-1.673c0.774-0.47,1.534-2.854,2.294-3.341
		c-1.52-1.431-3.312-2.368-4.073-5.241c1.277-1.428,2.797-2.369,3.813-4.282c-2.795-4.284-7.109-0.47-10.422-0.47
		c-1.213,0-2.537-0.115-3.297-0.683c-0.824-0.649-0.953-1.852,0.502-4.09c0.517-0.795,1.146-1.362,1.856-1.752
		c3.556-2.044,9.196,0,12.379-1.573C42.961,1.93,41.99,0.891,40.908,0.08z"/>
</g>
</svg>
