<?xml version="1.0" encoding="utf-8"?>
<!-- Generator: Adobe Illustrator 15.1.0, SVG Export Plug-In . SVG Version: 6.00 Build 0)  -->
<!DOCTYPE svg PUBLIC "-//W3C//DTD SVG 1.1//EN" "http://www.w3.org/Graphics/SVG/1.1/DTD/svg11.dtd">
<svg version="1.1" id="Layer_1" xmlns="http://www.w3.org/2000/svg" xmlns:xlink="http://www.w3.org/1999/xlink" x="0px" y="0px"
	 width="43px" height="553px" viewBox="0 0 43 553" enable-background="new 0 0 43 553" xml:space="preserve">
<g>
	<g>
		<path fill="#80BF1F" d="M12.333,553.08H0.054v-25.277H0.07v-5.272H0.054v-22.713c-0.081-0.324-0.065-0.634,0-0.926V0.08H24.5
			c1.25,0,3.607,1.719,4.527,2.447c0.018,0.018,0.033,0.035,0.033,0.035c0.146,0.112,0.289,0.21,0.436,0.308
			c2.879,3.63-5.816,6.523-6.479,11.21c3.037,0,5.074-4.186,6.756,0.277c0,0.016,0.016,0.016,0.016,0.033
			c0.031,0.046,0.048,0.11,0.064,0.159c1.599,4.447-2.748,7.206-3.91,10.287v0.015c-0.082,0.214-0.146,0.44-0.194,0.65
			c-1.974,8.243,1.067,5.563,4.315,1.623c0.016-0.016,0.029-0.031,0.047-0.05c2.359-2.869,4.832-6.407,5.559-6.812
			c7.516-5.241,5.803,11.438,1.357,14.764c-2.036,1.914-5.461,0.47-7.853,2.385c-2.393,1.898-4.104,6.183-4.784,9.053
			c3.409,2.368,12.734,1.036,8.889,7.14c-6.759,3.059-9.584,6.666-8.889,13.336c2.731-0.487,5.123-6.199,7.176-1.914
			c0.482,1.021,0.678,1.979,0.662,2.87c0,0.017,0,0.017,0,0.034c-0.08,4.378-5.283,7.105-7.078,9.686
			c-0.178,0.243-0.323,0.502-0.42,0.746c-4.442,9.054,3.069,4.3,6.836,5.239c4.104,1.428,8.547,8.097,6.834,14.295
			c-3.764,13.335-5.799-4.283-8.887-5.714c-3.055-1.538-7.645,6.882-8.193,12.689c-0.145,1.363-0.049,2.598,0.339,3.504
			c1.357,2.84,12.199-2.338,7.24,8.438c-0.019,0.032-0.049,0.08-0.064,0.129c-1.294,2.873-7.386,5.175-7.305,7.968v0.015
			c0.033,0.941,0.743,1.915,2.522,2.969c2.391,1.43,3.747-1.896,6.494,0.957c0.68,0.942,1.197,2.938,1.585,4.704
			c0.017,0.051,0.017,0.1,0.031,0.148c0.179,0.876-0.583,2.059-1.131,1.864c-0.017,0-0.048-0.016-0.064-0.016
			c-2.729-0.957-5.801-2.708-8.629,0.438c-1.162,1.429-1.712,2.434-1.841,3.196v0.047c-0.404,2.761,4.718,2.193,5.251,6.28
			c0.26,1.17-0.017,2.304-0.533,3.454l-0.016,0.018c-0.113,0.26-0.243,0.537-0.373,0.797c-0.017,0.017-0.017,0.032-0.031,0.048
			c-1.114,2.028-2.764,4.04-3.409,5.969c-0.438,1.201-0.469,2.388,0.273,3.538c0.179,0.276,0.372,0.504,0.564,0.666l0.019,0.017
			c2.567,2.158,7.062-3.31,8.646,5.497c-3.088,0.488-8.889,4.773-5.14,9.056c2.409,2.384,8.549-1.898,11.635-0.471
			c3.07,1.428,8.192,7.61,4.089,11.909c-2.729,2.369-6.836-2.385-9.566-2.855c-2.391,0-6.495,1.428-8.209,4.283
			c-0.938,1.737-1.243,2.775-1.163,3.424v0.016c0.03,0.194,0.081,0.34,0.194,0.47c0,0.018,0,0.033,0.016,0.033
			c0.971,1.249,4.929-0.309,5.415,3.666c0.419,3.196-2.361,3.911-4.188,5.274c-0.031,0.033-0.063,0.048-0.096,0.08
			c0,0.016,0,0.016,0,0.016c-0.693,0.52-1.229,1.169-1.391,2.078v0.065c-0.096,0.552-0.031,1.217,0.193,2.012
			c1.018,3.812,6.836,0,7.516,7.626c0.354,7.625-6.838,5.71-8.193,12.865c-0.484,2.384-0.324,4.137,0.273,5.452
			c1.697,3.683,6.787,3.764,10.115,3.974h0.082c0.403,0.033,0.791,0.049,1.147,0.098c5.815,0.956,9.228,7.139,2.051,9.995
			c-3.41,1.297-11.536-0.926-13.331,5.678c-0.016,0.016-0.016,0.016-0.016,0.031c-0.178,0.699-0.291,1.492-0.323,2.386
			c-0.049,1.363,0.08,2.385,0.339,3.131v0.016c0.033,0.13,0.064,0.244,0.129,0.341c0.018,0.016,0.018,0.049,0.033,0.064
			c0.744,1.639,2.23,1.703,3.895,1.476c0.018,0,0.049,0,0.064-0.015c2.827-0.359,6.076-1.493,6.818,3.082
			c1.02,8.111-6.834,2.872-9.582,6.198c-7.515,8.567,3.766,5.24,4.801,6.198c0.889,0.811,1.373,1.605,1.533,2.433
			c0.018,0.016,0.018,0.048,0.018,0.065c0.42,1.996-1.02,4.039-2.604,6.195l-0.016,0.019c-1.906,2.597-4.008,5.354-3.377,8.437
			c1.696,6.652,7.514,0.94,10.584,5.225c1.373,2.385,2.393,7.154,0.354,9.053c-1.371,0.957-4.104-1.898-5.814-1.898
			c-1.714,0.471-5.479,1.898-6.158,4.754c-0.16,0.859-0.273,1.542-0.307,2.076c-0.018,0.049-0.018,0.082-0.018,0.115
			c-0.047,0.81,0.064,1.25,0.274,1.477c0.019,0.016,0.05,0.048,0.082,0.048c0.726,0.583,2.438-0.812,3.731,0.097
			c2.054,1.428,3.41-0.957,4.104,3.813c0.679,4.771-1.372,2.854-3.087,6.196c-0.533,0.975-1.018,1.852-1.389,2.693l-0.018,0.016
			c-1.746,3.619-2.052,6.119,0.438,8.194c0.016,0.017,0.016,0.017,0.031,0.017c0.613,0.518,1.373,0.988,2.312,1.459
			c1.712,0.957,11.956,3.813,5.815,10.48c-2.748,3.327-7.529-3.342-11.295-0.957c-2.247,1.461-2.909,3.262-2.634,5.014
			c0,0.049,0.016,0.082,0.016,0.131c0.389,2.205,2.263,4.283,4.331,5.337c-1.356,1.428-2.393,3.812-3.75,4.755
			c1.697,0,4.089,1.427,5.123,3.811c-0.209,0.114-0.42,0.228-0.629,0.34h-0.017c-0.032,0.017-0.065,0.035-0.082,0.049
			c-13.832,7.674,10.648,6.798,11.668,9.605c3.069,11.438-17.775,0.486-16.418,14.292c0.111,1.282,0.354,2.207,0.71,2.855
			c0.018,0.063,0.049,0.112,0.082,0.161c0.322,0.554,0.727,0.877,1.18,1.058h0.017c0.032,0.017,0.063,0.031,0.112,0.031
			c1.986,0.665,4.929-1.218,7.143-0.292c7.516,3.812,0.34,5.71-2.747,8.095c-4.444,2.387-6.834,6.198-2.392,9.995
			c2.748,2.386,5.816-1.428,7.531,4.3c-1.438,1.428-3.25,1.492-4.978,1.703c-0.019,0.016-0.049,0.016-0.065,0.016
			c-1.131,0.146-2.229,0.391-3.166,1.137c-3.104,3.083-2.764,5.177-0.922,6.265c0,0,0.016,0,0.016,0.015
			c1.002,0.567,2.425,0.859,3.976,0.859c0.114,2.321-0.92,4.138-2.004,5.6h-0.017c-2.246,3.05-4.669,4.542,2.717,5.839
			c-1.02,2.824-5.721,3.312-6.143,6.57v0.017c-0.017,0.032-0.017,0.05-0.017,0.083c-0.339,2.367,3.071,0.939,2.731,1.896v4.283
			c0.226,1.815-2.004,2.093-2.133,2.66c-0.018,0.017-0.018,0.017-0.018,0.033v0.016c0,0.244,0.372,0.536,1.453,1.006
			c0,0,0.018,0.016,0.033,0.016c0.05,0.018,0.098,0.051,0.146,0.065c0.323,0.146,0.728,0.31,1.195,0.486
			c2.052,0.959,5.139-1.897,7.19,0c9.229,9.54-24.966,2.388-8.549,15.724c-6.496,2.854-1.374,7.625,2.73,7.625
			c0,2.416-2.196,3.827-3.846,5.109c-0.017,0-0.017,0.018-0.031,0.018c-1.892,1.492-3.041,2.806,0.808,5.354
			c0.404,0.309,0.97,0.452,1.663,0.452h0.081c3.329,0.065,9.082-2.465,10.213,1.445c1.147,4.77-1.875,5.128-5.042,4.396
			c-0.031,0-0.047-0.017-0.08-0.017c-2.488-0.585-5.072-1.787-5.816-1.997c-4.443-0.486-9.229,5.241-3.07,4.753
			c-0.016,0.195-0.031,0.373-0.049,0.568c0,0.017,0,0.017,0,0.033c-0.484,9.217,11.15,4.754,3.12,10.838
			c-1.715,1.428-6.836-0.471-6.158,5.711l0.031,0.291l0.018,0.099c0.889,5.108,5.752,0.729,5.091,7.235
			c-0.064,0.406-0.162,0.777-0.292,1.119v0.018c-1.438,3.569-6.303,3.521-0.063,7.431c2.408,1.428,10.262-0.472,7.869,6.196
			c-0.679,2.387-11.295,8.778-11.554,9.086c0,0.018-0.017,0.031-0.033,0.048c-1.035,1.282-1.146,2.338-0.711,3.311l0.017,0.018
			C21.5,549.625,17.125,550.875,12.333,553.08z"/>
	</g>
</g>
</svg>
