<?xml version="1.0" encoding="utf-8"?>
<!-- Generator: Adobe Illustrator 15.1.0, SVG Export Plug-In . SVG Version: 6.00 Build 0)  -->
<!DOCTYPE svg PUBLIC "-//W3C//DTD SVG 1.1//EN" "http://www.w3.org/Graphics/SVG/1.1/DTD/svg11.dtd">
<svg version="1.1" id="Layer_1" xmlns="http://www.w3.org/2000/svg" xmlns:xlink="http://www.w3.org/1999/xlink" x="0px" y="0px"
	 width="100px" height="80px" viewBox="0 0 100 80" enable-background="new 0 0 100 80" xml:space="preserve">
<g>
	<rect width="100" height="80"/>
	<path fill="#FFFFFF" d="M50,12.869c-14.753,0-26.701,11.956-26.701,26.702C23.299,54.314,35.247,66.27,50,66.27
		c14.746,0,26.7-11.956,26.7-26.699C76.7,24.824,64.746,12.869,50,12.869z M37.05,28.956c2.896,0,5.246,2.343,5.246,5.24
		c0,2.899-2.35,5.24-5.246,5.24c-2.89,0-5.24-2.341-5.24-5.24C31.81,31.299,34.16,28.956,37.05,28.956z M49.987,60.229
		c-9.352,0-16.929-6.709-16.929-14.984h33.859C66.918,53.522,59.333,60.229,49.987,60.229z M62.937,39.436
		c-2.89,0-5.239-2.342-5.239-5.241c0-2.896,2.35-5.24,5.239-5.24c2.897,0,5.247,2.343,5.247,5.24
		C68.185,37.095,65.834,39.436,62.937,39.436z"/>
</g>
</svg>
