<?xml version="1.0" encoding="utf-8"?>
<!-- Generator: Adobe Illustrator 15.1.0, SVG Export Plug-In . SVG Version: 6.00 Build 0)  -->
<!DOCTYPE svg PUBLIC "-//W3C//DTD SVG 1.1//EN" "http://www.w3.org/Graphics/SVG/1.1/DTD/svg11.dtd">
<svg version="1.1" id="Layer_1" xmlns="http://www.w3.org/2000/svg" xmlns:xlink="http://www.w3.org/1999/xlink" x="0px" y="0px"
	 width="631px" height="59.003px" viewBox="0 0 631 59.003" enable-background="new 0 0 631 59.003" xml:space="preserve">
<g>
	<path d="M-4.494,60.844c-5.369,1.159,1.611-23.599,2.146-25.147c1.075-2.708-3.222-9.285,4.295-9.285
		c4.832,0,7.518,6.578,12.886,7.351c0-3.481-4.833-5.803,0.536-7.735c5.369-1.936,8.589,3.869,12.348,4.642
		c16.106,3.869-4.833-9.286-5.908-11.22c-5.905-8.511,12.886-6.578,16.646-1.547c2.148,2.32,0.536,6.188,2.683,8.896
		c2.148,2.709,6.98,4.644,10.202,5.416c2.685-3.867-5.904-12.379,8.053-10.057c-2.684,6.578,7.516,10.832,15.033,10.057
		c-0.54-3.094-6.98-5.803-2.149-8.123c7.516-3.481,11.275,6.19,15.033,7.739c10.2,5.026,4.831-3.482,5.906-7.739
		c1.609-4.642,9.127-9.671,16.106-7.737c15.033,4.256-4.831,6.574-6.444,10.057c-2.148,4.258,12.884,11.222,18.255,8.899
		c3.222-1.548-2.686-13.927,9.663-8.123c4.295,1.932,7.517,13.539,12.349,5.415c1.609-2.708-2.149-4.256,1.073-7.351
		c1.609-1.161,5.906-1.935,8.053-2.324c-0.536,3.483-4.295,7.741,0,11.609c7.516,6.189,4.833-3.095,10.737-3.869
		c5.369-1.161,10.736,7.735,15.569,4.642c4.295-2.708-3.758-8.512,6.98-10.446c0.538,3.483,5.369,10.059,10.2,5.805
		c2.686-2.709-2.147-9.673-0.536-13.156c1.609-3.481,8.589-9.284,13.42-4.642c2.686,3.095-2.683,7.739-3.22,10.834
		c0,2.706,1.611,7.35,4.833,9.284c8.589,4.644,2.146-4.254,8.589-5.029c5.905-0.771,4.295,8.125,10.736,6.19
		c4.295-1.161,0-7.739,8.593-8.512c8.589-0.386,6.44,7.739,14.494,9.286c11.275,2.322,10.202-8.512,10.737-13.154
		c1.075-6.578,8.053-10.446,11.273-2.32c1.613,4.256-1.609,15.088,9.128,15.474c12.349,0.387-0.536-11.218,9.126-12.767
		c9.128-1.161,3.222,7.739,6.98,10.832c9.665,8.514,5.905-4.254,6.98-5.417c5.904-6.576,11.809,6.578,19.328,5.031
		c7.514-1.934,1.073-8.512,5.904-11.993c2.685-1.546,8.054-2.708,10.2-0.387c1.073,1.546-2.146,4.642-2.146,6.576
		c0.535,1.936,2.146,6.19,5.367,6.964c7.519,1.548,2.686-1.933,4.297-4.254c1.611-2.32-1.075-3.87,4.295-4.644
		c5.369-0.773,3.221,1.547,6.98,3.483c6.978,3.867,10.735,5.029,13.958-1.549c1.073-1.934,4.293-13.538,11.811-6.576
		c3.756,3.095-3.758,8.512-1.075,12.766c3.758,5.804,9.664,2.322,11.811-1.934c1.613,1.548,4.298,2.708,5.371,4.256
		c0-1.934,1.609-4.642,4.294-5.803c9.126,17.41,8.053-11.222,11.273-12.381c12.888-3.482,0.539,20.118,16.107,18.569
		c8.589-0.773,2.683-6.576,4.294-10.444c4.295-8.511,6.442-0.388,9.127,3.095c2.686,5.029,6.979,7.737,11.273,2.708
		c2.688-3.095-1.609-6.576,4.836-8.51c2.683,2.708,1.07,6.576,3.219,9.285c5.367,5.416,8.055,1.547,8.055-3.482
		c8.052-0.388,10.734,11.608,12.885-0.775c3.22,1.163,3.754,6.578,7.516,6.966c2.683,0.386,1.069-3.483,2.148-3.095h4.831
		c3.222-0.388,2.144,6.19,4.831-0.773c1.073-2.322-2.148-5.805,0-8.125c10.736-10.449,2.683,28.243,17.718,9.669
		c3.22,7.353,8.587,1.548,8.587-3.094c5.908,0,6.444,11.606,11.814,3.483c2.147-2.708-3.224-11.993,2.147-13.54
		c9.662-2.322,3.222,10.444,2.683,12.379c-0.538,5.029,5.906,10.444,5.37,3.481c11.273,1.161,5.904-12.767,12.885-3.481
		c1.608,1.934-0.538,7.737,6.442,6.962c6.444-0.771,1.072-6.575,8.588-5.801c5.368,0.773,4.833,8.124,9.666,0.386
		c1.607-2.708-0.536-11.605,6.979-8.898c2.683,0.773,4.29,22.054,9.123,11.993c5.908,6.578,8.055-3.481,12.885-5.415
		c3.761,3.481,4.836,27.081,4.301,31.334L-4.494,60.844z"/>
</g>
</svg>
