<?xml version="1.0" encoding="utf-8"?>
<!-- Generator: Adobe Illustrator 15.1.0, SVG Export Plug-In . SVG Version: 6.00 Build 0)  -->
<!DOCTYPE svg PUBLIC "-//W3C//DTD SVG 1.1//EN" "http://www.w3.org/Graphics/SVG/1.1/DTD/svg11.dtd">
<svg version="1.1" id="Layer_1" xmlns="http://www.w3.org/2000/svg" xmlns:xlink="http://www.w3.org/1999/xlink" x="0px" y="0px"
	 width="100px" height="80px" viewBox="0 0 100 80" enable-background="new 0 0 100 80" xml:space="preserve">
<g>
	<rect width="100" height="80"/>
	<path fill="#FFFFFF" d="M80.326,37.715c0-13.925-13.992-25.218-31.252-25.218s-31.25,11.293-31.25,25.218
		c0,13.659,11.638,25.131,28.375,25.131c0.325,0,0.65-0.011,0.975-0.016c2.889-0.074,5.769-0.697,8.338-0.766l24.614,4.948
		l-5.809-14.44C78.094,48.405,80.326,43.273,80.326,37.715z M69.254,47.979l-2.873,3.173l1.594,3.973l1.085,2.69l-12.197-2.453
		l-0.759-0.147l-0.772,0.02c-1.577,0.042-3.104,0.231-4.581,0.417c-1.335,0.161-2.596,0.325-3.756,0.35
		c-0.264,0.009-0.53,0.015-0.793,0.015c-12.285,0-21.545-7.869-21.545-18.296c0-10.135,10.955-18.38,24.418-18.38
		c13.465,0,24.417,8.245,24.417,18.38C73.49,42.33,71.186,45.85,69.254,47.979z"/>
	<path fill="#FFFFFF" d="M40.407,43.397h-3.186v-4.403h-2.193v4.403h-3.224V31.761h3.224v4.571h2.193v-4.571h3.186V43.397z
		 M45.541,34.198c1.286,0,2.208,0.307,2.765,0.927c0.554,0.618,0.832,1.502,0.832,2.652c0,0.149-0.042,0.824-0.13,2.023h-4.274
		c0,0.937,0.431,1.406,1.294,1.406c0.413,0,1.217-0.146,2.418-0.433l0.262,2.324c-1.05,0.326-2.1,0.486-3.149,0.486
		c-1.286,0-2.273-0.42-2.958-1.264c-0.688-0.842-1.034-1.989-1.034-3.439C41.568,35.759,42.893,34.198,45.541,34.198z
		 M45.466,36.877c-0.326,0-0.537,0.107-0.637,0.329c-0.101,0.218-0.15,0.552-0.15,1.002h1.63v-0.45
		C46.309,37.168,46.028,36.877,45.466,36.877z M50.001,41.336v-9.95h3.093v8.958c0,0.211,0.046,0.364,0.139,0.451
		c0.095,0.091,0.259,0.134,0.495,0.134l-0.241,2.658h-1.033c-0.822,0-1.438-0.171-1.844-0.514
		C50.204,42.728,50.001,42.148,50.001,41.336z M54.366,41.336v-9.95h3.093v8.958c0,0.211,0.047,0.364,0.141,0.451
		c0.094,0.091,0.258,0.134,0.496,0.134l-0.243,2.658H56.82c-0.821,0-1.439-0.171-1.844-0.514S54.366,42.148,54.366,41.336z
		 M58.584,38.872c0-1.643,0.314-2.831,0.945-3.57c0.631-0.737,1.619-1.104,2.962-1.104c1.341,0,2.319,0.361,2.932,1.087
		c0.613,0.726,0.919,1.916,0.919,3.569c0,1.656-0.301,2.859-0.898,3.608c-0.599,0.748-1.582,1.124-2.945,1.124
		c-1.361,0-2.354-0.376-2.978-1.124C58.895,41.711,58.584,40.514,58.584,38.872z M63.088,37.102
		c-0.079-0.251-0.283-0.375-0.607-0.375c-0.325,0-0.531,0.124-0.618,0.375c-0.087,0.249-0.132,0.773-0.132,1.572v0.452
		c0,0.888,0.045,1.462,0.132,1.723c0.089,0.261,0.292,0.395,0.609,0.395c0.319,0,0.521-0.134,0.611-0.395
		c0.087-0.261,0.13-0.799,0.13-1.609v-0.545C63.211,37.883,63.172,37.35,63.088,37.102z"/>
</g>
</svg>
