<?xml version="1.0" encoding="utf-8"?>
<!-- Generator: Adobe Illustrator 23.0.3, SVG Export Plug-In . SVG Version: 6.00 Build 0)  -->
<svg version="1.1" id="Layer_1" xmlns="http://www.w3.org/2000/svg" xmlns:xlink="http://www.w3.org/1999/xlink" x="0px" y="0px"
	 viewBox="0 0 100 80" style="enable-background:new 0 0 100 80;" xml:space="preserve">
<style type="text/css">
	.st0{fill:#FFFFFF;}
</style>
<rect x="2.8" y="10.1" class="st0" width="94.5" height="60.3"/>
<g>
	<path d="M63.8,37c0.1,0.3,0.1,0.8,0.1,1.7v0.6c0,0.9-0.1,1.4-0.1,1.7c-0.1,0.3-0.3,0.4-0.6,0.4c-0.3,0-0.6-0.1-0.6-0.4
		c-0.1-0.3-0.1-0.9-0.1-1.8v-0.5c0-0.8,0-1.4,0.1-1.7c0.1-0.3,0.3-0.4,0.7-0.4C63.5,36.6,63.7,36.7,63.8,37z"/>
	<path d="M45.3,36.7c-0.3,0-0.6,0.1-0.7,0.3c-0.1,0.2-0.2,0.6-0.2,1h1.7v-0.5C46.2,37,45.9,36.7,45.3,36.7z M45.3,36.7
		c-0.3,0-0.6,0.1-0.7,0.3c-0.1,0.2-0.2,0.6-0.2,1h1.7v-0.5C46.2,37,45.9,36.7,45.3,36.7z M74.8,37.6c0-10.7-11.5-19.4-25.7-19.4
		c-14.2,0-25.7,8.7-25.7,19.4c0,11,9.8,19.3,22.7,19.3c0.3,0,0.5,0,0.8,0c1.2,0,2.5-0.2,4-0.4c1.5-0.2,3.2-0.4,4.8-0.4l0.8,0
		l0.8,0.1l12.8,2.6L69,55.9l-1.7-4.2l3-3.3C72.3,46.2,74.8,42.5,74.8,37.6z M40,43.6h-3.3V39h-2.3v4.6h-3.4V31.3h3.4v4.8h2.3v-4.8
		H40L40,43.6L40,43.6z M49,39.8h-4.5c0,1,0.5,1.5,1.4,1.5c0.4,0,1.3-0.2,2.5-0.4l0.3,2.4c-1.1,0.3-2.2,0.5-3.3,0.5
		c-1.3,0-2.4-0.4-3.1-1.3c-0.7-0.9-1.1-2.1-1.1-3.6c0-3.3,1.4-4.9,4.2-4.9c1.4,0,2.3,0.3,2.9,1c0.6,0.7,0.9,1.6,0.9,2.8
		C49.1,37.8,49.1,38.5,49,39.8z M53.7,43.8h-1.1c-0.9,0-1.5-0.2-1.9-0.5c-0.4-0.4-0.6-1-0.6-1.8V31h3.3v9.4c0,0.2,0,0.4,0.2,0.5
		c0.1,0.1,0.3,0.1,0.5,0.1L53.7,43.8z M58.3,43.8h-1.1c-0.9,0-1.5-0.2-1.9-0.5c-0.4-0.4-0.7-1-0.7-1.8V31h3.3v9.4
		c0,0.2,0,0.4,0.1,0.5c0.1,0.1,0.3,0.1,0.5,0.1L58.3,43.8z M66.3,42.6c-0.6,0.8-1.7,1.2-3.1,1.2c-1.4,0-2.5-0.4-3.1-1.2
		c-0.7-0.8-1-2.1-1-3.8c0-1.7,0.3-3,1-3.8c0.7-0.8,1.7-1.2,3.1-1.2c1.4,0,2.4,0.4,3.1,1.1c0.6,0.8,1,2,1,3.8
		C67.3,40.5,66.9,41.8,66.3,42.6z M45.3,36.7c-0.3,0-0.6,0.1-0.7,0.3c-0.1,0.2-0.2,0.6-0.2,1h1.7v-0.5C46.2,37,45.9,36.7,45.3,36.7z
		"/>
	<path d="M0,0v80h100V0H0z M81.8,68.4l-25.9-5.2c-2.7,0.1-5.7,0.7-8.8,0.8c-0.3,0-0.7,0-1,0c-17.6,0-29.9-12.1-29.9-26.5
		c0-14.7,14.7-26.5,32.9-26.5C67.2,11.1,82,22.9,82,37.6c0,5.8-2.3,11.3-6.3,15.6L81.8,68.4z"/>
</g>
</svg>
