<?xml version="1.0" encoding="utf-8"?>
<!-- Generator: Adobe Illustrator 15.1.0, SVG Export Plug-In . SVG Version: 6.00 Build 0)  -->
<!DOCTYPE svg PUBLIC "-//W3C//DTD SVG 1.1//EN" "http://www.w3.org/Graphics/SVG/1.1/DTD/svg11.dtd">
<svg version="1.1" id="Layer_1" xmlns="http://www.w3.org/2000/svg" xmlns:xlink="http://www.w3.org/1999/xlink" x="0px" y="0px"
	 width="100px" height="80px" viewBox="2.901 1.47 100 80" enable-background="new 2.901 1.47 100 80" xml:space="preserve">
<path d="M66.731,38.43c0.08,0.26,0.13,0.82,0.13,1.68v0.57c0,0.85-0.05,1.42-0.14,1.7c-0.101,0.27-0.311,0.41-0.641,0.41
	c-0.34,0-0.55-0.141-0.649-0.41c-0.09-0.28-0.13-0.88-0.13-1.82v-0.47c0-0.84,0.04-1.4,0.13-1.66c0.1-0.26,0.31-0.39,0.66-0.39
	C66.431,38.04,66.641,38.17,66.731,38.43z"/>
<path d="M48.181,38.19c-0.35,0-0.57,0.12-0.68,0.35c-0.1,0.23-0.15,0.58-0.15,1.05h1.71v-0.47
	C49.061,38.5,48.771,38.19,48.181,38.19z M48.181,38.19c-0.35,0-0.57,0.12-0.68,0.35c-0.1,0.23-0.15,0.58-0.15,1.05h1.71v-0.47
	C49.061,38.5,48.771,38.19,48.181,38.19z M77.681,39.08c0-10.67-11.53-19.35-25.71-19.35c-14.17,0-25.7,8.68-25.7,19.35
	c0,10.97,9.75,19.26,22.68,19.26c0.28,0,0.55-0.01,0.83-0.021c1.22-0.02,2.55-0.199,3.96-0.369c1.55-0.19,3.16-0.391,4.82-0.431
	l0.81-0.02l0.8,0.149l12.841,2.58l-1.141-2.83l-1.68-4.18l3.03-3.34C75.25,47.64,77.681,43.94,77.681,39.08z M42.851,45.06h-3.35
	v-4.64h-2.31v4.64h-3.39V32.81h3.39v4.81h2.31v-4.81h3.35V45.06z M51.901,41.27h-4.5c0,0.99,0.46,1.48,1.37,1.48
	c0.43,0,1.28-0.15,2.54-0.45l0.28,2.439c-1.11,0.351-2.21,0.521-3.32,0.521c-1.35,0-2.39-0.45-3.11-1.33
	c-0.73-0.89-1.09-2.1-1.09-3.63c0-3.28,1.4-4.92,4.18-4.92c1.36,0,2.33,0.32,2.91,0.97c0.59,0.65,0.88,1.58,0.88,2.79
	C52.041,39.3,52.001,40.01,51.901,41.27z M56.621,45.26h-1.09c-0.86,0-1.51-0.18-1.939-0.54c-0.431-0.37-0.641-0.98-0.641-1.83
	V32.42h3.25v9.42c0,0.229,0.05,0.39,0.15,0.479c0.1,0.091,0.27,0.141,0.52,0.141L56.621,45.26z M61.21,45.26h-1.079
	c-0.87,0-1.521-0.18-1.94-0.54c-0.43-0.37-0.65-0.98-0.65-1.83V32.42h3.261v9.42c0,0.229,0.05,0.39,0.149,0.479
	c0.101,0.091,0.271,0.141,0.521,0.141L61.21,45.26z M69.201,44.07c-0.63,0.79-1.66,1.19-3.09,1.19c-1.44,0-2.479-0.4-3.14-1.19
	s-0.99-2.05-0.99-3.77c0-1.73,0.34-2.99,1-3.76c0.66-0.78,1.7-1.16,3.12-1.16c1.41,0,2.439,0.38,3.08,1.14
	c0.649,0.76,0.97,2.01,0.97,3.76C70.151,42.02,69.831,43.28,69.201,44.07z M48.181,38.19c-0.35,0-0.57,0.12-0.68,0.35
	c-0.1,0.23-0.15,0.58-0.15,1.05h1.71v-0.47C49.061,38.5,48.771,38.19,48.181,38.19z"/>
<path d="M2.901,1.47v80h100v-80H2.901z M84.661,69.92l-25.91-5.21c-2.699,0.069-5.729,0.729-8.78,0.8
	c-0.34,0.01-0.68,0.02-1.02,0.02c-17.62,0-29.87-12.069-29.87-26.45c0-14.66,14.73-26.55,32.89-26.55c18.17,0,32.9,11.89,32.9,26.55
	c0,5.85-2.35,11.25-6.319,15.64L84.661,69.92z"/>
</svg>
