<?xml version="1.0" encoding="utf-8"?>
<!-- Generator: Adobe Illustrator 15.1.0, SVG Export Plug-In . SVG Version: 6.00 Build 0)  -->
<!DOCTYPE svg PUBLIC "-//W3C//DTD SVG 1.1//EN" "http://www.w3.org/Graphics/SVG/1.1/DTD/svg11.dtd">
<svg version="1.1" id="Layer_1" xmlns="http://www.w3.org/2000/svg" xmlns:xlink="http://www.w3.org/1999/xlink" x="0px" y="0px"
	 width="100px" height="80px" viewBox="0 0 100 80" enable-background="new 0 0 100 80" xml:space="preserve">
<g>
	<path d="M63.83,36.96c0.08,0.26,0.131,0.82,0.131,1.68v0.57c0,0.851-0.051,1.419-0.141,1.701c-0.101,0.27-0.311,0.41-0.641,0.41
		c-0.34,0-0.551-0.143-0.648-0.41c-0.091-0.281-0.131-0.88-0.131-1.82V38.62c0-0.84,0.04-1.4,0.131-1.66
		c0.1-0.26,0.31-0.39,0.659-0.39C63.531,36.57,63.74,36.7,63.83,36.96z"/>
	<path d="M45.28,36.72c-0.35,0-0.57,0.12-0.68,0.35c-0.101,0.23-0.15,0.58-0.15,1.05h1.71v-0.47
		C46.16,37.03,45.87,36.72,45.28,36.72z M45.28,36.72c-0.35,0-0.57,0.12-0.68,0.35c-0.101,0.23-0.15,0.58-0.15,1.05h1.71v-0.47
		C46.16,37.03,45.87,36.72,45.28,36.72z M74.781,37.61c0-10.67-11.531-19.35-25.711-19.35c-14.17,0-25.7,8.68-25.7,19.35
		c0,10.97,9.75,19.259,22.681,19.259c0.279,0,0.55-0.01,0.83-0.021c1.22-0.02,2.55-0.197,3.96-0.367
		c1.55-0.191,3.159-0.393,4.819-0.432l0.811-0.02l0.8,0.148l12.841,2.58l-1.141-2.83l-1.68-4.18l3.029-3.34
		C72.35,46.17,74.781,42.469,74.781,37.61z M39.95,43.59h-3.35v-4.64H34.29v4.64H30.9V31.34h3.39v4.81h2.311v-4.81h3.35V43.59z
		 M49,39.799h-4.5c0,0.99,0.46,1.48,1.37,1.48c0.431,0,1.28-0.15,2.54-0.449l0.28,2.439c-1.11,0.35-2.21,0.52-3.32,0.52
		c-1.35,0-2.39-0.449-3.109-1.33c-0.73-0.889-1.091-2.099-1.091-3.629c0-3.28,1.4-4.92,4.181-4.92c1.359,0,2.33,0.32,2.91,0.97
		c0.59,0.65,0.88,1.58,0.88,2.79C49.141,37.83,49.101,38.54,49,39.799z M53.721,43.789h-1.09c-0.86,0-1.51-0.18-1.939-0.539
		c-0.431-0.371-0.641-0.98-0.641-1.83V30.95h3.25v9.42c0,0.228,0.05,0.39,0.15,0.478c0.1,0.092,0.27,0.143,0.52,0.143L53.721,43.789
		z M58.31,43.789H57.23c-0.869,0-1.521-0.18-1.939-0.539c-0.43-0.371-0.65-0.98-0.65-1.83V30.95h3.261v9.42
		c0,0.228,0.05,0.39,0.149,0.478c0.101,0.092,0.271,0.143,0.521,0.143L58.31,43.789z M66.301,42.6
		c-0.631,0.789-1.66,1.189-3.09,1.189c-1.44,0-2.479-0.4-3.141-1.189c-0.66-0.789-0.99-2.051-0.99-3.77c0-1.73,0.34-2.99,1-3.76
		c0.66-0.78,1.701-1.16,3.121-1.16c1.41,0,2.438,0.38,3.08,1.14c0.648,0.76,0.969,2.01,0.969,3.76
		C67.25,40.549,66.931,41.811,66.301,42.6z M45.28,36.72c-0.35,0-0.57,0.12-0.68,0.35c-0.101,0.23-0.15,0.58-0.15,1.05h1.71v-0.47
		C46.16,37.03,45.87,36.72,45.28,36.72z"/>
	<path d="M0,0v80h100V0H0z M81.761,68.449l-25.91-5.209c-2.699,0.068-5.729,0.729-8.78,0.799c-0.34,0.01-0.68,0.021-1.02,0.021
		c-17.62,0-29.87-12.07-29.87-26.451c0-14.66,14.729-26.55,32.89-26.55c18.17,0,32.9,11.89,32.9,26.55
		c0,5.849-2.35,11.25-6.319,15.64L81.761,68.449z"/>
</g>
</svg>
