<?xml version="1.0" encoding="utf-8"?>
<!-- Generator: Adobe Illustrator 15.1.0, SVG Export Plug-In . SVG Version: 6.00 Build 0)  -->
<!DOCTYPE svg PUBLIC "-//W3C//DTD SVG 1.1//EN" "http://www.w3.org/Graphics/SVG/1.1/DTD/svg11.dtd">
<svg version="1.1" id="Layer_1" xmlns="http://www.w3.org/2000/svg" xmlns:xlink="http://www.w3.org/1999/xlink" x="0px" y="0px"
	 width="100px" height="80px" viewBox="0 0 100 80" enable-background="new 0 0 100 80" xml:space="preserve">
<path d="M22.85,58.68c-0.93-1.47-2.88-1.91-4.36-0.979c-1.47,0.93-1.92,2.89-0.98,4.359c0.93,1.48,2.88,1.921,4.36,0.98
	C23.34,62.11,23.79,60.16,22.85,58.68z M22.85,58.68c-0.93-1.47-2.88-1.91-4.36-0.979c-1.47,0.93-1.92,2.89-0.98,4.359
	c0.93,1.48,2.88,1.921,4.36,0.98C23.34,62.11,23.79,60.16,22.85,58.68z M0,0v80h100V0H0z M52.03,61.29
	c-1.04,0.66-2.42,0.35-3.08-0.7l-3.68-5.82c-0.71-1.119-1.88-1.85-3.2-2c-1.32-0.149-2.62,0.301-3.56,1.23
	C26.45,65.96,24.85,66.97,24.33,67.31c-3.76,2.37-8.76,1.25-11.14-2.52c-2.38-3.76-1.25-8.76,2.51-11.14
	c0.53-0.33,2.12-1.341,18.11-7.091c1.25-0.46,2.21-1.43,2.64-2.689c0.44-1.25,0.28-2.62-0.43-3.74l-3.68-5.83
	c-0.32-0.5-0.42-1.11-0.29-1.69c0.13-0.58,0.48-1.08,0.98-1.4l6.15-3.88l19,30.08L52.03,61.29z M83.35,41.5L62.13,54.91l-19-30.07
	l21.22-13.41c1.051-0.66,2.431-0.35,3.091,0.69l1.729,2.74c0.49,0.78,0.45,1.8-0.11,2.54l-0.88,1.17l1.36-0.32
	c0.93-0.21,1.89,0.19,2.4,0.99l5.489,8.71c0.57,0.9,0.42,2.08-0.35,2.81l-6.22,5.88l7.939-3.12c1-0.39,2.141-0.02,2.71,0.89
	l2.54,4.01C84.71,39.46,84.4,40.84,83.35,41.5z M18.49,57.7c-1.47,0.93-1.92,2.89-0.98,4.359c0.93,1.48,2.88,1.921,4.36,0.98
	c1.47-0.93,1.92-2.88,0.98-4.36C21.92,57.21,19.97,56.77,18.49,57.7z M22.85,58.68c-0.93-1.47-2.88-1.91-4.36-0.979
	c-1.47,0.93-1.92,2.89-0.98,4.359c0.93,1.48,2.88,1.921,4.36,0.98C23.34,62.11,23.79,60.16,22.85,58.68z M22.85,58.68
	c-0.93-1.47-2.88-1.91-4.36-0.979c-1.47,0.93-1.92,2.89-0.98,4.359c0.93,1.48,2.88,1.921,4.36,0.98
	C23.34,62.11,23.79,60.16,22.85,58.68z"/>
</svg>
