<?xml version="1.0" encoding="utf-8"?>
<!-- Generator: Adobe Illustrator 15.1.0, SVG Export Plug-In . SVG Version: 6.00 Build 0)  -->
<!DOCTYPE svg PUBLIC "-//W3C//DTD SVG 1.1//EN" "http://www.w3.org/Graphics/SVG/1.1/DTD/svg11.dtd">
<svg version="1.1" id="Layer_1" xmlns="http://www.w3.org/2000/svg" xmlns:xlink="http://www.w3.org/1999/xlink" x="0px" y="0px"
	 width="100px" height="80px" viewBox="0 0 100 80" enable-background="new 0 0 100 80" xml:space="preserve">
<rect width="100" height="80"/>
<path fill="#FFFFFF" d="M81.594,41.42c0.991-0.627,1.287-1.938,0.659-2.931l-2.409-3.811c-0.543-0.863-1.623-1.216-2.572-0.846
	l-7.541,2.972l5.904-5.589c0.734-0.695,0.877-1.819,0.336-2.675l-5.222-8.27c-0.485-0.764-1.396-1.138-2.276-0.936l-1.292,0.298
	l0.837-1.113c0.531-0.705,0.572-1.667,0.099-2.413l-1.641-2.595c-0.627-0.992-1.94-1.287-2.932-0.66L43.38,25.586l18.049,28.571
	L81.594,41.42z"/>
<path fill="#FFFFFF" d="M39.626,27.956l-5.835,3.689c-0.475,0.301-0.813,0.778-0.938,1.328c-0.125,0.549-0.026,1.125,0.276,1.603
	l3.497,5.537c0.673,1.067,0.826,2.362,0.413,3.558c-0.409,1.192-1.326,2.119-2.516,2.552c-15.182,5.462-16.699,6.423-17.199,6.737
	c-3.575,2.261-4.647,7.008-2.388,10.585c2.262,3.579,7.011,4.646,10.584,2.39c0.497-0.314,2.017-1.274,13.472-12.637
	c0.896-0.889,2.129-1.316,3.382-1.172c1.257,0.142,2.365,0.834,3.037,1.895l3.498,5.537c0.625,0.992,1.938,1.287,2.932,0.662
	l5.837-3.688L39.626,27.956z M23.184,61.885c-1.403,0.888-3.258,0.467-4.143-0.933c-0.887-1.403-0.468-3.261,0.935-4.143
	c1.403-0.886,3.257-0.466,4.143,0.933C25.005,59.143,24.585,60.996,23.184,61.885L23.184,61.885z"/>
</svg>
