<?xml version="1.0" encoding="utf-8"?>
<!-- Generator: Adobe Illustrator 23.0.3, SVG Export Plug-In . SVG Version: 6.00 Build 0)  -->
<svg version="1.1" id="Layer_1" xmlns="http://www.w3.org/2000/svg" xmlns:xlink="http://www.w3.org/1999/xlink" x="0px" y="0px"
	 viewBox="0 0 100 80" style="enable-background:new 0 0 100 80;" xml:space="preserve">
<style type="text/css">
	.st0{opacity:0.75;}
	.st1{fill:#FFFFFF;}
	.st2{stroke:#000000;stroke-width:0.25;stroke-miterlimit:10;}
	.st3{fill:#FFFFFF;stroke:#000000;stroke-width:0.25;stroke-miterlimit:10;}
	.st4{fill:#FFFFFF;stroke:#FFFFFF;stroke-width:0.75;stroke-miterlimit:10;}
</style>
<g>
	<rect y="-0.1" width="100" height="80.1"/>
	<rect x="0" y="-0.1" class="st0" width="100" height="80.1"/>
</g>
<g>
	<path class="st1" d="M33,31.2c-0.5,0.3-0.9,0.8-1,1.4c-0.1,0.6,0,1.2,0.3,1.7l3.7,5.8c0.7,1.1,0.9,2.5,0.4,3.7
		c-0.4,1.3-1.4,2.2-2.6,2.7c-16,5.8-17.6,6.8-18.1,7.1c-3.8,2.4-4.9,7.4-2.5,11.1c2.4,3.8,7.4,4.9,11.1,2.5C24.8,67,26.5,66,38.5,54
		c0.9-0.9,2.2-1.4,3.6-1.2c1.3,0.1,2.5,0.9,3.2,2l3.7,5.8c0.7,1,2,1.4,3.1,0.7l6.1-3.9l-19-30.1L33,31.2z M23.3,60.5
		c0-0.6-0.1-1.2-0.5-1.8c-0.9-1.5-2.9-1.9-4.4-1c-0.9,0.6-1.4,1.6-1.5,2.6c0-1,0.6-2,1.5-2.6c1.5-0.9,3.4-0.5,4.4,1
		C23.2,59.2,23.4,59.9,23.3,60.5z"/>
	<path class="st1" d="M84,38.4l-2.5-4c-0.6-0.9-1.7-1.3-2.7-0.9l-7.9,3.1l6.2-5.9c0.8-0.7,0.9-1.9,0.4-2.8l-5.5-8.7
		c-0.5-0.8-1.5-1.2-2.4-1l-1.4,0.3l0.9-1.2c0.6-0.7,0.6-1.8,0.1-2.5l-1.7-2.7c-0.7-1-2-1.3-3.1-0.7L43.1,24.8l19,30.1l21.2-13.4
		C84.4,40.8,84.7,39.5,84,38.4z"/>
</g>
<g>
	<g>
		<g>
			<g>
				<g>
					<rect x="258.4" y="-84.4" class="st1" width="165" height="26"/>
					<rect x="258.4" y="-116.2" class="st2" width="165" height="32"/>
					<g>
						<path class="st3" d="M281.8-102.4c0,1-0.2,1.8-0.5,2.4c-0.3,0.6-0.8,1.1-1.5,1.6l2.3,6.7h-5.5l-1.6-5.5h-0.4v5.5h-5.1v-15.9
							h6.6c1.9,0,3.4,0.4,4.3,1.2C281.3-105.4,281.8-104.1,281.8-102.4z M276-100.6c0.2-0.2,0.2-0.6,0.2-1.2c0-0.6-0.1-1-0.3-1.2
							c-0.2-0.2-0.4-0.3-0.8-0.3h-0.7v3.1h0.6C275.5-100.2,275.8-100.3,276-100.6z"/>
						<path class="st3" d="M296-107.5l-4.1,10.8v5h-5.3v-5.1l-4-10.8h5.6l1.1,5.8h0.2l1.1-5.8H296z"/>
						<path class="st3" d="M310.1-91.6h-5.3l-0.5-2.5h-2.8l-0.5,2.5h-5l3.2-15.9h7.6L310.1-91.6z M303.9-97.4l-1-5.3h-0.1l-1,5.3
							H303.9z"/>
						<path class="st3" d="M324.2-91.6h-5.1l-3.2-6.3h-0.2v6.3h-4.8v-15.9h5.3l3,6.5h0.2v-6.5h4.8V-91.6z"/>
						<path class="st3" d="M330.2-102.4c0-1.7,0.5-3,1.5-3.9c1-0.9,2.4-1.4,4.2-1.4s3.6,0.2,5.5,0.5l-0.6,4.5
							c-2.1-0.4-3.5-0.6-4.1-0.6c-0.7,0-1,0.2-1,0.6c0,0.2,0.1,0.3,0.2,0.3c0.1,0.1,0.2,0.1,0.2,0.1c0.1,0,0.1,0.1,0.3,0.1
							c0.1,0.1,0.3,0.1,0.4,0.1c0.1,0,0.4,0.2,0.9,0.4c0.5,0.2,0.9,0.4,1.2,0.5c0.3,0.1,0.6,0.3,1.1,0.6c1.3,0.9,2,2.1,2,3.8
							s-0.5,3-1.5,3.9c-1,0.9-2.4,1.4-4.2,1.4c-1.8,0-3.6-0.2-5.4-0.7l0.3-4.3c2.2,0.6,3.7,0.9,4.5,0.9c0.5,0,0.8-0.2,0.8-0.6
							c0-0.2-0.1-0.3-0.2-0.4c-0.1-0.1-0.3-0.2-0.6-0.3c-0.2-0.1-0.6-0.3-1.1-0.5c-0.5-0.2-0.9-0.4-1.2-0.5
							c-0.3-0.1-0.7-0.4-1.1-0.7C330.9-99.4,330.2-100.7,330.2-102.4z"/>
						<path class="st3" d="M353.9-103.2h-3.3v11.6h-5.3v-11.6h-3.5l0.2-4.3h12.2L353.9-103.2z"/>
						<path class="st3" d="M367.3-102.4c0,1-0.2,1.8-0.5,2.4c-0.3,0.6-0.8,1.1-1.5,1.6l2.3,6.7h-5.5l-1.6-5.5h-0.4v5.5H355v-15.9
							h6.6c1.9,0,3.4,0.4,4.3,1.2C366.8-105.4,367.3-104.1,367.3-102.4z M361.4-100.6c0.2-0.2,0.2-0.6,0.2-1.2c0-0.6-0.1-1-0.3-1.2
							c-0.2-0.2-0.4-0.3-0.8-0.3H360v3.1h0.6C361-100.2,361.3-100.3,361.4-100.6z"/>
						<path class="st3" d="M382.1-91.6h-5.3l-0.5-2.5h-2.8l-0.5,2.5h-5l3.2-15.9h7.6L382.1-91.6z M376-97.4l-0.9-5.3H375l-1,5.3H376
							z"/>
						<path class="st3" d="M400.5-107.5l-1.7,15.9h-6l-1.2-6.4h-0.2l-1,6.4h-6l-1.9-15.9h4.9l0.6,7.3h0.2l0.9-7.3h4.7l1.1,7.3h0.2
							l0.5-7.3H400.5z"/>
						<path class="st3" d="M415.2-91.6h-5.1l-3.2-6.3h-0.2v6.3H402v-15.9h5.3l3,6.5h0.2v-6.5h4.8V-91.6z"/>
					</g>
					<g>
						<path d="M279.4-67v-9.5h3.3c0.8,0,1.4,0.1,2,0.4c0.6,0.3,1,0.6,1.4,1c0.4,0.4,0.7,0.9,0.9,1.5c0.2,0.6,0.3,1.2,0.3,1.8
							c0,0.7-0.1,1.4-0.3,2c-0.2,0.6-0.5,1.1-0.9,1.5c-0.4,0.4-0.9,0.7-1.4,1c-0.6,0.2-1.2,0.3-1.9,0.3H279.4z M285.7-71.8
							c0-0.5-0.1-1-0.2-1.4c-0.1-0.4-0.3-0.8-0.6-1.1c-0.3-0.3-0.6-0.5-1-0.7c-0.4-0.2-0.8-0.3-1.3-0.3h-1.8v6.9h1.8
							c0.5,0,0.9-0.1,1.3-0.3c0.4-0.2,0.7-0.4,1-0.7c0.3-0.3,0.5-0.7,0.6-1.1C285.7-70.8,285.7-71.3,285.7-71.8z"/>
						<path d="M291.7-66.8c-0.5,0-1-0.1-1.5-0.3c-0.4-0.2-0.8-0.5-1.1-0.8c-0.3-0.3-0.6-0.7-0.7-1.2c-0.2-0.4-0.3-0.9-0.3-1.4
							c0-0.5,0.1-1,0.3-1.4c0.2-0.4,0.4-0.8,0.7-1.2c0.3-0.3,0.7-0.6,1.1-0.8c0.4-0.2,0.9-0.3,1.5-0.3c0.5,0,1,0.1,1.5,0.3
							c0.4,0.2,0.8,0.5,1.1,0.8c0.3,0.3,0.5,0.7,0.7,1.1c0.2,0.4,0.2,0.9,0.2,1.4c0,0.1,0,0.2,0,0.3c0,0.1,0,0.2,0,0.2h-5.5
							c0,0.3,0.1,0.6,0.2,0.8c0.1,0.3,0.3,0.5,0.5,0.7c0.2,0.2,0.4,0.3,0.6,0.4c0.2,0.1,0.5,0.1,0.8,0.1c0.2,0,0.4,0,0.6-0.1
							c0.2,0,0.4-0.1,0.5-0.2c0.2-0.1,0.3-0.2,0.4-0.3c0.1-0.1,0.2-0.3,0.3-0.4l1.2,0.4c-0.2,0.5-0.6,1-1.2,1.3
							C293.1-67,292.4-66.8,291.7-66.8z M293.8-71c0-0.3-0.1-0.6-0.2-0.8c-0.1-0.3-0.3-0.5-0.5-0.6c-0.2-0.2-0.4-0.3-0.6-0.4
							c-0.2-0.1-0.5-0.1-0.8-0.1c-0.3,0-0.5,0-0.8,0.1c-0.2,0.1-0.5,0.2-0.6,0.4s-0.3,0.4-0.4,0.6c-0.1,0.3-0.2,0.5-0.2,0.8H293.8z"
							/>
						<path d="M298.9-66.8c-0.6,0-1.1-0.1-1.6-0.3c-0.5-0.2-1-0.4-1.4-0.8l0.6-0.9c0.4,0.3,0.8,0.5,1.2,0.7c0.4,0.2,0.8,0.2,1.2,0.2
							c0.4,0,0.8-0.1,1-0.3c0.2-0.2,0.4-0.4,0.4-0.7c0-0.3-0.1-0.5-0.4-0.6c-0.3-0.1-0.7-0.3-1.3-0.4c-0.4-0.1-0.8-0.2-1.1-0.3
							c-0.3-0.1-0.6-0.2-0.7-0.4c-0.2-0.1-0.3-0.3-0.4-0.5c-0.1-0.2-0.1-0.4-0.1-0.7c0-0.4,0.1-0.7,0.2-1c0.1-0.3,0.3-0.5,0.6-0.7
							c0.2-0.2,0.5-0.3,0.8-0.4c0.3-0.1,0.7-0.1,1.1-0.1c0.5,0,1,0.1,1.4,0.2c0.4,0.2,0.8,0.4,1.2,0.7l-0.6,0.9
							c-0.6-0.5-1.3-0.8-2-0.8c-0.4,0-0.7,0.1-0.9,0.2c-0.2,0.2-0.4,0.4-0.4,0.7c0,0.1,0,0.3,0.1,0.4c0.1,0.1,0.1,0.2,0.3,0.3
							c0.1,0.1,0.3,0.1,0.5,0.2c0.2,0.1,0.4,0.1,0.7,0.2c0.5,0.1,0.9,0.2,1.2,0.3c0.3,0.1,0.6,0.3,0.8,0.4c0.2,0.2,0.4,0.3,0.5,0.6
							c0.1,0.2,0.2,0.5,0.2,0.8c0,0.7-0.2,1.2-0.7,1.6C300.4-67,299.7-66.8,298.9-66.8z"/>
						<path d="M302.9-75.2v-1.6h1.4v1.6H302.9z M302.9-67v-7h1.4v7H302.9z"/>
						<path d="M308.8-66.9c-0.5,0-0.9-0.1-1.3-0.3c-0.4-0.2-0.7-0.5-1-0.8c-0.3-0.3-0.5-0.7-0.6-1.1c-0.2-0.4-0.2-0.9-0.2-1.4
							c0-0.5,0.1-1,0.2-1.4c0.2-0.4,0.4-0.8,0.7-1.2c0.3-0.3,0.6-0.6,1-0.8c0.4-0.2,0.8-0.3,1.3-0.3c0.6,0,1,0.1,1.5,0.4
							s0.8,0.6,1,1V-74h1.3v6.8c0,0.5-0.1,1-0.3,1.4c-0.2,0.4-0.4,0.7-0.8,1c-0.3,0.3-0.7,0.5-1.2,0.6c-0.4,0.1-0.9,0.2-1.4,0.2
							c-0.8,0-1.4-0.1-1.9-0.4c-0.5-0.3-0.9-0.6-1.3-1.1l0.8-0.8c0.3,0.4,0.6,0.7,1,0.9c0.4,0.2,0.9,0.3,1.3,0.3
							c0.3,0,0.6,0,0.8-0.1c0.3-0.1,0.5-0.2,0.7-0.4c0.2-0.2,0.4-0.4,0.5-0.6c0.1-0.3,0.2-0.6,0.2-0.9v-1.1c-0.2,0.4-0.6,0.8-1,1
							C309.7-67,309.3-66.9,308.8-66.9z M309.3-68.1c0.2,0,0.4,0,0.6-0.1c0.2-0.1,0.4-0.2,0.6-0.3c0.2-0.1,0.3-0.3,0.4-0.4
							c0.1-0.2,0.2-0.3,0.3-0.5v-1.8c-0.1-0.2-0.2-0.4-0.3-0.6c-0.1-0.2-0.3-0.3-0.5-0.5c-0.2-0.1-0.4-0.2-0.6-0.3s-0.4-0.1-0.6-0.1
							c-0.3,0-0.6,0.1-0.8,0.2c-0.2,0.1-0.5,0.3-0.6,0.6s-0.3,0.5-0.4,0.8c-0.1,0.3-0.1,0.6-0.1,0.9c0,0.3,0.1,0.6,0.2,0.9
							c0.1,0.3,0.3,0.5,0.5,0.7c0.2,0.2,0.4,0.4,0.7,0.5C308.7-68.2,309-68.1,309.3-68.1z"/>
						<path d="M320.5-67h-1.4v-3.9c0-0.7-0.1-1.1-0.3-1.4c-0.2-0.3-0.5-0.5-0.9-0.5c-0.2,0-0.4,0-0.6,0.1c-0.2,0.1-0.4,0.2-0.6,0.3
							c-0.2,0.1-0.3,0.3-0.5,0.5c-0.1,0.2-0.3,0.4-0.3,0.7v4.2h-1.4v-7h1.3v1.4c0.3-0.5,0.6-0.8,1.1-1.1s1.1-0.4,1.7-0.4
							c0.4,0,0.7,0.1,1,0.2c0.3,0.2,0.5,0.4,0.6,0.6c0.2,0.3,0.3,0.6,0.3,0.9c0.1,0.3,0.1,0.7,0.1,1.1V-67z"/>
						<path d="M325.3-66.8c-0.5,0-1-0.1-1.5-0.3c-0.4-0.2-0.8-0.5-1.1-0.8c-0.3-0.3-0.6-0.7-0.7-1.2c-0.2-0.4-0.3-0.9-0.3-1.4
							c0-0.5,0.1-1,0.3-1.4c0.2-0.4,0.4-0.8,0.7-1.2c0.3-0.3,0.7-0.6,1.1-0.8c0.4-0.2,0.9-0.3,1.5-0.3c0.5,0,1,0.1,1.5,0.3
							c0.4,0.2,0.8,0.5,1.1,0.8c0.3,0.3,0.5,0.7,0.7,1.1c0.2,0.4,0.2,0.9,0.2,1.4c0,0.1,0,0.2,0,0.3c0,0.1,0,0.2,0,0.2h-5.5
							c0,0.3,0.1,0.6,0.2,0.8c0.1,0.3,0.3,0.5,0.5,0.7c0.2,0.2,0.4,0.3,0.6,0.4c0.2,0.1,0.5,0.1,0.8,0.1c0.2,0,0.4,0,0.6-0.1
							c0.2,0,0.4-0.1,0.5-0.2c0.2-0.1,0.3-0.2,0.4-0.3c0.1-0.1,0.2-0.3,0.3-0.4l1.2,0.4c-0.2,0.5-0.6,1-1.2,1.3
							C326.7-67,326-66.8,325.3-66.8z M327.4-71c0-0.3-0.1-0.6-0.2-0.8c-0.1-0.3-0.3-0.5-0.5-0.6c-0.2-0.2-0.4-0.3-0.6-0.4
							c-0.2-0.1-0.5-0.1-0.8-0.1c-0.3,0-0.5,0-0.8,0.1c-0.2,0.1-0.5,0.2-0.6,0.4c-0.2,0.2-0.3,0.4-0.4,0.6c-0.1,0.3-0.2,0.5-0.2,0.8
							H327.4z"/>
						<path d="M333.9-72.7c-0.6,0-1.1,0.2-1.5,0.4c-0.4,0.2-0.7,0.6-0.9,1.1v4.3H330v-7h1.3v1.6c0.2-0.5,0.5-0.9,0.9-1.2
							c0.4-0.3,0.8-0.4,1.2-0.5c0.1,0,0.2,0,0.2,0c0.1,0,0.1,0,0.2,0V-72.7z"/>
						<path d="M341.7-76.5l-6.4,9.5h-1.6l6.4-9.5H341.7z"/>
						<path d="M343.2-67v-9.5h3.3c0.8,0,1.4,0.1,2,0.4c0.6,0.3,1,0.6,1.4,1c0.4,0.4,0.7,0.9,0.9,1.5c0.2,0.6,0.3,1.2,0.3,1.8
							c0,0.7-0.1,1.4-0.3,2c-0.2,0.6-0.5,1.1-0.9,1.5c-0.4,0.4-0.9,0.7-1.4,1c-0.6,0.2-1.2,0.3-1.9,0.3H343.2z M349.5-71.8
							c0-0.5-0.1-1-0.2-1.4c-0.1-0.4-0.3-0.8-0.6-1.1c-0.3-0.3-0.6-0.5-1-0.7c-0.4-0.2-0.8-0.3-1.3-0.3h-1.8v6.9h1.8
							c0.5,0,0.9-0.1,1.3-0.3c0.4-0.2,0.7-0.4,1-0.7c0.3-0.3,0.5-0.7,0.6-1.1C349.5-70.8,349.5-71.3,349.5-71.8z"/>
						<path d="M355.5-66.8c-0.5,0-1-0.1-1.5-0.3c-0.4-0.2-0.8-0.5-1.1-0.8c-0.3-0.3-0.6-0.7-0.7-1.2c-0.2-0.4-0.3-0.9-0.3-1.4
							c0-0.5,0.1-1,0.3-1.4c0.2-0.4,0.4-0.8,0.7-1.2c0.3-0.3,0.7-0.6,1.1-0.8c0.4-0.2,0.9-0.3,1.5-0.3c0.5,0,1,0.1,1.5,0.3
							c0.4,0.2,0.8,0.5,1.1,0.8c0.3,0.3,0.5,0.7,0.7,1.1c0.2,0.4,0.2,0.9,0.2,1.4c0,0.1,0,0.2,0,0.3c0,0.1,0,0.2,0,0.2h-5.5
							c0,0.3,0.1,0.6,0.2,0.8c0.1,0.3,0.3,0.5,0.5,0.7c0.2,0.2,0.4,0.3,0.6,0.4c0.2,0.1,0.5,0.1,0.8,0.1c0.2,0,0.4,0,0.6-0.1
							c0.2,0,0.4-0.1,0.5-0.2c0.2-0.1,0.3-0.2,0.4-0.3c0.1-0.1,0.2-0.3,0.3-0.4l1.2,0.4c-0.2,0.5-0.6,1-1.2,1.3
							C356.9-67,356.2-66.8,355.5-66.8z M357.6-71c0-0.3-0.1-0.6-0.2-0.8c-0.1-0.3-0.3-0.5-0.5-0.6c-0.2-0.2-0.4-0.3-0.6-0.4
							c-0.2-0.1-0.5-0.1-0.8-0.1c-0.3,0-0.5,0-0.8,0.1c-0.2,0.1-0.5,0.2-0.6,0.4c-0.2,0.2-0.3,0.4-0.4,0.6c-0.1,0.3-0.2,0.5-0.2,0.8
							H357.6z"/>
						<path d="M361.9-67l-2.6-7h1.5l2,5.8l2-5.8h1.4l-2.6,7H361.9z"/>
						<path d="M370-66.8c-0.5,0-1-0.1-1.5-0.3c-0.4-0.2-0.8-0.5-1.1-0.8c-0.3-0.3-0.6-0.7-0.7-1.2c-0.2-0.4-0.3-0.9-0.3-1.4
							c0-0.5,0.1-1,0.3-1.4c0.2-0.4,0.4-0.8,0.7-1.2c0.3-0.3,0.7-0.6,1.1-0.8c0.4-0.2,0.9-0.3,1.5-0.3c0.5,0,1,0.1,1.5,0.3
							c0.4,0.2,0.8,0.5,1.1,0.8c0.3,0.3,0.5,0.7,0.7,1.1c0.2,0.4,0.2,0.9,0.2,1.4c0,0.1,0,0.2,0,0.3c0,0.1,0,0.2,0,0.2H368
							c0,0.3,0.1,0.6,0.2,0.8c0.1,0.3,0.3,0.5,0.5,0.7c0.2,0.2,0.4,0.3,0.6,0.4c0.2,0.1,0.5,0.1,0.8,0.1c0.2,0,0.4,0,0.6-0.1
							c0.2,0,0.4-0.1,0.5-0.2c0.2-0.1,0.3-0.2,0.4-0.3c0.1-0.1,0.2-0.3,0.3-0.4l1.2,0.4c-0.2,0.5-0.6,1-1.2,1.3
							C371.4-67,370.7-66.8,370-66.8z M372.1-71c0-0.3-0.1-0.6-0.2-0.8c-0.1-0.3-0.3-0.5-0.5-0.6c-0.2-0.2-0.4-0.3-0.6-0.4
							c-0.2-0.1-0.5-0.1-0.8-0.1c-0.3,0-0.5,0-0.8,0.1c-0.2,0.1-0.5,0.2-0.6,0.4c-0.2,0.2-0.3,0.4-0.4,0.6c-0.1,0.3-0.2,0.5-0.2,0.8
							H372.1z"/>
						<path d="M374.7-76.8h1.4v7.8c0,0.3,0.1,0.5,0.2,0.6c0.1,0.1,0.3,0.2,0.6,0.2c0.1,0,0.2,0,0.3-0.1c0.1,0,0.2-0.1,0.4-0.1
							l0.2,1.2c-0.2,0.1-0.5,0.2-0.7,0.2c-0.3,0.1-0.5,0.1-0.8,0.1c-0.5,0-0.9-0.1-1.2-0.4c-0.3-0.3-0.4-0.7-0.4-1.2V-76.8z"/>
						<path d="M381.7-66.8c-0.5,0-1-0.1-1.5-0.3c-0.4-0.2-0.8-0.5-1.1-0.8c-0.3-0.3-0.5-0.7-0.7-1.2c-0.2-0.4-0.2-0.9-0.2-1.4
							s0.1-0.9,0.2-1.4c0.2-0.4,0.4-0.8,0.7-1.2c0.3-0.3,0.7-0.6,1.1-0.8c0.4-0.2,0.9-0.3,1.5-0.3s1,0.1,1.5,0.3
							c0.4,0.2,0.8,0.5,1.1,0.8c0.3,0.3,0.5,0.7,0.7,1.2c0.2,0.4,0.2,0.9,0.2,1.4s-0.1,0.9-0.2,1.4c-0.2,0.4-0.4,0.8-0.7,1.2
							c-0.3,0.3-0.7,0.6-1.1,0.8C382.8-66.9,382.3-66.8,381.7-66.8z M379.7-70.5c0,0.3,0.1,0.7,0.2,0.9c0.1,0.3,0.2,0.5,0.4,0.7
							c0.2,0.2,0.4,0.4,0.7,0.5c0.2,0.1,0.5,0.2,0.8,0.2c0.3,0,0.6-0.1,0.8-0.2c0.2-0.1,0.5-0.3,0.7-0.5s0.3-0.5,0.4-0.8
							c0.1-0.3,0.2-0.6,0.2-0.9c0-0.3-0.1-0.6-0.2-0.9c-0.1-0.3-0.2-0.5-0.4-0.8s-0.4-0.4-0.7-0.5c-0.2-0.1-0.5-0.2-0.8-0.2
							c-0.3,0-0.5,0.1-0.8,0.2c-0.2,0.1-0.5,0.3-0.7,0.5c-0.2,0.2-0.3,0.5-0.4,0.8C379.8-71.1,379.7-70.8,379.7-70.5z"/>
						<path d="M390.5-66.8c-0.6,0-1-0.1-1.5-0.4c-0.4-0.3-0.8-0.6-1-1v4.2h-1.4V-74h1.3v1.3c0.3-0.4,0.6-0.8,1-1
							c0.4-0.3,0.9-0.4,1.4-0.4c0.5,0,0.9,0.1,1.3,0.3c0.4,0.2,0.7,0.5,1,0.8c0.3,0.3,0.5,0.7,0.7,1.2c0.2,0.4,0.2,0.9,0.2,1.4
							c0,0.5-0.1,1-0.2,1.4c-0.1,0.4-0.4,0.8-0.6,1.2s-0.6,0.6-1,0.8C391.3-66.9,390.9-66.8,390.5-66.8z M390-68.1
							c0.3,0,0.6-0.1,0.8-0.2c0.2-0.1,0.5-0.3,0.6-0.5c0.2-0.2,0.3-0.5,0.4-0.8c0.1-0.3,0.1-0.6,0.1-0.9c0-0.3-0.1-0.6-0.2-0.9
							s-0.3-0.5-0.4-0.8c-0.2-0.2-0.4-0.4-0.7-0.5c-0.3-0.1-0.5-0.2-0.9-0.2c-0.2,0-0.4,0-0.6,0.1c-0.2,0.1-0.4,0.2-0.6,0.3
							c-0.2,0.1-0.3,0.3-0.5,0.4c-0.1,0.2-0.2,0.3-0.3,0.5v1.8c0.1,0.2,0.2,0.4,0.3,0.6c0.1,0.2,0.3,0.3,0.5,0.5
							c0.2,0.1,0.4,0.2,0.6,0.3C389.6-68.1,389.8-68.1,390-68.1z"/>
						<path d="M397.9-66.8c-0.5,0-1-0.1-1.5-0.3c-0.4-0.2-0.8-0.5-1.1-0.8c-0.3-0.3-0.6-0.7-0.7-1.2c-0.2-0.4-0.3-0.9-0.3-1.4
							c0-0.5,0.1-1,0.3-1.4c0.2-0.4,0.4-0.8,0.7-1.2c0.3-0.3,0.7-0.6,1.1-0.8c0.4-0.2,0.9-0.3,1.5-0.3c0.5,0,1,0.1,1.5,0.3
							c0.4,0.2,0.8,0.5,1.1,0.8c0.3,0.3,0.5,0.7,0.7,1.1c0.2,0.4,0.2,0.9,0.2,1.4c0,0.1,0,0.2,0,0.3c0,0.1,0,0.2,0,0.2h-5.5
							c0,0.3,0.1,0.6,0.2,0.8c0.1,0.3,0.3,0.5,0.5,0.7c0.2,0.2,0.4,0.3,0.6,0.4c0.2,0.1,0.5,0.1,0.8,0.1c0.2,0,0.4,0,0.6-0.1
							c0.2,0,0.4-0.1,0.5-0.2c0.2-0.1,0.3-0.2,0.4-0.3c0.1-0.1,0.2-0.3,0.3-0.4l1.2,0.4c-0.2,0.5-0.6,1-1.2,1.3
							C399.3-67,398.7-66.8,397.9-66.8z M400-71c0-0.3-0.1-0.6-0.2-0.8c-0.1-0.3-0.3-0.5-0.5-0.6c-0.2-0.2-0.4-0.3-0.6-0.4
							c-0.2-0.1-0.5-0.1-0.8-0.1c-0.3,0-0.5,0-0.8,0.1c-0.2,0.1-0.5,0.2-0.6,0.4c-0.2,0.2-0.3,0.4-0.4,0.6c-0.1,0.3-0.2,0.5-0.2,0.8
							H400z"/>
						<path d="M406.5-72.7c-0.6,0-1.1,0.2-1.5,0.4c-0.4,0.2-0.7,0.6-0.9,1.1v4.3h-1.4v-7h1.3v1.6c0.2-0.5,0.5-0.9,0.9-1.2
							c0.4-0.3,0.8-0.4,1.2-0.5c0.1,0,0.2,0,0.2,0s0.1,0,0.2,0V-72.7z"/>
					</g>
				</g>
				<rect x="258.4" y="-58.3" width="165" height="38.3"/>
				<rect x="271.2" y="-36.9" style="fill:none;" width="144" height="18.5"/>
				<text transform="matrix(1 0 0 1 278.0661 -28.0999)" class="st1" style="font-family:'Raleway-SemiBold'; font-size:12px;">hello@ryanstrawn.com</text>
				<rect x="271.2" y="-51.8" style="fill:none;" width="144" height="18.5"/>
				<text transform="matrix(1 0 0 1 304.3268 -43.0052)" class="st1" style="font-family:'Raleway-SemiBold'; font-size:12px;">720-939-7773</text>
			</g>
			<rect x="258.4" y="-19.5" class="st1" width="165" height="26"/>
			<rect x="274.4" y="-13.3" style="fill:none;" width="129.2" height="18.5"/>
			<text transform="matrix(1 0 0 1 283.5428 -2.6856)" style="font-family:'Raleway-SemiBold'; font-size:14.5721px;">ryanstrawn.com</text>
		</g>
	</g>
	<path class="st4" d="M434.5,15.9H247.9v-141.5h186.6V15.9z M249.9,13.9h182.6v-137.5H249.9V13.9z"/>
</g>
</svg>
