<?xml version="1.0" encoding="utf-8"?>
<!-- Generator: Adobe Illustrator 15.1.0, SVG Export Plug-In . SVG Version: 6.00 Build 0)  -->
<!DOCTYPE svg PUBLIC "-//W3C//DTD SVG 1.1//EN" "http://www.w3.org/Graphics/SVG/1.1/DTD/svg11.dtd">
<svg version="1.1" id="Layer_1" xmlns="http://www.w3.org/2000/svg" xmlns:xlink="http://www.w3.org/1999/xlink" x="0px" y="0px"
	 width="100px" height="80px" viewBox="0 0 100 80" enable-background="new 0 0 100 80" xml:space="preserve">
<rect x="0" y="-0.54" width="100" height="81.079"/>
<path fill="#FFFFFF" d="M78.774,25.546c-9.14-15.017-22.909-4.569-22.909-4.569c-0.891,0.675-2.539,1.228-3.66,1.233H48.52
	c-1.121,0.003-2.765-0.551-3.659-1.227c0,0-13.771-10.45-22.91,4.569c-9.138,15.009-5.458,31.359-5.458,31.359
	c0.65,4.004,2.774,6.672,6.788,6.338c4.004-0.336,12.688-10.777,12.688-10.777c0.716-0.861,2.217-1.564,3.336-1.564l22.106-0.006
	c1.12,0,2.622,0.703,3.34,1.564c0,0,8.686,10.444,12.691,10.779c4.008,0.336,6.143-2.336,6.783-6.338
	C84.227,56.908,87.913,40.562,78.774,25.546z M43.281,31.564v4.71v0.407h-0.405h-4.731v4.731v0.404h-0.406h-4.72h-0.406v-0.404
	v-4.731h-4.725h-0.407v-0.407v-4.71v-0.406h0.407h4.725v-4.734v-0.408h0.406h4.72h0.406v0.408v4.733h4.731h0.405L43.281,31.564
	L43.281,31.564z M63.8,42.978c-2.079,0-3.75-1.677-3.75-3.751c0-2.078,1.673-3.753,3.75-3.753c2.067,0,3.757,1.678,3.757,3.753
	C67.557,41.301,65.867,42.978,63.8,42.978z M63.8,32.655c-2.079,0-3.75-1.679-3.75-3.754c0-2.077,1.673-3.749,3.75-3.749
	c2.067,0,3.757,1.674,3.757,3.749C67.557,30.976,65.867,32.655,63.8,32.655z M73.146,38.197c-2.079,0-3.75-1.679-3.75-3.755
	c0-2.076,1.673-3.749,3.75-3.749c2.067,0,3.755,1.675,3.755,3.749C76.9,36.518,75.212,38.197,73.146,38.197z"/>
</svg>
