<?xml version="1.0" encoding="utf-8"?>
<!-- Generator: Adobe Illustrator 15.1.0, SVG Export Plug-In . SVG Version: 6.00 Build 0)  -->
<!DOCTYPE svg PUBLIC "-//W3C//DTD SVG 1.1//EN" "http://www.w3.org/Graphics/SVG/1.1/DTD/svg11.dtd">
<svg version="1.1" id="Layer_1" xmlns="http://www.w3.org/2000/svg" xmlns:xlink="http://www.w3.org/1999/xlink" x="0px" y="0px"
	 width="100px" height="80px" viewBox="2.901 1.47 100 80" enable-background="new 2.901 1.47 100 80" xml:space="preserve">
<polygon points="45.811,32.68 45.811,38.5 40.401,38.5 40.401,43.9 34.581,43.9 34.581,38.5 29.181,38.5 29.181,32.68 34.581,32.68 
	34.581,27.27 40.401,27.27 40.401,32.68 "/>
<path d="M71.361,41.18c0,2.18-1.78,3.95-3.95,3.95c-2.189,0-3.95-1.771-3.95-3.95c0-2.19,1.761-3.96,3.95-3.96
	C69.581,37.22,71.361,38.99,71.361,41.18z"/>
<path d="M71.361,30.31c0,2.18-1.78,3.95-3.95,3.95c-2.189,0-3.95-1.77-3.95-3.95c0-2.19,1.761-3.95,3.95-3.95
	C69.581,26.36,71.361,28.12,71.361,30.31z"/>
<path d="M81.201,36.14c0,2.19-1.78,3.95-3.96,3.95s-3.939-1.76-3.939-3.95s1.76-3.95,3.939-3.95S81.201,33.96,81.201,36.14z"/>
<path d="M2.901,1.47v81.08h100V1.47H2.901z M88.911,59.79c-0.68,4.21-2.92,7.02-7.14,6.67c-4.22-0.351-13.36-11.351-13.36-11.351
	c-0.76-0.899-2.34-1.64-3.52-1.64h-23.27c-1.18,0-2.75,0.74-3.51,1.65c0,0-9.14,10.989-13.36,11.34c-4.22,0.359-6.46-2.45-7.14-6.67
	c0,0-3.87-17.21,5.75-33.01c9.62-15.81,24.11-4.81,24.11-4.81c0.94,0.71,2.67,1.3,3.85,1.29h3.88c1.181,0,2.92-0.58,3.851-1.29
	c0,0,14.5-11,24.119,4.81C92.791,42.58,88.911,59.79,88.911,59.79z"/>
</svg>
