<?xml version="1.0" encoding="utf-8"?>
<!-- Generator: Adobe Illustrator 15.1.0, SVG Export Plug-In . SVG Version: 6.00 Build 0)  -->
<!DOCTYPE svg PUBLIC "-//W3C//DTD SVG 1.1//EN" "http://www.w3.org/Graphics/SVG/1.1/DTD/svg11.dtd">
<svg version="1.1" id="Layer_1" xmlns="http://www.w3.org/2000/svg" xmlns:xlink="http://www.w3.org/1999/xlink" x="0px" y="0px"
	 width="100px" height="80px" viewBox="0 0 100 80" enable-background="new 0 0 100 80" xml:space="preserve">
<path d="M0-0.64V80h100V-0.64H0z M77.96,61.49C73.5,67.6,67.73,71.82,60.66,74.17c-0.82,0.15-1.42,0.04-1.8-0.32
	c-0.38-0.359-0.57-0.819-0.57-1.369V62.84c0-2.96-0.79-5.12-2.38-6.49c1.74-0.18,3.3-0.46,4.689-0.819
	c1.381-0.37,2.811-0.96,4.29-1.79c1.48-0.82,2.71-1.83,3.7-3.03c0.99-1.21,1.8-2.81,2.42-4.8c0.63-2,0.94-4.29,0.94-6.88
	c0-3.69-1.2-6.83-3.61-9.41c1.13-2.78,1.01-5.88-0.359-9.33c-0.86-0.27-2.091-0.1-3.711,0.5c-1.609,0.61-3.01,1.28-4.199,2.01
	l-1.74,1.1c-2.83-0.79-5.76-1.19-8.77-1.19c-3.02,0-5.94,0.4-8.78,1.19c-0.48-0.33-1.13-0.75-1.94-1.23
	c-0.81-0.49-2.08-1.08-3.81-1.76c-1.74-0.68-3.05-0.89-3.93-0.62c-1.35,3.45-1.45,6.55-0.32,9.32c-2.41,2.59-3.61,5.73-3.61,9.42
	c0,2.59,0.31,4.871,0.93,6.85c0.62,1.98,1.43,3.58,2.4,4.8c0.97,1.221,2.2,2.24,3.68,3.061c1.48,0.83,2.91,1.42,4.29,1.79
	c1.39,0.359,2.95,0.64,4.69,0.819c-1.22,1.101-1.97,2.66-2.24,4.71c-0.64,0.301-1.32,0.53-2.06,0.681
	c-0.73,0.149-1.6,0.229-2.6,0.229c-1.01,0-2-0.33-2.99-0.979c-1-0.66-1.84-1.61-2.54-2.86c-0.58-0.97-1.32-1.76-2.22-2.37
	c-0.89-0.609-1.65-0.979-2.26-1.1l-0.91-0.141c-0.64,0-1.09,0.07-1.33,0.211c-0.24,0.14-0.32,0.31-0.23,0.52
	c0.09,0.22,0.23,0.43,0.41,0.64c0.19,0.221,0.39,0.4,0.6,0.551l0.32,0.229c0.67,0.3,1.33,0.88,1.99,1.74
	c0.65,0.85,1.13,1.63,1.44,2.33l0.45,1.05c0.4,1.16,1.07,2.09,2.01,2.81c0.95,0.721,1.97,1.17,3.07,1.37
	c1.09,0.2,2.15,0.3,3.17,0.32c1.02,0.01,1.87-0.04,2.54-0.16l1.05-0.18c0,1.16,0.01,2.51,0.02,4.06c0.02,1.561,0.02,2.38,0.02,2.471
	c0,0.55-0.19,1.01-0.59,1.369c-0.39,0.37-1.01,0.471-1.83,0.32c-7.07-2.34-12.83-6.57-17.3-12.68c-4.46-6.11-6.69-12.98-6.69-20.63
	c0-6.37,1.57-12.24,4.71-17.62c3.14-5.38,7.39-9.63,12.77-12.77c5.38-3.14,11.25-4.71,17.62-4.71c6.37,0,12.24,1.57,17.61,4.71
	c5.38,3.14,9.64,7.39,12.78,12.77c3.13,5.38,4.7,11.25,4.71,17.62C84.66,48.5,82.42,55.38,77.96,61.49z"/>
</svg>
