<?xml version="1.0" encoding="utf-8"?>
<!-- Generator: Adobe Illustrator 23.0.3, SVG Export Plug-In . SVG Version: 6.00 Build 0)  -->
<svg version="1.1" id="Layer_1" xmlns="http://www.w3.org/2000/svg" xmlns:xlink="http://www.w3.org/1999/xlink" x="0px" y="0px"
	 viewBox="0 0 100 80" style="enable-background:new 0 0 100 80;" xml:space="preserve">
<style type="text/css">
	.st0{fill:#FFFFFF;}
</style>
<rect y="-0.6" width="100" height="80.6"/>
<path class="st0" d="M78,61.5c-4.5,6.1-10.2,10.3-17.3,12.7c-0.8,0.2-1.4,0-1.8-0.3c-0.4-0.4-0.6-0.8-0.6-1.4v-9.6
	c0-3-0.8-5.1-2.4-6.5c1.7-0.2,3.3-0.5,4.7-0.8c1.4-0.4,2.8-1,4.3-1.8c1.5-0.8,2.7-1.8,3.7-3c1-1.2,1.8-2.8,2.4-4.8
	c0.6-2,0.9-4.3,0.9-6.9c0-3.7-1.2-6.8-3.6-9.4c1.1-2.8,1-5.9-0.4-9.3c-0.9-0.3-2.1-0.1-3.7,0.5c-1.6,0.6-3,1.3-4.2,2l-1.7,1.1
	c-2.8-0.8-5.8-1.2-8.8-1.2c-3,0-5.9,0.4-8.8,1.2c-0.5-0.3-1.1-0.8-1.9-1.2c-0.8-0.5-2.1-1.1-3.8-1.8c-1.7-0.7-3-0.9-3.9-0.6
	c-1.4,3.5-1.5,6.6-0.3,9.3c-2.4,2.6-3.6,5.7-3.6,9.4c0,2.6,0.3,4.9,0.9,6.8c0.6,2,1.4,3.6,2.4,4.8c1,1.2,2.2,2.2,3.7,3.1
	c1.5,0.8,2.9,1.4,4.3,1.8c1.4,0.4,3,0.6,4.7,0.8c-1.2,1.1-2,2.7-2.2,4.7c-0.6,0.3-1.3,0.5-2.1,0.7c-0.7,0.1-1.6,0.2-2.6,0.2
	c-1,0-2-0.3-3-1c-1-0.7-1.8-1.6-2.5-2.9c-0.6-1-1.3-1.8-2.2-2.4c-0.9-0.6-1.6-1-2.3-1.1l-0.9-0.1c-0.6,0-1.1,0.1-1.3,0.2
	c-0.2,0.1-0.3,0.3-0.2,0.5c0.1,0.2,0.2,0.4,0.4,0.6c0.2,0.2,0.4,0.4,0.6,0.6l0.3,0.2c0.7,0.3,1.3,0.9,2,1.7c0.6,0.8,1.1,1.6,1.4,2.3
	l0.5,1c0.4,1.2,1.1,2.1,2,2.8c1,0.7,2,1.2,3.1,1.4c1.1,0.2,2.2,0.3,3.2,0.3c1,0,1.9,0,2.5-0.2l1-0.2c0,1.2,0,2.5,0,4.1
	c0,1.6,0,2.4,0,2.5c0,0.6-0.2,1-0.6,1.4c-0.4,0.4-1,0.5-1.8,0.3c-7.1-2.3-12.8-6.6-17.3-12.7c-4.5-6.1-6.7-13-6.7-20.6
	c0-6.4,1.6-12.2,4.7-17.6s7.4-9.6,12.8-12.8s11.3-4.7,17.6-4.7s12.2,1.6,17.6,4.7c5.4,3.1,9.6,7.4,12.8,12.8
	c3.1,5.4,4.7,11.2,4.7,17.6C84.7,48.5,82.4,55.4,78,61.5z"/>
</svg>
