<?xml version="1.0" encoding="utf-8"?>
<!-- Generator: Adobe Illustrator 15.1.0, SVG Export Plug-In . SVG Version: 6.00 Build 0)  -->
<!DOCTYPE svg PUBLIC "-//W3C//DTD SVG 1.1//EN" "http://www.w3.org/Graphics/SVG/1.1/DTD/svg11.dtd">
<svg version="1.1" id="Layer_1" xmlns="http://www.w3.org/2000/svg" xmlns:xlink="http://www.w3.org/1999/xlink" x="0px" y="0px"
	 width="1200px" height="65px" viewBox="73.5 -2.998 1200 65" enable-background="new 73.5 -2.998 1200 65" xml:space="preserve">
<g>
	<path fill="#2EB0CF" d="M418.424,38.262c1.174,0.455,2.055,9.417,1.761,10.551c-0.294,0.907-2.937,1.132-3.815,2.269
		c-0.588,0.906,0.586,2.268,0.293,3.176c-0.586,1.813-2.643,6.578-6.457,5.67c-1.468-0.453-3.816-6.578-4.404-8.166
		c-5.578,0.455-2.936,3.855-5.282,5.67c-0.882,0.684-4.112,1.137-5.285,0.229c-2.348-1.361,0.586-1.361,0.293-2.947
		c0-1.136,0-2.949-1.174-3.631c-2.349-1.587-2.349,0.229-4.697,0c-0.881,0-4.698-1.135-4.989-1.136c-2.35,0.683,0,2.271-2.056,2.948
		c-3.229,1.361-4.989-3.855-7.633,0.229c-1.467,2.27,2.644,5.219-1.467,7.258c-5.284,2.498-5.284-1.358-4.697-3.627
		c0.88-3.633,0.88-4.765-4.403-5.899c0.295,2.042-0.295,5.673-4.402,4.313c-1.467-0.684-2.937-9.076-7.045-4.539
		c-2.057,2.269,2.642,6.125,0.586,9.073c-1.467,2.495-6.457,3.402-8.219,0.453c-1.175-1.813,0.879-4.765-1.175-7.034
		c-4.403-4.988-3.815-0.904-4.696,2.045c-0.881,2.948-4.109,5.67-6.75,2.039c-0.588-1.134-0.295-9.525-5.873-6.354
		c-2.055,1.137-0.293,7.488-6.164,4.766c-3.816-1.814-0.588-6.58-7.045-7.029c-2.937-0.229-6.166,1.812-9.101,2.267
		c-1.761,0.228-4.716,2.147-7.519,2.753c-5.872,1.27-4.403-2.326-6.752-2.326c-2.937-0.229-1.875,0.254-3.93,1.161
		c0.293-0.226-4.99,0.681-4.697,0.681c-2.348-0.453-2.643-0.681-4.989-2.723c-3.229,1.361-0.587,3.855-1.47,6.126
		c-0.586,0.905-2.055,2.72-3.815,2.72c-2.935,0-1.761-0.904-2.642-2.492c-1.174-2.043-0.588-5.674-4.109-5.445
		c-1.761,0-1.761,2.496-2.936,2.494c-1.467,0-2.937-1.359-4.11-2.041c-0.585,1.359-1.173,2.723-2.935,3.404
		c-1.469-2.271-2.35-8.621-5.578-4.312c-0.588,0.907-0.588,8.394-4.109,7.715c-2.641-0.453-0.881-7.259-3.521-8.622
		c-3.816-2.268-5.871,0.907-9.101,2.043c-0.294-0.906-1.468-2.495-2.937-2.27c-2.053,0.227-0.588,1.588-1.762,2.043
		c-0.881,0.453-0.881,1.586-2.642,1.359c-2.054-0.228-0.88-2.041-1.763-2.494c-6.164-2.949-3.229,6.353-9.1,1.133
		c-0.293,0.908-0.879,2.724-2.054,3.404c-2.937,1.36-1.763,0-2.937-0.908c-1.468-1.361-2.348-4.99-6.459-2.496
		c-2.348,1.588-0.586,5.897-5.283,6.125c-4.402,0.229-3.522-3.855-4.697-5.897c-0.879-1.36-2.055-3.629-4.695-3.176
		c-2.35,0.454-0.882,2.722-2.35,2.948c-4.989,1.135-4.989-3.629-9.1,1.359c-3.523,3.858-2.055,2.271-6.164-0.906
		c-5.578-3.855-6.752,0.906-8.809,4.084c-2.053,3.855-3.229,2.947-4.107-0.906c-0.881-3.403-0.588-6.805-5.578-4.766
		c-1.762,0.682,0,2.494-3.229,2.494c-3.522,0-1.762-2.494-3.815-3.176c-4.696-1.132-3.816,3.63-6.752,4.991
		c-2.056-1.136-2.348-9.074-6.164-4.083c-3.523-3.176-4.402,2.494-8.808,1.361c-2.055-0.453-0.294-3.402-4.108-1.363
		c-1.467,0.455-1.469,2.043-1.762,3.179c-5.871,11.116-2.937-4.312-7.634-4.312c-2.349,0-0.88,2.27-3.229,2.496
		c-1.76,0.228-1.76-2.271-3.815-2.041c-2.347,0.453-2.935,7.258-5.871,3.855c-0.879-1.361,2.058-3.631,0.587-4.992
		c-2.934-2.722-5.576,1.361-5.871,3.178c-3.816,0-3.229-3.402-7.044-2.496c-1.467,0.227-3.229,4.99-4.11,0.227
		c-3.229,1.589-3.229,2.949-5.578-0.452C74.088,48.588,73.795,39.17,73.5,38.49L418.424,38.262z"/>
</g>
<g>
	<path fill="#2EB0CF" d="M754.298,38.262c1.174,0.455,2.055,9.417,1.761,10.551c-0.294,0.907-2.937,1.132-3.815,2.269
		c-0.588,0.906,0.586,2.268,0.293,3.176c-0.586,1.813-2.643,6.578-6.457,5.67c-1.468-0.453-3.816-6.578-4.404-8.166
		c-5.578,0.455-2.936,3.855-5.282,5.67c-0.882,0.684-4.112,1.137-5.285,0.229c-2.348-1.361,0.586-1.361,0.293-2.947
		c0-1.136,0-2.949-1.174-3.631c-2.349-1.587-2.349,0.229-4.697,0c-0.881,0-4.698-1.135-4.989-1.136c-2.35,0.683,0,2.271-2.056,2.948
		c-3.229,1.361-4.989-3.855-7.633,0.229c-1.467,2.27,2.644,5.219-1.467,7.258c-5.284,2.498-5.284-1.358-4.697-3.627
		c0.88-3.633,0.88-4.765-4.403-5.899c0.295,2.042-0.295,5.673-4.402,4.313c-1.467-0.684-2.937-9.076-7.045-4.539
		c-2.057,2.269,2.642,6.125,0.586,9.073c-1.467,2.495-6.457,3.402-8.219,0.453c-1.175-1.813,0.879-4.765-1.175-7.034
		c-4.403-4.988-3.815-0.904-4.696,2.045c-0.881,2.948-4.109,5.67-6.75,2.039c-0.588-1.134-0.295-9.525-5.873-6.354
		c-2.055,1.137-0.293,7.488-6.164,4.766c-3.816-1.814-0.588-6.58-7.045-7.029c-2.937-0.229-6.166,1.812-9.101,2.267
		c-1.761,0.228-4.716,2.147-7.519,2.753c-5.872,1.27-4.403-2.326-6.752-2.326c-2.937-0.229-1.875,0.254-3.93,1.161
		c0.293-0.226-4.99,0.681-4.697,0.681c-2.348-0.453-2.643-0.681-4.989-2.723c-3.229,1.361-0.587,3.855-1.47,6.126
		c-0.586,0.905-2.055,2.72-3.815,2.72c-2.935,0-1.761-0.904-2.642-2.492c-1.174-2.043-0.588-5.674-4.109-5.445
		c-1.761,0-1.761,2.496-2.936,2.494c-1.467,0-2.937-1.359-4.11-2.041c-0.585,1.359-1.173,2.723-2.935,3.404
		c-1.469-2.271-2.35-8.621-5.578-4.312c-0.588,0.907-0.588,8.394-4.109,7.715c-2.641-0.453-0.881-7.259-3.521-8.622
		c-3.816-2.268-5.871,0.907-9.101,2.043c-0.294-0.906-1.468-2.495-2.937-2.27c-2.053,0.227-0.588,1.588-1.762,2.043
		c-0.881,0.453-0.881,1.586-2.642,1.359c-2.054-0.228-0.88-2.041-1.763-2.494c-6.164-2.949-3.229,6.353-9.1,1.133
		c-0.293,0.908-0.879,2.724-2.054,3.404c-2.937,1.36-1.763,0-2.937-0.908c-1.468-1.361-2.348-4.99-6.459-2.496
		c-2.348,1.588-0.586,5.897-5.283,6.125c-4.402,0.229-3.522-3.855-4.697-5.897c-0.879-1.36-2.055-3.629-4.695-3.176
		c-2.35,0.454-0.882,2.722-2.35,2.948c-4.989,1.135-4.989-3.629-9.1,1.359c-3.523,3.858-2.055,2.271-6.164-0.906
		c-5.578-3.855-6.752,0.906-8.809,4.084c-2.053,3.855-3.229,2.947-4.107-0.906c-0.881-3.403-0.588-6.805-5.578-4.766
		c-1.762,0.682,0,2.494-3.229,2.494c-3.522,0-1.762-2.494-3.815-3.176c-4.696-1.132-3.816,3.63-6.752,4.991
		c-2.056-1.136-2.348-9.074-6.164-4.083c-3.523-3.176-4.402,2.494-8.808,1.361c-2.055-0.453-0.294-3.402-4.108-1.363
		c-1.467,0.455-1.469,2.043-1.762,3.179c-5.871,11.116-2.937-4.312-7.634-4.312c-2.349,0-0.88,2.27-3.229,2.496
		c-1.76,0.228-1.76-2.271-3.815-2.041c-2.347,0.453-2.935,7.258-5.871,3.855c-0.879-1.361,2.058-3.631,0.587-4.992
		c-2.934-2.722-5.576,1.361-5.871,3.178c-3.816,0-3.229-3.402-7.044-2.496c-1.467,0.227-3.229,4.99-4.11,0.227
		c-3.229,1.589-3.229,2.949-5.578-0.452c-0.586-0.905-0.879-10.323-1.174-11.003L754.298,38.262z"/>
</g>
<g>
	<path fill="#2EB0CF" d="M935.809,38.262c1.174,0.455,2.055,9.417,1.761,10.551c-0.294,0.907-2.937,1.132-3.815,2.269
		c-0.588,0.906,0.586,2.268,0.293,3.176c-0.586,1.813-2.643,6.578-6.457,5.67c-1.468-0.453-3.816-6.578-4.404-8.166
		c-5.578,0.455-2.936,3.855-5.282,5.67c-0.882,0.684-4.112,1.137-5.285,0.229c-2.348-1.361,0.586-1.361,0.293-2.947
		c0-1.136,0-2.949-1.174-3.631c-2.349-1.587-2.349,0.229-4.697,0c-0.881,0-4.698-1.135-4.989-1.136c-2.35,0.683,0,2.271-2.056,2.948
		c-3.229,1.361-4.989-3.855-7.633,0.229c-1.467,2.27,2.644,5.219-1.467,7.258c-5.284,2.498-5.284-1.358-4.697-3.627
		c0.88-3.633,0.88-4.765-4.403-5.899c0.295,2.042-0.295,5.673-4.402,4.313c-1.467-0.684-2.937-9.076-7.045-4.539
		c-2.057,2.269,2.642,6.125,0.586,9.073c-1.467,2.495-6.457,3.402-8.219,0.453c-1.175-1.813,0.879-4.765-1.175-7.034
		c-4.403-4.988-3.815-0.904-4.696,2.045c-0.881,2.948-4.109,5.67-6.75,2.039c-0.588-1.134-0.295-9.525-5.873-6.354
		c-2.055,1.137-0.293,7.488-6.164,4.766c-3.816-1.814-0.588-6.58-7.045-7.029c-2.937-0.229-6.166,1.812-9.101,2.267
		c-1.761,0.228-4.716,2.147-7.519,2.753c-5.872,1.27-4.403-2.326-6.752-2.326c-2.937-0.229-1.875,0.254-3.93,1.161
		c0.293-0.226-4.99,0.681-4.697,0.681c-2.348-0.453-2.643-0.681-4.989-2.723c-3.229,1.361-0.587,3.855-1.47,6.126
		c-0.586,0.905-2.055,2.72-3.815,2.72c-2.935,0-1.761-0.904-2.642-2.492c-1.174-2.043-0.588-5.674-4.109-5.445
		c-1.761,0-1.761,2.496-2.936,2.494c-1.467,0-2.937-1.359-4.11-2.041c-0.585,1.359-1.173,2.723-2.935,3.404
		c-1.469-2.271-2.35-8.621-5.578-4.312c-0.588,0.907-0.588,8.394-4.109,7.715c-2.641-0.453-0.881-7.259-3.521-8.622
		c-3.816-2.268-5.871,0.907-9.101,2.043c-0.294-0.906-1.468-2.495-2.937-2.27c-2.053,0.227-0.588,1.588-1.762,2.043
		c-0.881,0.453-0.881,1.586-2.642,1.359c-2.054-0.228-0.88-2.041-1.763-2.494c-6.164-2.949-3.229,6.353-9.1,1.133
		c-0.293,0.908-0.879,2.724-2.054,3.404c-2.937,1.36-1.763,0-2.937-0.908c-1.468-1.361-2.348-4.99-6.459-2.496
		c-2.348,1.588-0.586,5.897-5.283,6.125c-4.402,0.229-3.522-3.855-4.697-5.897c-0.879-1.36-2.055-3.629-4.695-3.176
		c-2.35,0.454-0.882,2.722-2.35,2.948c-4.989,1.135-4.989-3.629-9.1,1.359c-3.523,3.858-2.055,2.271-6.164-0.906
		c-5.578-3.855-6.752,0.906-8.809,4.084c-2.053,3.855-3.229,2.947-4.107-0.906c-0.881-3.403-0.588-6.805-5.578-4.766
		c-1.762,0.682,0,2.494-3.229,2.494c-3.522,0-1.762-2.494-3.815-3.176c-4.696-1.132-3.816,3.63-6.752,4.991
		c-2.056-1.136-2.348-9.074-6.164-4.083c-3.523-3.176-4.402,2.494-8.808,1.361c-2.055-0.453-0.294-3.402-4.108-1.363
		c-1.467,0.455-1.469,2.043-1.762,3.179c-5.871,11.116-2.937-4.312-7.634-4.312c-2.349,0-0.88,2.27-3.229,2.496
		c-1.76,0.228-1.76-2.271-3.815-2.041c-2.347,0.453-2.935,7.258-5.871,3.855c-0.879-1.361,2.058-3.631,0.587-4.992
		c-2.934-2.722-5.576,1.361-5.871,3.178c-3.816,0-3.229-3.402-7.044-2.496c-1.467,0.227-3.229,4.99-4.11,0.227
		c-3.229,1.589-3.229,2.949-5.578-0.452c-0.586-0.905-0.879-10.323-1.174-11.003L935.809,38.262z"/>
</g>
<g>
	<path fill="#2EB0CF" d="M1271.683,38.262c1.174,0.455,2.055,9.417,1.761,10.551c-0.294,0.907-2.937,1.132-3.815,2.269
		c-0.588,0.906,0.586,2.268,0.293,3.176c-0.586,1.813-2.643,6.578-6.457,5.67c-1.468-0.453-3.816-6.578-4.404-8.166
		c-5.578,0.455-2.936,3.855-5.282,5.67c-0.882,0.684-4.112,1.137-5.285,0.229c-2.348-1.361,0.586-1.361,0.293-2.947
		c0-1.136,0-2.949-1.174-3.631c-2.349-1.587-2.349,0.229-4.697,0c-0.881,0-4.698-1.135-4.989-1.136c-2.35,0.683,0,2.271-2.056,2.948
		c-3.229,1.361-4.989-3.855-7.633,0.229c-1.467,2.27,2.644,5.219-1.467,7.258c-5.284,2.498-5.284-1.358-4.697-3.627
		c0.88-3.633,0.88-4.765-4.403-5.899c0.295,2.042-0.295,5.673-4.402,4.313c-1.467-0.684-2.937-9.076-7.045-4.539
		c-2.057,2.269,2.642,6.125,0.586,9.073c-1.467,2.495-6.457,3.402-8.219,0.453c-1.175-1.813,0.879-4.765-1.175-7.034
		c-4.403-4.988-3.815-0.904-4.696,2.045c-0.881,2.948-4.109,5.67-6.75,2.039c-0.588-1.134-0.295-9.525-5.873-6.354
		c-2.055,1.137-0.293,7.488-6.164,4.766c-3.816-1.814-0.588-6.58-7.045-7.029c-2.937-0.229-6.166,1.812-9.101,2.267
		c-1.761,0.228-4.716,2.147-7.519,2.753c-5.872,1.27-4.403-2.326-6.752-2.326c-2.937-0.229-1.875,0.254-3.93,1.161
		c0.293-0.226-4.99,0.681-4.697,0.681c-2.348-0.453-2.643-0.681-4.989-2.723c-3.229,1.361-0.587,3.855-1.47,6.126
		c-0.586,0.905-2.055,2.72-3.815,2.72c-2.935,0-1.761-0.904-2.642-2.492c-1.174-2.043-0.588-5.674-4.109-5.445
		c-1.761,0-1.761,2.496-2.936,2.494c-1.467,0-2.937-1.359-4.11-2.041c-0.585,1.359-1.173,2.723-2.935,3.404
		c-1.469-2.271-2.35-8.621-5.578-4.312c-0.588,0.907-0.588,8.394-4.109,7.715c-2.641-0.453-0.881-7.259-3.521-8.622
		c-3.816-2.268-5.871,0.907-9.101,2.043c-0.294-0.906-1.468-2.495-2.937-2.27c-2.053,0.227-0.588,1.588-1.762,2.043
		c-0.881,0.453-0.881,1.586-2.642,1.359c-2.054-0.228-0.88-2.041-1.763-2.494c-6.164-2.949-3.229,6.353-9.1,1.133
		c-0.293,0.908-0.879,2.724-2.054,3.404c-2.937,1.36-1.763,0-2.937-0.908c-1.468-1.361-2.348-4.99-6.459-2.496
		c-2.348,1.588-0.586,5.897-5.283,6.125c-4.402,0.229-3.522-3.855-4.697-5.897c-0.879-1.36-2.055-3.629-4.695-3.176
		c-2.35,0.454-0.882,2.722-2.35,2.948c-4.989,1.135-4.989-3.629-9.1,1.359c-3.523,3.858-2.055,2.271-6.164-0.906
		c-5.578-3.855-6.752,0.906-8.809,4.084c-2.053,3.855-3.229,2.947-4.107-0.906c-0.881-3.403-0.588-6.805-5.578-4.766
		c-1.762,0.682,0,2.494-3.229,2.494c-3.522,0-1.762-2.494-3.815-3.176c-4.696-1.132-3.816,3.63-6.752,4.991
		c-2.056-1.136-2.348-9.074-6.164-4.083c-3.523-3.176-4.402,2.494-8.808,1.361c-2.055-0.453-0.294-3.402-4.108-1.363
		c-1.467,0.455-1.469,2.043-1.762,3.179c-5.871,11.116-2.937-4.312-7.634-4.312c-2.349,0-0.88,2.27-3.229,2.496
		c-1.76,0.228-1.76-2.271-3.815-2.041c-2.347,0.453-2.935,7.258-5.871,3.855c-0.879-1.361,2.058-3.631,0.587-4.992
		c-2.934-2.722-5.576,1.361-5.871,3.178c-3.816,0-3.229-3.402-7.044-2.496c-1.467,0.227-3.229,4.99-4.11,0.227
		c-3.229,1.589-3.229,2.949-5.578-0.452c-0.586-0.905-0.879-10.323-1.174-11.003L1271.683,38.262z"/>
</g>
<rect x="73.5" y="-2.998" width="1200" height="51.48"/>
<g>
	<path fill="#80C41C" d="M829.695-92.766c2.936-0.635-0.881,12.902-1.174,13.75c-0.588,1.479,1.762,5.076-2.35,5.076
		c-2.643,0-4.109-3.597-7.046-4.019c0,1.903,2.644,3.172-0.293,4.229c-2.937,1.06-4.696-2.114-6.752-2.537
		c-8.808-2.116,2.644,5.076,3.229,6.134c3.229,4.653-7.045,3.597-9.102,0.846c-1.176-1.269-0.293-3.384-1.466-4.865
		c-1.175-1.48-3.816-2.539-5.579-2.96c-1.467,2.114,3.229,6.77-4.403,5.499c1.468-3.597-4.108-5.923-8.22-5.499
		c0.295,1.691,3.816,3.173,1.175,4.441c-4.108,1.904-6.165-3.384-8.22-4.231c-5.577-2.748-2.643,1.904-3.229,4.232
		c-0.88,2.538-4.99,5.288-8.808,4.229c-8.22-2.326,2.642-3.594,3.522-5.499c1.176-2.327-7.045-6.136-9.98-4.865
		c-1.762,0.847,1.469,7.615-5.283,4.441c-2.349-1.057-4.111-7.402-6.752-2.961c-0.88,1.48,1.176,2.327-0.587,4.021
		c-0.879,0.635-3.229,1.058-4.403,1.271c0.293-1.905,2.348-4.231,0-6.348c-4.109-3.384-2.643,1.691-5.871,2.115
		c-2.937,0.635-5.871-4.229-8.513-2.538c-2.349,1.48,2.056,4.654-3.817,5.712c-0.293-1.904-2.936-5.5-5.576-3.174
		c-1.469,1.481,1.174,5.29,0.293,7.193s-4.696,5.076-7.338,2.538c-1.469-1.692,1.467-4.231,1.761-5.924
		c0-1.48-0.881-4.019-2.644-5.077c-4.695-2.539-1.174,2.327-4.695,2.75c-3.229,0.421-2.35-4.441-5.87-3.385
		c-2.349,0.634,0,4.23-4.698,4.654c-4.695,0.211-3.521-4.231-7.925-5.077c-6.165-1.271-5.578,4.653-5.871,7.191
		c-0.588,3.598-4.403,5.711-6.164,1.27c-0.882-2.328,0.879-8.25-4.991-8.461c-6.752-0.212,0.293,6.134-4.99,6.98
		c-4.992,0.635-1.762-4.231-3.816-5.923c-5.285-4.655-3.229,2.327-3.816,2.962c-3.229,3.596-6.457-3.597-10.568-2.751
		c-4.108,1.059-0.588,4.654-3.229,6.559c-1.468,0.846-4.403,1.48-5.577,0.212c-0.586-0.847,1.174-2.538,1.174-3.597
		c-0.293-1.058-1.174-3.384-2.935-3.807c-4.11-0.847-1.469,1.056-2.351,2.326c-0.881,1.268,0.589,2.116-2.348,2.539
		c-2.936,0.423-1.762-0.847-3.816-1.904c-3.815-2.114-5.87-2.75-7.633,0.847c-0.586,1.058-2.347,7.402-6.457,3.597
		c-2.055-1.693,2.055-4.655,0.586-6.981c-2.053-3.174-5.283-1.269-6.457,1.059c-0.883-0.848-2.351-1.481-2.938-2.328
		c0,1.058-0.88,2.538-2.348,3.173c-4.99-9.521-4.403,6.136-6.164,6.77c-7.046,1.904-0.295-11-8.809-10.152
		c-4.695,0.422-1.465,3.596-2.348,5.71c-2.349,4.653-3.521,0.212-4.99-1.692c-1.469-2.75-3.815-4.229-6.164-1.48
		c-1.47,1.692,0.881,3.596-2.645,4.653c-1.467-1.48-0.585-3.596-1.76-5.077c-2.934-2.961-4.403-0.846-4.403,1.904
		c-4.403,0.212-5.869-6.346-7.045,0.424c-1.761-0.636-2.054-3.596-4.11-3.809c-1.467-0.211-0.584,1.905-1.174,1.692h-2.643
		c-1.762,0.213-1.17-3.385-2.641,0.423c-0.588,1.27,1.174,3.174,0,4.442c-5.871,5.713-1.468-15.442-9.688-5.287
		c-1.761-4.021-4.695-0.847-4.695,1.691c-3.229,0-3.524-6.346-6.46-1.905c-1.174,1.48,1.762,6.559-1.174,7.403
		c-5.283,1.27-1.762-5.71-1.467-6.769c0.294-2.75-3.229-5.711-2.938-1.903c-6.164-0.634-3.229,6.98-7.044,1.903
		c-0.88-1.058,0.294-4.229-3.522-3.807c-3.523,0.421-0.586,3.595-4.695,3.172c-2.938-0.423-2.643-4.44-5.285-0.211
		c-0.88,1.48,0.292,6.346-3.816,4.865c-1.468-0.422-2.348-12.06-4.99-6.557c-3.23-3.598-4.403,1.902-7.045,2.96
		c-2.056-1.903-2.644-14.809-2.35-17.133L829.695-92.766z"/>
</g>
<g>
	<path fill="#CCE70B" d="M475.031-140.801c0.295,0-0.294,2.045-1.174,3.303c-1.174,1.416-0.881,2.519-1.762,4.09
		c-2.643,5.504-4.109-2.518-5.871-3.772c-1.762,0.785-1.762,2.358-4.109,3.144c-2.055-1.57-1.468-3.615-5.578-4.088
		c0.879,0.943-2.055,7.234-5.578,7.234c-4.696,0-0.881-2.202-1.174-2.989c-0.293-1.571-1.762-2.673-4.404-3.616
		c-2.936,1.73-0.293,6.605-7.926,5.032c2.643-2.045,0.588-5.032-3.229-6.133c-2.055,1.101-0.882,2.673-2.055,3.774
		c-2.643,2.201-2.641,0.785-4.697-0.473c-7.926-5.033-0.586,2.674-8.221,2.831c-0.586-0.784,0-2.2-0.879-2.987
		c-2.643-2.674-2.053-0.473-3.814,0.629c-5.285,3.304-3.816-2.83-10.861-2.201c0.291,0.629,2.346,2.675,1.174,3.304
		c-2.35,1.414-4.111-1.731-5.873-1.888c-4.108-0.315-2.056,4.089-7.045,3.615c0-1.572,1.762-3.772-2.643-3.932
		c-1.762-0.156-2.641,1.26-4.695,1.102c-1.763-0.156-4.111-1.887-5.58-2.357c0.295,0.785,3.817,3.773,0,3.615
		c-2.349-0.155-3.814-2.672-4.99-3.458c-4.402,2.202,4.109,8.807-2.35,10.536c-2.348-3.303,0.295-7.861-3.521-11.01
		c-2.349,1.573-0.587,9.438-3.228,10.067c-3.818,0.627-4.99-6.92-6.459-8.494c-2.055,0.63,0,5.19-3.522,4.875
		c-1.468-0.157-1.763-3.616-2.054-4.56c-0.588-0.787-0.588-2.359-2.644-2.202c-2.056,0-0.881,1.573-1.468,2.044
		c-3.229,1.886-4.403,0.787-7.044-0.943c-0.88,1.416,1.467,2.988,0.586,4.562c-1.173,2.2-3.522,2.358-4.696,0.472
		c-0.587-0.63,0-9.752-4.402-5.977c-0.588-0.314-1.469-0.473-2.057-0.787c-4.402,3.931-4.695-0.786-8.512,0.473
		c-3.521,0.943,0.293,4.719-6.165,3.618c0-1.574-1.761-4.722-4.403-2.36c-1.173,0.786,0.883,2.36-0.88,3.305
		c-2.937,1.414-2.937-0.158-4.696-1.26c-0.882-0.629-2.644-2.674-4.404-2.832c-3.522-0.312-1.762,0.943-2.643,2.045
		c-2.348,2.987-2.347,1.571-5.871-0.155c-0.88,1.099,0.588,3.145-0.587,4.089c-2.643,2.203-3.521-0.787-5.282-1.889
		c-0.295,1.26-0.588,2.675-3.524,2.358c-0.293-1.258,1.469-4.718-0.587-5.661c-2.936-1.416-2.936,0.943-5.577,0.629
		c-1.47,0-3.229-1.416-4.403-1.888c-1.469,3.931-2.055,2.358-7.045,0.313c-2.348,2.045,0.881,7.078-2.642,8.809
		c-3.523,1.574-5.284-2.045-6.164-3.934c-0.882-2.2-0.882-5.504-5.579-5.188c-3.521,0.313-2.35,2.517-5.577-0.315
		c-0.588,0.315-2.349,2.203-2.935,2.203c-2.351,0.156-2.643-1.729-4.111-2.045c-5.283-1.259-2.934,2.202-5.283,3.776
		c-2.641-0.787-3.523-2.832-5.576-3.774c-3.816,1.571-0.295,5.031-2.938,7.076c-5.871-1.887-0.879-12.267-9.393-5.188
		c-5.873-4.877-2.936,2.041-7.633,0.628c-1.761-0.628-1.173-3.462-4.109-3.146c-2.348,0.472-0.879,3.302-0.879,4.246
		c0,0.788,0.586,4.248-2.643,3.775c-1.763-0.315-1.468-3.462-1.762-4.089c-0.881-2.519-4.698-7.235-7.045-2.202
		c-0.295-0.314-1.174-0.786-1.467-1.259c-2.938,0.629-0.883,2.203-2.057,3.617c-2.347-0.629-2.347-2.674-3.521-3.932
		c-4.99,1.102,0.88,6.448-3.816,8.648c-3.523-2.043,0.292-6.762-3.523-8.491c-1.763,0.786-1.762,2.045-2.054,3.146
		c-2.35-0.472-2.055-2.044-2.937-3.303c-3.816,1.102-0.586,4.561-3.816,5.977c-0.292-0.313-2.347-10.853-5.574-6.134
		c-0.296-0.315-1.177-0.63-1.471-0.944c-1.467,2.047-3.814,1.73-5.284,0c-1.174,0.473-1.76,10.384-4.989,5.189
		c-0.588-0.943-1.468-9.749-3.816-3.458c-0.293-0.473-1.762-0.944-2.055-1.416c-0.881,0.943-1.469,2.044-3.23,2.519
		c-0.88-0.785-1.467-1.73-2.643-2.36c-2.642,1.729-0.293,4.403-0.293,6.448c0,1.572-0.293,3.462-2.937,1.729
		c-2.935-1.887-0.879-6.447-2.054-8.806c-2.643,0.471-2.643,1.886-3.815,2.987c-1.469-1.26-0.881-2.832-0.881-4.248L475.031-140.801
		z"/>
</g>
</svg>
