<?xml version="1.0" encoding="utf-8"?>
<!-- Generator: Adobe Illustrator 15.1.0, SVG Export Plug-In . SVG Version: 6.00 Build 0)  -->
<!DOCTYPE svg PUBLIC "-//W3C//DTD SVG 1.1//EN" "http://www.w3.org/Graphics/SVG/1.1/DTD/svg11.dtd">
<svg version="1.1" id="Layer_1" xmlns="http://www.w3.org/2000/svg" xmlns:xlink="http://www.w3.org/1999/xlink" x="0px" y="0px"
	 width="1347px" height="59.003px" viewBox="0 0 1347 59.003" enable-background="new 0 0 1347 59.003" xml:space="preserve">
<rect y="0.003" width="1347" height="59"/>
<g>
	<path fill="#80C41C" d="M4.192-79.382c2.936-0.635-0.881,12.902-1.174,13.75c-0.587,1.479,1.762,5.076-2.349,5.076
		c-2.642,0-4.11-3.597-7.046-4.019c0,1.903,2.643,3.172-0.293,4.229c-2.936,1.06-4.696-2.114-6.752-2.537
		c-8.807-2.116,2.643,5.076,3.23,6.134c3.229,4.653-7.046,3.597-9.102,0.846c-1.175-1.269-0.293-3.384-1.466-4.865
		c-1.175-1.48-3.816-2.539-5.579-2.96c-1.467,2.114,3.229,6.77-4.403,5.499c1.468-3.597-4.109-5.923-8.22-5.499
		c0.295,1.691,3.816,3.173,1.175,4.441c-4.109,1.904-6.165-3.384-8.22-4.231c-5.577-2.748-2.642,1.904-3.229,4.232
		c-0.879,2.538-4.99,5.288-8.807,4.229c-8.22-2.326,2.642-3.594,3.523-5.499c1.175-2.327-7.045-6.136-9.981-4.865
		c-1.762,0.847,1.469,7.615-5.283,4.441c-2.349-1.057-4.111-7.402-6.752-2.961c-0.88,1.48,1.175,2.327-0.587,4.021
		c-0.879,0.635-3.229,1.058-4.403,1.271c0.292-1.905,2.348-4.231,0-6.348c-4.11-3.384-2.643,1.691-5.872,2.115
		c-2.936,0.635-5.87-4.229-8.512-2.538c-2.349,1.48,2.055,4.654-3.817,5.712c-0.294-1.904-2.936-5.5-5.577-3.174
		c-1.469,1.481,1.174,5.29,0.293,7.193c-0.88,1.903-4.696,5.076-7.338,2.538c-1.469-1.692,1.467-4.231,1.761-5.924
		c0-1.48-0.881-4.019-2.643-5.077c-4.696-2.539-1.174,2.327-4.696,2.75c-3.229,0.421-2.349-4.441-5.87-3.385
		c-2.349,0.634,0,4.23-4.698,4.654c-4.696,0.211-3.521-4.231-7.925-5.077c-6.165-1.271-5.578,4.653-5.871,7.191
		c-0.588,3.598-4.403,5.711-6.164,1.27c-0.882-2.328,0.879-8.25-4.991-8.461c-6.752-0.212,0.292,6.134-4.991,6.98
		c-4.991,0.635-1.761-4.231-3.816-5.923c-5.285-4.655-3.229,2.327-3.817,2.962c-3.229,3.596-6.457-3.597-10.568-2.751
		c-4.108,1.059-0.587,4.654-3.229,6.559c-1.468,0.846-4.403,1.48-5.577,0.212c-0.587-0.847,1.174-2.538,1.174-3.597
		c-0.293-1.058-1.174-3.384-2.935-3.807c-4.111-0.847-1.469,1.056-2.35,2.326c-0.881,1.268,0.588,2.116-2.349,2.539
		c-2.935,0.423-1.761-0.847-3.816-1.904c-3.815-2.114-5.87-2.75-7.632,0.847c-0.587,1.058-2.347,7.402-6.458,3.597
		c-2.054-1.693,2.055-4.655,0.587-6.981c-2.054-3.174-5.284-1.269-6.458,1.059c-0.882-0.848-2.35-1.481-2.937-2.328
		c0,1.058-0.88,2.538-2.348,3.173c-4.99-9.521-4.403,6.136-6.164,6.77c-7.046,1.904-0.295-11-8.808-10.152
		c-4.696,0.422-1.466,3.596-2.348,5.71c-2.349,4.653-3.522,0.212-4.99-1.692c-1.469-2.75-3.816-4.229-6.164-1.48
		c-1.47,1.692,0.88,3.596-2.645,4.653c-1.467-1.48-0.585-3.596-1.759-5.077c-2.935-2.961-4.404-0.846-4.404,1.904
		c-4.403,0.212-5.869-6.346-7.045,0.424c-1.761-0.636-2.053-3.596-4.11-3.809c-1.467-0.211-0.585,1.905-1.174,1.692h-2.642
		c-1.762,0.213-1.171-3.385-2.642,0.423c-0.587,1.27,1.175,3.174,0,4.442c-5.87,5.713-1.467-15.442-9.688-5.287
		c-1.761-4.021-4.695-0.847-4.695,1.691c-3.23,0-3.524-6.346-6.46-1.905c-1.174,1.48,1.762,6.559-1.174,7.403
		c-5.283,1.27-1.761-5.71-1.467-6.769c0.294-2.75-3.229-5.711-2.937-1.903c-6.164-0.634-3.229,6.98-7.044,1.903
		c-0.88-1.058,0.294-4.229-3.523-3.807c-3.523,0.421-0.586,3.595-4.695,3.172c-2.937-0.423-2.643-4.44-5.285-0.211
		c-0.88,1.48,0.292,6.346-3.817,4.865c-1.467-0.422-2.347-12.06-4.989-6.557c-3.231-3.598-4.404,1.902-7.045,2.96
		c-2.056-1.903-2.644-14.809-2.35-17.133L4.192-79.382z"/>
</g>
<g>
	<path fill="#2EB0CF" d="M3.653-79.496c1.174,0.454,2.055,9.417,1.761,10.551c-0.294,0.907-2.936,1.132-3.815,2.268
		c-0.588,0.907,0.586,2.268,0.293,3.176c-0.586,1.814-2.643,6.579-6.458,5.671c-1.467-0.454-3.816-6.579-4.403-8.166
		c-5.579,0.454-2.936,3.855-5.283,5.67c-0.882,0.683-4.112,1.136-5.285,0.228c-2.348-1.361,0.586-1.361,0.293-2.948
		c0-1.135,0-2.949-1.174-3.63c-2.348-1.587-2.349,0.228-4.697,0c-0.881,0-4.698-1.135-4.989-1.136c-2.35,0.682,0,2.271-2.056,2.949
		c-3.229,1.361-4.99-3.855-7.633,0.228c-1.467,2.271,2.643,5.219-1.467,7.259c-5.284,2.497-5.284-1.359-4.697-3.628
		c0.88-3.632,0.88-4.764-4.403-5.899c0.294,2.042-0.295,5.673-4.403,4.313c-1.467-0.683-2.936-9.076-7.045-4.539
		c-2.056,2.269,2.642,6.125,0.587,9.074c-1.468,2.495-6.458,3.402-8.219,0.453c-1.175-1.813,0.879-4.764-1.175-7.034
		c-4.403-4.989-3.816-0.905-4.697,2.045c-0.881,2.948-4.109,5.67-6.75,2.039c-0.588-1.134-0.295-9.526-5.872-6.354
		c-2.055,1.136-0.294,7.488-6.165,4.765c-3.816-1.814-0.587-6.58-7.045-7.03c-2.936-0.229-6.165,1.812-9.1,2.267
		c-1.761,0.227-4.716,2.148-7.519,2.753c-5.872,1.27-4.403-2.326-6.751-2.326c-2.937-0.228-1.876,0.254-3.93,1.161
		c0.292-0.226-4.991,0.68-4.698,0.68c-2.347-0.453-2.642-0.68-4.989-2.722c-3.23,1.362-0.587,3.856-1.469,6.126
		c-0.587,0.906-2.055,2.72-3.816,2.72c-2.935,0-1.761-0.905-2.642-2.493c-1.174-2.042-0.587-5.673-4.109-5.444
		c-1.761,0-1.761,2.495-2.936,2.494c-1.467,0-2.936-1.36-4.11-2.041c-0.585,1.359-1.173,2.722-2.935,3.404
		c-1.468-2.271-2.349-8.621-5.578-4.312c-0.587,0.908-0.587,8.394-4.109,7.715c-2.641-0.453-0.881-7.259-3.522-8.622
		c-3.816-2.267-5.87,0.907-9.1,2.043c-0.294-0.907-1.468-2.495-2.937-2.269c-2.053,0.226-0.587,1.588-1.762,2.042
		c-0.88,0.454-0.88,1.587-2.641,1.359c-2.054-0.227-0.88-2.04-1.762-2.494c-6.164-2.948-3.229,6.353-9.1,1.134
		c-0.293,0.907-0.879,2.723-2.054,3.404c-2.937,1.36-1.762,0-2.937-0.909c-1.467-1.361-2.347-4.99-6.458-2.495
		c-2.348,1.587-0.587,5.897-5.283,6.125c-4.403,0.228-3.523-3.856-4.698-5.898c-0.879-1.361-2.054-3.629-4.695-3.176
		c-2.35,0.454-0.882,2.722-2.35,2.949c-4.989,1.134-4.989-3.63-9.099,1.359c-3.524,3.858-2.055,2.271-6.165-0.906
		c-5.577-3.856-6.752,0.906-8.808,4.083c-2.053,3.856-3.229,2.948-4.108-0.906c-0.881-3.403-0.587-6.805-5.578-4.765
		c-1.761,0.681,0,2.494-3.229,2.494c-3.522,0-1.762-2.495-3.816-3.176c-4.696-1.132-3.816,3.63-6.752,4.991
		c-2.055-1.135-2.347-9.074-6.163-4.083c-3.524-3.175-4.403,2.495-8.808,1.362c-2.055-0.454-0.294-3.403-4.109-1.363
		c-1.467,0.455-1.468,2.042-1.761,3.178c-5.872,11.116-2.937-4.311-7.634-4.311c-2.348,0-0.88,2.269-3.229,2.496
		c-1.761,0.227-1.761-2.271-3.816-2.042c-2.347,0.453-2.934,7.258-5.871,3.856c-0.879-1.362,2.057-3.631,0.587-4.992
		c-2.934-2.722-5.576,1.361-5.871,3.178c-3.817,0-3.229-3.403-7.044-2.496c-1.467,0.226-3.229,4.99-4.11,0.226
		c-3.23,1.589-3.23,2.949-5.578-0.452c-0.587-0.906-0.88-10.323-1.175-11.003L3.653-79.496z"/>
</g>
<g>
	<path fill="#F0047F" d="M368.876-0.002c0.629,0.82,0.088,5.736-0.857,6.555c-2.203,2.459-3.15-1.092-5.356-2.048
		c-3.151,1.912-3.465,3.416-6.302,0.548c-0.316,0.272-0.631,0.547-0.945,0.682c-5.04-6.283-4.096,3.142-10.084,3.415
		c-0.944-0.957,0-5.189-3.779-4.781c-1.574,0.136-0.314,1.913-3.466,2.048c-1.892,0,0.315-1.501-2.836-0.955
		c-1.26-0.82-2.836-1.501-4.727-0.957c-5.041-1.775-4.726,2.87-5.355,3.963c-1.578,3.688-5.987,2.868-6.616-0.412
		c-0.633-2.866-1.578-5.872-5.358-1.911c-2.836,2.868-5.04,2.323-7.875-0.136c-3.469,1.912-2.207-0.956-4.414-1.366
		c-3.148-0.409-5.983,2.186-6.617,3.141c-1.259,1.366-3.15,10.381-8.19,5.191c-1.889-1.775,0.314-10.517-6.932-10.107
		c-2.835,0.137-3.467,3.278-7.562,3.142c-3.15-0.136-3.466-1.775-4.726-2.732c-3.467,1.229-2.836,3.688-6.302,4.917
		c-0.946-0.682-1.892-1.501-2.836-2.049c-1.892,2.596-3.15,0-5.041-0.135c-4.096-0.274-3.15,1.366-6.303,2.323
		c-3.78-1.503-0.945-7.923-5.986-3.962c-6.616,4.781-5.356,1.366-10.711-1.092c-2.838,0.956-6.618,2.458-7.563,3.688
		c-0.63,0.819,1.891,6.01-4.412,4.78c-4.096-0.819,0.947-5.327-4.096-5.462c-1.575,0-1.575,1.774-4.095,1.639
		c-3.151-0.272-0.315-2.048-1.575-2.731c-4.41-2.323-5.672,2.595-9.769,2.322c-4.095-0.411-0.314-4.506-6.616-1.776
		c-3.152,1.504-4.096,4.507-7.563,0.82c-1.259-1.501-1.259-4.507-5.672-1.638c-2.519,1.776,0,3.824-0.944,5.6
		c-1.892,2.594-5.672,0.819-6.301-1.366c-0.631-2.458,2.204-4.646-4.097-4.097c-1.891,0.136-0.316,1.639-3.466,0.682
		c-1.261-0.41-1.26-1.912-1.577-2.458c-1.259,0.819-2.205,0.683-4.097,0.956c-2.834,0.409-1.889-0.41-4.726,0.271
		c-1.89,0.411,0.001,1.503-2.519,1.503s-2.52-1.913-4.726-2.186c-3.782-0.272-4.097,5.306-7.562,3.121
		c-2.521-1.503,1.26-3.006-4.097-4.372c-1.889,1.229-1.575,3.278-4.411,3.962c-1.889-0.821-2.205-2.186-4.411-2.869
		c-2.206,0.956-1.891,0.978-3.467,2.07c-3.151-4.507-6.302,3.824-6.933,3.96c-6.932,2.049-3.466-7.102-9.452-3.141
		c-0.944,0.82,0,3.277-1.575,3.687c-3.78,1.229-3.869-1.384-4.41-2.321C97.365,4.1,87.596,11.339,83.816,6.559
		c-1.576,0.684-2.521,1.776-4.726,2.186c-0.946-0.957,1.26-2.596-0.63-3.416c-3.15-1.229-5.042,0.957-6.302,1.913
		c-1.576-0.41-2.52-1.093-2.837-1.913C68.692,5.6,67.117,6.01,66.802,6.283c-0.629-1.229-0.316-2.731-3.782-1.913
		c-3.15,0.684-1.26,2.459-3.15,3.415c-4.411,2.323-3.781-2.184-5.987-3.004c-0.315,0.273-2.52,1.638-3.151,1.638
		c-2.52-0.136-0.945-1.093-2.204-1.365c-2.207-0.273-0.631-1.093-3.781,0C43.171,5.6,42.855,6.419,42.541,7.24
		c-0.946,1.229,0,3.141-2.835,3.278c-5.042,0.135-4.096-2.46-4.412-3.552c-0.631-2.049-1.26-2.732-5.04-0.82
		c-4.413,2.187-3.152,1.912-6.932-0.41c-1.263-0.682,0.944-1.502-2.208-1.229c-1.89,0.274-1.89,1.64-2.836,1.913
		c-5.041,1.502-2.207-0.818-4.097-2.185c-2.204,0.82-2.834,1.912-5.04,2.459C7.565,6.01,6.304,5.055,5.989,4.098
		C0.633,8.195,3.155,0.41,0.004,0.001"/>
</g>
<g>
	<path fill="#F0047F" d="M673.112,5.056c-3.147-1.091-1.567-0.278-3.78,0c-1.256,0.271,0.323,1.226-2.199,1.362
		c-0.633,0-2.834-1.362-3.156-1.64c-2.2,0.82-1.577,5.333-5.989,3.009c-1.89-0.955,0-2.73-3.146-3.415
		c-3.465-0.82-3.153,0.685-3.777,1.911c-0.324-0.271-1.892-0.684-2.525-0.955c-0.32,0.82-1.267,1.504-2.832,1.911
		c-1.269-0.956-3.156-3.138-6.312-1.911c-1.89,0.82,0.323,2.459-0.623,3.416c-2.212-0.407-3.154-1.504-4.733-2.189
		c-3.778,4.784-13.545-2.454-15.746,1.369c-0.547,0.937-0.633,3.551-4.411,2.325c-1.578-0.414-0.633-2.873-1.578-3.693
		c-5.989-3.958-2.521,5.191-9.456,3.144c-0.622-0.135-3.779-8.471-6.923-3.958c-1.579-1.098-1.269-1.117-3.479-2.072
		c-2.199,0.685-2.511,2.046-4.4,2.867c-2.845-0.685-2.524-2.731-4.41-3.958c-5.356,1.362-1.579,2.866-4.101,4.371
		c-3.466,2.182-3.778-3.396-7.568-3.125c-2.199,0.277-2.199,2.188-4.721,2.188c-2.524,0-0.635-1.091-2.524-1.504
		c-2.833-0.684-1.889,0.136-4.721-0.271c-1.892-0.271-2.835-0.136-4.1-0.955c-0.311,0.542-0.311,2.046-1.566,2.459
		c-3.157,0.956-1.579-0.549-3.467-0.684c-6.301-0.549-3.466,1.64-4.099,4.093c-0.636,2.188-4.412,3.964-6.301,1.369
		c-0.944-1.775,1.578-3.822-0.944-5.598c-4.412-2.873-4.412,0.136-5.668,1.633c-3.478,3.693-4.411,0.685-7.567-0.82
		c-6.301-2.725-2.523,1.369-6.61,1.782c-4.101,0.271-5.367-4.648-9.78-2.324c-1.256,0.685,1.58,2.46-1.565,2.731
		c-2.523,0.136-2.523-1.64-4.1-1.64c-5.044,0.136,0,4.643-4.091,5.462c-6.311,1.233-3.789-3.958-4.422-4.777
		c-0.945-1.233-4.721-2.731-7.558-3.687c-5.355,2.453-4.098,5.869-10.71,1.091c-5.044-3.958-2.213,2.46-5.99,3.964
		c-3.146-0.962-2.2-2.596-6.299-2.325c-1.891,0.136-3.146,2.731-5.047,0.136c-0.943,0.549-1.889,1.369-2.833,2.046
		c-3.466-1.226-2.835-3.687-6.301-4.913c-1.256,0.955-1.577,2.595-4.723,2.729c-4.099,0.136-4.733-3.002-7.566-3.144
		c-7.245-0.407-5.046,8.335-6.935,10.11c-5.032,5.191-6.923-3.828-8.188-5.191c-0.635-0.955-3.468-3.551-6.612-3.144
		c-2.212,0.414-0.945,3.28-4.412,1.369c-2.833,2.46-5.044,3.002-7.879,0.136c-3.778-3.958-4.722-0.956-5.354,1.911
		c-0.634,3.28-5.045,4.1-6.623,0.414c-0.622-1.098-0.311-5.74-5.355-3.965c-1.89-0.542-3.467,0.136-4.723,0.956
		c-3.154-0.542-0.945,0.955-2.834,0.955c-3.155-0.136-1.889-1.911-3.468-2.046c-3.777-0.407-2.832,3.822-3.777,4.778
		c-5.989-0.271-5.044-9.698-10.09-3.409c-0.311-0.142-0.623-0.413-0.943-0.684c-2.835,2.866-3.146,1.362-6.302-0.549
		c-2.199,0.956-3.154,4.507-5.355,2.047c-0.944-0.82-1.481-5.733-0.858-6.553h328.305V0.001"/>
</g>
<g>
	<path fill="#F0047F" d="M1038.588-0.003c0.629,0.82,0.088,5.736-0.857,6.555c-2.203,2.459-3.15-1.092-5.356-2.048
		c-3.151,1.912-3.465,3.416-6.302,0.548c-0.316,0.272-0.631,0.547-0.945,0.682c-5.04-6.283-4.096,3.142-10.084,3.415
		c-0.944-0.957,0-5.189-3.779-4.781c-1.574,0.136-0.314,1.913-3.466,2.048c-1.892,0,0.315-1.501-2.836-0.955
		c-1.26-0.82-2.836-1.501-4.727-0.957c-5.041-1.775-4.726,2.87-5.355,3.963c-1.578,3.688-5.987,2.868-6.616-0.412
		c-0.633-2.866-1.578-5.872-5.358-1.911c-2.836,2.868-5.039,2.323-7.875-0.136c-3.469,1.912-2.206-0.956-4.414-1.366
		c-3.148-0.409-5.983,2.186-6.617,3.141c-1.259,1.366-3.149,10.381-8.19,5.191c-1.889-1.775,0.314-10.517-6.932-10.107
		c-2.835,0.137-3.468,3.278-7.562,3.142c-3.151-0.136-3.466-1.775-4.726-2.732c-3.468,1.229-2.837,3.688-6.302,4.917
		c-0.946-0.682-1.893-1.501-2.837-2.049c-1.891,2.596-3.15,0-5.039-0.135c-4.097-0.274-3.151,1.366-6.305,2.323
		c-3.779-1.503-0.944-7.923-5.984-3.962c-6.616,4.781-5.356,1.366-10.712-1.092c-2.838,0.956-6.618,2.458-7.562,3.688
		c-0.63,0.819,1.891,6.01-4.412,4.78c-4.096-0.819,0.946-5.327-4.096-5.462c-1.574,0-1.574,1.774-4.095,1.639
		c-3.152-0.272-0.315-2.048-1.576-2.731c-4.41-2.323-5.671,2.595-9.769,2.322c-4.095-0.411-0.314-4.506-6.616-1.776
		c-3.151,1.504-4.096,4.507-7.562,0.82c-1.261-1.501-1.261-4.507-5.673-1.638c-2.519,1.776,0,3.824-0.943,5.6
		c-1.893,2.594-5.674,0.819-6.303-1.366c-0.631-2.458,2.205-4.646-4.096-4.097c-1.891,0.136-0.315,1.639-3.466,0.682
		c-1.262-0.41-1.26-1.912-1.577-2.458c-1.259,0.819-2.204,0.683-4.098,0.956c-2.834,0.409-1.889-0.41-4.726,0.271
		c-1.889,0.411,0.002,1.503-2.518,1.503s-2.52-1.913-4.726-2.186c-3.783-0.272-4.098,5.306-7.562,3.121
		c-2.521-1.503,1.26-3.006-4.097-4.372c-1.89,1.229-1.575,3.278-4.411,3.962c-1.889-0.821-2.203-2.186-4.41-2.869
		c-2.206,0.956-1.891,0.978-3.466,2.07c-3.152-4.507-6.302,3.824-6.934,3.96c-6.933,2.049-3.466-7.102-9.452-3.141
		c-0.944,0.82,0,3.277-1.574,3.687c-3.78,1.229-3.87-1.384-4.411-2.321c-2.205-3.825-11.975,3.414-15.755-1.366
		c-1.575,0.684-2.521,1.776-4.725,2.186c-0.945-0.957,1.26-2.596-0.631-3.416c-3.15-1.229-5.042,0.957-6.302,1.913
		c-1.576-0.41-2.521-1.093-2.837-1.913c-0.629,0.271-2.205,0.681-2.52,0.954c-0.629-1.229-0.314-2.731-3.781-1.913
		c-3.149,0.684-1.26,2.459-3.149,3.415c-4.412,2.323-3.782-2.184-5.987-3.004c-0.315,0.273-2.521,1.638-3.151,1.638
		c-2.521-0.136-0.945-1.093-2.204-1.365c-2.207-0.273-0.631-1.093-3.781,0c-1.576,0.546-1.892,1.365-2.206,2.186
		c-0.945,1.229,0,3.141-2.835,3.278c-5.042,0.135-4.097-2.46-4.412-3.552c-0.631-2.049-1.26-2.732-5.041-0.82
		c-4.412,2.187-3.152,1.912-6.931-0.41c-1.263-0.682,0.943-1.502-2.209-1.229c-1.89,0.274-1.89,1.64-2.835,1.913
		c-5.041,1.502-2.208-0.818-4.098-2.185c-2.204,0.82-2.835,1.912-5.041,2.459c-1.574-0.684-2.836-1.639-3.15-2.596
		c-5.356,4.097-2.834-3.688-5.985-4.097"/>
</g>
<g>
	<path fill="#F0047F" d="M1347,0v10.394c-1.761-0.464-1.139-2.072-1.965-3.157c-0.312-0.82-0.633-1.64-2.211-2.182
		c-3.146-1.091-1.567-0.278-3.78,0c-1.256,0.271,0.323,1.226-2.199,1.362c-0.633,0-2.834-1.362-3.156-1.64
		c-2.2,0.82-1.577,5.333-5.989,3.009c-1.89-0.955,0-2.73-3.146-3.415c-3.465-0.82-3.153,0.685-3.777,1.911
		c-0.324-0.271-1.892-0.684-2.525-0.955c-0.32,0.82-1.267,1.504-2.832,1.911c-1.269-0.956-3.156-3.138-6.312-1.911
		c-1.89,0.82,0.323,2.459-0.622,3.416c-2.213-0.407-3.155-1.504-4.734-2.189c-3.778,4.784-13.545-2.454-15.746,1.369
		c-0.547,0.937-0.633,3.551-4.41,2.325c-1.579-0.414-0.634-2.873-1.579-3.693c-5.989-3.958-2.522,5.191-9.456,3.144
		c-0.622-0.135-3.779-8.471-6.923-3.958c-1.579-1.098-1.269-1.117-3.479-2.072c-2.198,0.685-2.511,2.046-4.4,2.867
		c-2.845-0.685-2.524-2.731-4.41-3.958c-5.356,1.362-1.579,2.866-4.101,4.371c-3.466,2.182-3.778-3.396-7.568-3.125
		c-2.199,0.277-2.199,2.188-4.721,2.188c-2.524,0-0.635-1.091-2.524-1.504c-2.833-0.684-1.889,0.136-4.721-0.271
		c-1.892-0.271-2.835-0.136-4.1-0.955c-0.311,0.542-0.311,2.046-1.566,2.459c-3.157,0.956-1.579-0.549-3.468-0.684
		c-6.3-0.549-3.465,1.64-4.098,4.093c-0.636,2.188-4.412,3.964-6.301,1.369c-0.944-1.775,1.578-3.822-0.944-5.598
		c-4.412-2.873-4.412,0.136-5.668,1.633c-3.478,3.693-4.411,0.685-7.567-0.82c-6.301-2.725-2.523,1.369-6.61,1.782
		c-4.101,0.271-5.367-4.648-9.78-2.324c-1.256,0.685,1.58,2.46-1.565,2.731c-2.523,0.136-2.523-1.64-4.1-1.64
		c-5.044,0.136,0,4.643-4.091,5.462c-6.311,1.233-3.789-3.958-4.422-4.777c-0.945-1.233-4.721-2.731-7.558-3.687
		c-5.354,2.453-4.097,5.869-10.71,1.091c-5.044-3.958-2.213,2.46-5.99,3.964c-3.146-0.962-2.199-2.596-6.299-2.325
		c-1.891,0.136-3.146,2.731-5.047,0.136c-0.943,0.549-1.889,1.369-2.833,2.046c-3.466-1.226-2.835-3.687-6.301-4.913
		c-1.256,0.955-1.577,2.595-4.723,2.729c-4.099,0.136-4.733-3.002-7.566-3.144c-7.245-0.407-5.046,8.335-6.935,10.11
		c-5.032,5.191-6.923-3.828-8.188-5.191c-0.634-0.955-3.468-3.551-6.612-3.144c-2.212,0.414-0.945,3.28-4.412,1.369
		c-2.833,2.46-5.044,3.002-7.879,0.136c-3.777-3.958-4.721-0.956-5.354,1.911c-0.634,3.28-5.045,4.1-6.623,0.414
		c-0.622-1.098-0.311-5.74-5.355-3.965c-1.89-0.542-3.467,0.136-4.723,0.956c-3.154-0.542-0.945,0.955-2.834,0.955
		c-3.155-0.136-1.889-1.911-3.468-2.046c-3.777-0.407-2.832,3.822-3.777,4.778c-5.989-0.271-5.044-9.698-10.09-3.409
		c-0.311-0.142-0.623-0.413-0.943-0.684c-2.834,2.866-3.146,1.362-6.302-0.549c-2.199,0.956-3.154,4.507-5.355,2.047
		c-0.944-0.82-1.481-5.733-0.858-6.553L1347,0L1347,0z"/>
</g>
<g>
	<path fill="#CCE70B" d="M4.304-79.702c0.294,0-0.294,2.045-1.174,3.303c-1.174,1.416-0.881,2.518-1.762,4.09
		c-2.642,5.504-4.109-2.518-5.871-3.773c-1.762,0.785-1.762,2.358-4.11,3.144c-2.054-1.571-1.467-3.616-5.578-4.089
		c0.88,0.944-2.054,7.235-5.578,7.235c-4.696,0-0.88-2.202-1.174-2.989c-0.293-1.572-1.761-2.673-4.403-3.617
		c-2.936,1.731-0.294,6.606-7.926,5.033c2.642-2.045,0.587-5.033-3.229-6.133c-2.054,1.101-0.882,2.673-2.054,3.775
		c-2.643,2.2-2.642,0.785-4.698-0.473c-7.925-5.033-0.586,2.673-8.22,2.831c-0.587-0.785,0-2.201-0.879-2.988
		c-2.643-2.673-2.054-0.472-3.815,0.63c-5.285,3.303-3.817-2.831-10.862-2.202c0.292,0.629,2.347,2.675,1.174,3.304
		c-2.349,1.414-4.111-1.731-5.873-1.888c-4.108-0.315-2.055,4.089-7.045,3.616c0-1.573,1.762-3.773-2.642-3.932
		c-1.762-0.157-2.641,1.259-4.696,1.102c-1.762-0.157-4.111-1.888-5.579-2.358c0.294,0.785,3.817,3.773,0,3.615
		c-2.349-0.155-3.815-2.671-4.99-3.458c-4.403,2.202,4.109,8.807-2.35,10.537c-2.348-3.303,0.295-7.862-3.521-11.01
		c-2.349,1.573-0.586,9.438-3.228,10.067c-3.817,0.627-4.99-6.92-6.459-8.494c-2.054,0.629,0,5.19-3.522,4.875
		c-1.468-0.157-1.762-3.617-2.054-4.56c-0.587-0.787-0.587-2.359-2.643-2.202c-2.055,0-0.881,1.573-1.468,2.044
		c-3.228,1.886-4.403,0.787-7.044-0.944c-0.88,1.416,1.467,2.989,0.586,4.562c-1.173,2.2-3.522,2.359-4.696,0.472
		c-0.587-0.63,0-9.752-4.402-5.977c-0.588-0.314-1.469-0.473-2.057-0.787c-4.402,3.931-4.696-0.786-8.512,0.473
		c-3.522,0.943,0.293,4.719-6.165,3.618c0-1.574-1.761-4.721-4.403-2.36c-1.173,0.786,0.882,2.36-0.88,3.304
		c-2.937,1.415-2.937-0.158-4.697-1.259c-0.881-0.629-2.643-2.674-4.404-2.832c-3.522-0.313-1.761,0.943-2.642,2.044
		c-2.348,2.988-2.347,1.572-5.871-0.155c-0.88,1.099,0.587,3.145-0.587,4.089c-2.643,2.203-3.521-0.787-5.283-1.888
		c-0.294,1.259-0.588,2.674-3.524,2.358c-0.293-1.258,1.469-4.718-0.587-5.662c-2.936-1.415-2.935,0.944-5.577,0.629
		c-1.469,0-3.229-1.416-4.403-1.887c-1.469,3.931-2.055,2.358-7.045,0.314c-2.348,2.044,0.88,7.077-2.642,8.808
		c-3.523,1.574-5.284-2.045-6.164-3.933c-0.881-2.201-0.881-5.505-5.579-5.189c-3.522,0.314-2.349,2.516-5.577-0.315
		c-0.588,0.315-2.349,2.202-2.935,2.203c-2.35,0.156-2.642-1.73-4.111-2.045c-5.283-1.259-2.933,2.202-5.283,3.776
		c-2.641-0.787-3.523-2.832-5.577-3.775c-3.816,1.572-0.294,5.032-2.937,7.077c-5.871-1.887-0.879-12.267-9.392-5.188
		c-5.873-4.877-2.936,2.042-7.633,0.628c-1.761-0.628-1.173-3.461-4.11-3.146c-2.347,0.472-0.879,3.302-0.879,4.246
		c0,0.788,0.586,4.248-2.642,3.775c-1.763-0.315-1.468-3.462-1.762-4.089c-0.881-2.518-4.698-7.235-7.045-2.202
		c-0.294-0.314-1.173-0.786-1.467-1.258c-2.937,0.629-0.882,2.202-2.056,3.617c-2.347-0.629-2.347-2.674-3.522-3.932
		c-4.99,1.101,0.88,6.448-3.816,8.648c-3.523-2.043,0.292-6.762-3.524-8.491c-1.762,0.787-1.761,2.045-2.053,3.146
		c-2.35-0.472-2.055-2.044-2.937-3.303c-3.816,1.101-0.585,4.561-3.816,5.976c-0.292-0.313-2.347-10.852-5.575-6.133
		c-0.295-0.315-1.176-0.63-1.47-0.944c-1.467,2.046-3.814,1.73-5.284,0c-1.174,0.472-1.76,10.383-4.989,5.189
		c-0.588-0.943-1.468-9.749-3.817-3.458c-0.293-0.473-1.762-0.944-2.055-1.416c-0.881,0.943-1.469,2.044-3.23,2.518
		c-0.88-0.785-1.467-1.73-2.642-2.36c-2.642,1.729-0.293,4.404-0.293,6.448c0,1.573-0.294,3.462-2.937,1.729
		c-2.934-1.887-0.879-6.448-2.054-8.806c-2.642,0.471-2.642,1.886-3.815,2.987c-1.469-1.259-0.881-2.832-0.881-4.247L4.304-79.702z"
		/>
</g>
</svg>
