<?xml version="1.0" encoding="UTF-8" standalone="no"?>
<!DOCTYPE svg PUBLIC "-//W3C//DTD SVG 1.1//EN" "http://www.w3.org/Graphics/SVG/1.1/DTD/svg11.dtd">
<svg width="100%" height="100%" viewBox="0 0 100 80" version="1.1" xmlns="http://www.w3.org/2000/svg" xmlns:xlink="http://www.w3.org/1999/xlink" xml:space="preserve" xmlns:serif="http://www.serif.com/" style="fill-rule:evenodd;clip-rule:evenodd;stroke-linejoin:round;stroke-miterlimit:2;">
    <g>
        <g transform="matrix(0.997534,0,0,0.998607,0.246619,0.569617)">
            <rect x="-0.445" y="-0.347" width="100.441" height="80.063"/>
        </g>
        <g transform="matrix(0.0990124,0,0,0.0990124,-0.694338,-10.6928)">
            <path d="M695.53,695.54L618.29,695.54L618.29,574.54C618.29,545.69 617.77,508.54 578.11,508.54C537.88,508.54 531.72,539.97 531.72,572.42L531.72,695.53L454.48,695.53L454.48,446.77L528.63,446.77L528.63,480.77L529.63,480.77C544.731,454.953 572.911,439.479 602.8,440.59C681.09,440.59 695.53,492.09 695.53,559.08L695.53,695.54ZM367.32,412.76C367.317,412.76 367.313,412.76 367.31,412.76C342.717,412.76 322.48,392.523 322.48,367.93C322.48,343.337 342.717,323.1 367.31,323.1C391.903,323.1 412.14,343.337 412.14,367.93C412.14,392.519 391.909,412.755 367.32,412.76M405.94,695.53L328.62,695.53L328.62,446.77L405.95,446.77L405.94,695.53ZM734,251.38L289.8,251.38C289.646,251.378 289.492,251.377 289.338,251.377C268.634,251.377 251.546,268.297 251.34,289L251.34,735C251.585,755.866 268.944,772.841 289.81,772.62L734,772.62C754.922,772.902 772.371,755.922 772.66,735L772.66,288.92C772.36,268.011 754.909,251.052 734,251.35" style="fill:white;fill-rule:nonzero;"/>
        </g>
    </g>
</svg>
