<?xml version="1.0" encoding="utf-8"?>
<!-- Generator: Adobe Illustrator 15.1.0, SVG Export Plug-In . SVG Version: 6.00 Build 0)  -->
<!DOCTYPE svg PUBLIC "-//W3C//DTD SVG 1.1//EN" "http://www.w3.org/Graphics/SVG/1.1/DTD/svg11.dtd">
<svg version="1.1" id="Layer_1" xmlns="http://www.w3.org/2000/svg" xmlns:xlink="http://www.w3.org/1999/xlink" x="0px" y="0px"
	 width="238.759px" height="90.697px" viewBox="0 0 238.759 90.697" enable-background="new 0 0 238.759 90.697"
	 xml:space="preserve">
<g id="XMLID_9_">
	<path id="XMLID_23_" fill="#F43066" d="M143.869,38.215h-33.447c-2.045,0-3.703,1.657-3.703,3.704v33.446
		c0,2.046,1.658,3.703,3.703,3.703h33.447c2.046,0,3.703-1.657,3.703-3.703V41.919C147.572,39.872,145.915,38.215,143.869,38.215z"
		/>
	<path id="XMLID_14_" fill="#F43066" d="M164.083,69.931h3.91V52.868h-3.91V69.931z M178.366,59.848
		c-2.003-0.646-3.846-1.163-3.846-2.391v-0.065c0-1.002,0.873-1.713,2.393-1.713c0.739,0,1.568,0.17,2.425,0.471v-0.001
		c0,0,0.009,0.003,0.025,0.011c0.073,0.026,0.147,0.055,0.223,0.084c0.618,0.195,2.287,0.457,3.692-1.727
		c-1.81-1.195-4.135-1.939-6.27-1.939c-3.393,0-6.074,1.971-6.074,5.202v0.065c0,3.264,2.812,4.298,5.331,5.009
		c2.004,0.613,3.813,1.065,3.813,2.391v0.063c0,1.133-0.969,1.844-2.649,1.844c-1.117,0-2.341-0.295-3.56-0.869
		c-0.352-0.148-2.176-0.772-3.736,1.447c2.126,1.66,4.789,2.523,7.2,2.523c3.553,0,6.333-1.776,6.333-5.363v-0.064
		C183.667,61.755,180.854,60.623,178.366,59.848z M153.42,65.405l-4.588-12.537h-4.201l7.014,17.191h3.521l6.979-17.191h-4.103
		L153.42,65.405z M201.825,52.513c-5.233,0-9.113,4.039-9.113,8.951c0,4.879,3.847,8.854,9.049,8.854
		c5.269,0,9.146-4.039,9.146-8.918C210.906,56.488,207.059,52.513,201.825,52.513z M201.825,66.926
		c-3.037,0-5.202-2.489-5.202-5.526c0-3.005,2.003-5.461,5.138-5.461c3.069,0,5.234,2.487,5.234,5.525
		C206.995,64.469,204.991,66.926,201.825,66.926z M222.506,52.513c-2.651,0-4.234,1.389-5.333,3.005v-2.649h-3.91v17.062h3.91V60.3
		c0-2.65,1.583-4.232,3.846-4.232c2.327,0,3.651,1.519,3.651,4.168v9.695h3.91V59.073C228.581,55.099,226.351,52.513,222.506,52.513
		z M186.25,69.931h3.91V52.868h-3.91V69.931z"/>
	<path id="XMLID_11_" fill="#FFFFFF" d="M120.372,51.067c1.358,0,2.496-1.064,2.496-2.459c0-1.394-1.138-2.458-2.496-2.458
		s-2.496,1.064-2.496,2.458C117.875,50.003,119.013,51.067,120.372,51.067z"/>
	<path id="XMLID_13_" fill="#FFFFFF" d="M115.197,64.237c-0.146,0.623-0.22,1.297-0.22,1.848c0,2.166,1.174,3.604,3.67,3.604
		c2.07,0,3.748-1.229,4.957-3.215l-0.739,2.962h4.11l2.349-9.423c0.587-2.385,1.726-3.623,3.451-3.623
		c1.357,0,2.202,0.846,2.202,2.238c0,0.404-0.037,0.845-0.185,1.322l-1.21,4.329c-0.185,0.624-0.258,1.249-0.258,1.836
		c0,2.056,1.211,3.56,3.743,3.56c2.165,0,3.891-1.394,4.845-4.734l-1.614-0.623c-0.808,2.238-1.505,2.643-2.056,2.643
		s-0.844-0.367-0.844-1.102c0-0.328,0.073-0.696,0.184-1.138l1.174-4.218c0.293-0.991,0.404-1.871,0.404-2.678
		c0-3.156-1.909-4.804-4.221-4.804c-2.165,0-4.368,1.953-5.469,4.009l0.807-3.689h-6.275l-0.881,3.25h2.936l-1.807,7.239
		c-1.42,3.155-4.029,3.206-4.355,3.134c-0.538-0.121-0.882-0.325-0.882-1.023c0-0.403,0.074-0.981,0.257-1.68l2.753-10.92h-6.973
		l-0.881,3.25h2.899L115.197,64.237z"/>
</g>
<g>
	<path d="M14.499,17.179l3.456,9.666l3.42-9.666h2.609l-4.985,12.78h-2.088l-5.022-12.78H14.499z"/>
	<path d="M25.083,19.213v-2.394h2.412v2.394H25.083z M25.083,29.959v-9.432h2.412v9.432H25.083z"/>
	<path d="M34.028,30.139c-0.756,0-1.439-0.129-2.052-0.387s-1.134-0.608-1.566-1.053c-0.432-0.444-0.765-0.96-0.998-1.548
		c-0.234-0.588-0.352-1.206-0.352-1.854c0-0.672,0.114-1.305,0.342-1.898c0.229-0.595,0.559-1.116,0.99-1.566
		s0.957-0.807,1.575-1.071c0.618-0.264,1.311-0.396,2.079-0.396c0.768,0,1.455,0.132,2.061,0.396
		c0.606,0.265,1.122,0.618,1.548,1.062c0.426,0.443,0.75,0.96,0.973,1.548c0.222,0.588,0.333,1.2,0.333,1.836
		c0,0.156-0.003,0.306-0.01,0.45c-0.006,0.144-0.021,0.264-0.045,0.359h-7.29c0.036,0.372,0.126,0.702,0.271,0.99
		c0.144,0.288,0.33,0.534,0.558,0.738c0.229,0.204,0.486,0.36,0.774,0.468c0.288,0.108,0.588,0.162,0.899,0.162
		c0.48,0,0.934-0.117,1.359-0.351c0.426-0.234,0.717-0.543,0.873-0.928l2.07,0.576c-0.349,0.72-0.903,1.312-1.665,1.773
		C35.993,29.908,35.083,30.139,34.028,30.139z M36.476,24.451c-0.061-0.708-0.321-1.275-0.783-1.701s-1.022-0.639-1.683-0.639
		c-0.324,0-0.627,0.057-0.909,0.171s-0.531,0.272-0.747,0.477s-0.393,0.45-0.531,0.738c-0.138,0.288-0.219,0.606-0.242,0.954H36.476
		z"/>
	<path d="M51.866,20.527h2.304l-3.941,9.432h-1.98l-1.62-4.14l-1.602,4.14h-1.98l-3.941-9.432h2.286l2.808,7.164l1.152-3.061
		l-1.656-4.086h1.944l0.989,2.898l1.008-2.898h1.944l-1.638,4.086l1.134,3.061L51.866,20.527z"/>
	<path d="M64.79,29.473c-0.324,0.145-0.723,0.288-1.197,0.433c-0.474,0.144-0.969,0.216-1.484,0.216
		c-0.337,0-0.651-0.042-0.945-0.126s-0.552-0.219-0.774-0.405c-0.222-0.186-0.398-0.426-0.53-0.72
		c-0.133-0.294-0.198-0.651-0.198-1.071v-5.418h-1.224v-1.854h1.224v-3.061h2.412v3.061h1.998v1.854h-1.998v4.608
		c0,0.336,0.09,0.573,0.27,0.711c0.181,0.138,0.396,0.207,0.648,0.207s0.498-0.042,0.738-0.126c0.239-0.084,0.432-0.156,0.575-0.216
		L64.79,29.473z"/>
	<path d="M74.761,29.959h-2.412v-5.292c0-0.744-0.138-1.293-0.414-1.647c-0.275-0.354-0.666-0.53-1.17-0.53
		c-0.216,0-0.443,0.048-0.684,0.144c-0.24,0.097-0.468,0.231-0.684,0.405c-0.217,0.174-0.414,0.381-0.595,0.621
		c-0.18,0.24-0.312,0.504-0.396,0.792v5.508h-2.412v-13.14h2.412v5.454c0.348-0.612,0.818-1.083,1.413-1.413
		c0.594-0.33,1.251-0.495,1.971-0.495c0.612,0,1.109,0.104,1.494,0.314c0.384,0.21,0.684,0.489,0.899,0.837
		c0.217,0.349,0.366,0.744,0.45,1.188s0.126,0.9,0.126,1.368V29.959z"/>
	<path d="M81.223,30.139c-0.756,0-1.439-0.129-2.052-0.387s-1.134-0.608-1.566-1.053c-0.432-0.444-0.765-0.96-0.998-1.548
		c-0.234-0.588-0.352-1.206-0.352-1.854c0-0.672,0.114-1.305,0.342-1.898c0.229-0.595,0.559-1.116,0.99-1.566
		s0.957-0.807,1.575-1.071c0.618-0.264,1.311-0.396,2.079-0.396c0.768,0,1.455,0.132,2.061,0.396
		c0.606,0.265,1.122,0.618,1.548,1.062c0.426,0.443,0.75,0.96,0.973,1.548c0.222,0.588,0.333,1.2,0.333,1.836
		c0,0.156-0.003,0.306-0.01,0.45c-0.006,0.144-0.021,0.264-0.045,0.359h-7.29c0.036,0.372,0.126,0.702,0.271,0.99
		c0.144,0.288,0.33,0.534,0.558,0.738c0.229,0.204,0.486,0.36,0.774,0.468c0.288,0.108,0.588,0.162,0.899,0.162
		c0.48,0,0.934-0.117,1.359-0.351c0.426-0.234,0.717-0.543,0.873-0.928l2.07,0.576c-0.349,0.72-0.903,1.312-1.665,1.773
		C83.188,29.908,82.279,30.139,81.223,30.139z M83.671,24.451c-0.061-0.708-0.321-1.275-0.783-1.701s-1.022-0.639-1.683-0.639
		c-0.324,0-0.627,0.057-0.909,0.171s-0.531,0.272-0.747,0.477s-0.393,0.45-0.531,0.738c-0.138,0.288-0.219,0.606-0.242,0.954H83.671
		z"/>
	<path d="M92.185,29.959v-12.78h5.418c0.588,0,1.131,0.123,1.629,0.369s0.927,0.57,1.287,0.972c0.36,0.402,0.642,0.858,0.846,1.368
		c0.204,0.511,0.307,1.023,0.307,1.539c0,0.54-0.097,1.065-0.288,1.575c-0.192,0.51-0.462,0.963-0.811,1.359
		c-0.348,0.396-0.768,0.714-1.26,0.954c-0.492,0.239-1.032,0.359-1.62,0.359h-3.023v4.284H92.185z M94.669,23.497h2.88
		c0.456,0,0.837-0.186,1.143-0.558s0.459-0.876,0.459-1.513c0-0.324-0.048-0.614-0.144-0.873c-0.097-0.258-0.223-0.477-0.378-0.656
		c-0.156-0.181-0.34-0.315-0.55-0.405s-0.423-0.135-0.639-0.135h-2.771V23.497z"/>
	<path d="M108.727,22.615c-0.732,0.012-1.387,0.152-1.962,0.423c-0.576,0.27-0.99,0.675-1.242,1.215v5.706h-2.412v-9.432h2.214
		v2.016c0.324-0.648,0.747-1.17,1.27-1.566c0.521-0.396,1.07-0.594,1.646-0.594c0.132,0,0.23,0.003,0.297,0.009
		c0.066,0.007,0.129,0.016,0.189,0.027V22.615z"/>
	<path d="M114.199,30.139c-0.769,0-1.458-0.132-2.07-0.396c-0.611-0.264-1.131-0.621-1.557-1.071s-0.753-0.969-0.981-1.557
		c-0.228-0.588-0.342-1.206-0.342-1.854c0-0.659,0.114-1.283,0.342-1.872c0.229-0.588,0.556-1.106,0.981-1.557
		s0.945-0.807,1.557-1.071c0.612-0.264,1.302-0.396,2.07-0.396c0.768,0,1.455,0.132,2.061,0.396
		c0.606,0.265,1.122,0.621,1.549,1.071c0.426,0.45,0.752,0.969,0.98,1.557c0.228,0.589,0.342,1.213,0.342,1.872
		c0,0.648-0.114,1.267-0.342,1.854c-0.229,0.588-0.552,1.106-0.972,1.557c-0.421,0.45-0.937,0.808-1.548,1.071
		C115.657,30.007,114.966,30.139,114.199,30.139z M111.733,25.261c0,0.421,0.062,0.801,0.188,1.144
		c0.126,0.342,0.3,0.639,0.522,0.891c0.222,0.252,0.482,0.447,0.783,0.585c0.3,0.139,0.623,0.207,0.972,0.207
		c0.348,0,0.672-0.068,0.972-0.207c0.3-0.138,0.561-0.333,0.783-0.585c0.222-0.252,0.396-0.552,0.522-0.9
		c0.126-0.348,0.188-0.731,0.188-1.151c0-0.408-0.062-0.786-0.188-1.134c-0.126-0.349-0.301-0.648-0.522-0.9
		c-0.223-0.252-0.483-0.447-0.783-0.585s-0.624-0.207-0.972-0.207c-0.349,0-0.672,0.072-0.972,0.216
		c-0.301,0.145-0.562,0.342-0.783,0.594c-0.223,0.252-0.396,0.553-0.522,0.9C111.795,24.476,111.733,24.854,111.733,25.261z"/>
	<path d="M126.241,29.473c-0.324,0.145-0.723,0.288-1.197,0.433c-0.474,0.144-0.969,0.216-1.484,0.216
		c-0.337,0-0.651-0.042-0.945-0.126s-0.552-0.219-0.774-0.405c-0.222-0.186-0.398-0.426-0.53-0.72
		c-0.133-0.294-0.198-0.651-0.198-1.071v-5.418h-1.224v-1.854h1.224v-3.061h2.412v3.061h1.998v1.854h-1.998v4.608
		c0,0.336,0.09,0.573,0.27,0.711c0.181,0.138,0.396,0.207,0.648,0.207s0.498-0.042,0.738-0.126c0.239-0.084,0.432-0.156,0.575-0.216
		L126.241,29.473z"/>
	<path d="M131.677,30.139c-0.769,0-1.458-0.132-2.07-0.396c-0.611-0.264-1.131-0.621-1.557-1.071s-0.753-0.969-0.981-1.557
		c-0.228-0.588-0.342-1.206-0.342-1.854c0-0.659,0.114-1.283,0.342-1.872c0.229-0.588,0.556-1.106,0.981-1.557
		s0.945-0.807,1.557-1.071c0.612-0.264,1.302-0.396,2.07-0.396c0.768,0,1.455,0.132,2.061,0.396
		c0.606,0.265,1.122,0.621,1.549,1.071c0.426,0.45,0.752,0.969,0.98,1.557c0.228,0.589,0.342,1.213,0.342,1.872
		c0,0.648-0.114,1.267-0.342,1.854c-0.229,0.588-0.552,1.106-0.972,1.557c-0.421,0.45-0.937,0.808-1.548,1.071
		C133.135,30.007,132.445,30.139,131.677,30.139z M129.211,25.261c0,0.421,0.062,0.801,0.188,1.144
		c0.126,0.342,0.3,0.639,0.522,0.891c0.222,0.252,0.482,0.447,0.783,0.585c0.3,0.139,0.623,0.207,0.972,0.207
		c0.348,0,0.672-0.068,0.972-0.207c0.3-0.138,0.561-0.333,0.783-0.585c0.222-0.252,0.396-0.552,0.522-0.9
		c0.126-0.348,0.188-0.731,0.188-1.151c0-0.408-0.062-0.786-0.188-1.134c-0.126-0.349-0.301-0.648-0.522-0.9
		c-0.223-0.252-0.483-0.447-0.783-0.585s-0.624-0.207-0.972-0.207c-0.349,0-0.672,0.072-0.972,0.216
		c-0.301,0.145-0.562,0.342-0.783,0.594c-0.223,0.252-0.396,0.553-0.522,0.9C129.274,24.476,129.211,24.854,129.211,25.261z"/>
	<path d="M143.718,29.473c-0.324,0.145-0.723,0.288-1.197,0.433c-0.474,0.144-0.969,0.216-1.484,0.216
		c-0.337,0-0.651-0.042-0.945-0.126s-0.552-0.219-0.774-0.405c-0.222-0.186-0.398-0.426-0.53-0.72
		c-0.133-0.294-0.198-0.651-0.198-1.071v-5.418h-1.224v-1.854h1.224v-3.061H141v3.061h1.998v1.854H141v4.608
		c0,0.336,0.09,0.573,0.27,0.711c0.181,0.138,0.396,0.207,0.648,0.207s0.498-0.042,0.738-0.126c0.239-0.084,0.432-0.156,0.575-0.216
		L143.718,29.473z"/>
	<path d="M144.997,31.795c0.216,0.06,0.414,0.102,0.594,0.126c0.181,0.024,0.336,0.036,0.468,0.036c0.156,0,0.294-0.027,0.414-0.081
		s0.237-0.153,0.352-0.297c0.113-0.145,0.228-0.345,0.342-0.604c0.114-0.258,0.236-0.597,0.369-1.017l-3.744-9.432h2.484
		l2.573,7.344l2.269-7.344h2.268l-3.978,11.304c-0.252,0.72-0.654,1.274-1.206,1.665c-0.553,0.39-1.194,0.585-1.926,0.585
		c-0.421,0-0.847-0.066-1.278-0.198V31.795z"/>
	<path d="M160.296,30.139c-0.732,0-1.374-0.165-1.926-0.495c-0.552-0.329-0.984-0.776-1.296-1.341v5.49h-2.412V20.527h2.105v1.62
		c0.349-0.553,0.799-0.987,1.351-1.306c0.552-0.317,1.188-0.477,1.908-0.477c0.636,0,1.224,0.129,1.764,0.387
		s1.005,0.606,1.395,1.044c0.391,0.438,0.696,0.954,0.919,1.548c0.222,0.594,0.332,1.222,0.332,1.881
		c0,0.685-0.102,1.326-0.306,1.927c-0.204,0.6-0.489,1.122-0.854,1.565c-0.366,0.444-0.805,0.792-1.314,1.044
		S160.896,30.139,160.296,30.139z M159.504,28.087c0.36,0,0.693-0.078,0.999-0.234c0.306-0.155,0.567-0.365,0.783-0.63
		c0.216-0.264,0.384-0.569,0.504-0.918c0.12-0.348,0.18-0.708,0.18-1.08c0-0.396-0.065-0.765-0.197-1.106
		c-0.133-0.342-0.315-0.64-0.55-0.892c-0.233-0.252-0.51-0.449-0.827-0.594c-0.318-0.144-0.664-0.216-1.035-0.216
		c-0.229,0-0.463,0.039-0.702,0.117c-0.24,0.078-0.462,0.188-0.666,0.333c-0.204,0.144-0.387,0.312-0.549,0.504
		s-0.285,0.402-0.369,0.63v2.214c0.216,0.54,0.546,0.987,0.99,1.341C158.508,27.91,158.989,28.087,159.504,28.087z"/>
	<path d="M170.43,30.139c-0.756,0-1.439-0.129-2.052-0.387s-1.134-0.608-1.566-1.053c-0.432-0.444-0.765-0.96-0.998-1.548
		c-0.234-0.588-0.352-1.206-0.352-1.854c0-0.672,0.114-1.305,0.342-1.898c0.229-0.595,0.559-1.116,0.99-1.566
		s0.957-0.807,1.575-1.071c0.618-0.264,1.311-0.396,2.079-0.396c0.768,0,1.455,0.132,2.061,0.396
		c0.606,0.265,1.122,0.618,1.548,1.062c0.426,0.443,0.75,0.96,0.973,1.548c0.222,0.588,0.333,1.2,0.333,1.836
		c0,0.156-0.003,0.306-0.01,0.45c-0.006,0.144-0.021,0.264-0.045,0.359h-7.29c0.036,0.372,0.126,0.702,0.271,0.99
		c0.144,0.288,0.33,0.534,0.558,0.738c0.229,0.204,0.486,0.36,0.774,0.468c0.288,0.108,0.588,0.162,0.899,0.162
		c0.48,0,0.934-0.117,1.359-0.351c0.426-0.234,0.717-0.543,0.873-0.928l2.07,0.576c-0.349,0.72-0.903,1.312-1.665,1.773
		C172.395,29.908,171.486,30.139,170.43,30.139z M172.878,24.451c-0.061-0.708-0.321-1.275-0.783-1.701s-1.022-0.639-1.683-0.639
		c-0.324,0-0.627,0.057-0.909,0.171s-0.531,0.272-0.747,0.477s-0.393,0.45-0.531,0.738c-0.138,0.288-0.219,0.606-0.242,0.954
		H172.878z"/>
</g>
<g>
	<path d="M23.642,51.354v-8.46l-3.294,6.3h-1.35l-3.294-6.3v8.46H13.22v-12.78h2.664l3.78,7.272l3.815-7.272h2.646v12.78H23.642z"/>
	<path d="M31.13,51.534c-0.456,0-0.882-0.075-1.278-0.225c-0.396-0.15-0.737-0.36-1.025-0.63c-0.288-0.271-0.513-0.585-0.675-0.945
		s-0.243-0.756-0.243-1.188c0-0.444,0.099-0.855,0.297-1.233s0.474-0.699,0.828-0.963c0.354-0.264,0.776-0.471,1.269-0.621
		s1.032-0.225,1.62-0.225c0.42,0,0.831,0.035,1.233,0.107c0.401,0.072,0.759,0.174,1.07,0.307v-0.54c0-0.624-0.177-1.104-0.53-1.44
		c-0.354-0.336-0.88-0.504-1.575-0.504c-0.504,0-0.996,0.09-1.477,0.27c-0.479,0.181-0.972,0.444-1.476,0.792l-0.738-1.529
		c1.212-0.804,2.521-1.206,3.925-1.206c1.355,0,2.408,0.333,3.158,0.999s1.125,1.629,1.125,2.889v2.934
		c0,0.253,0.048,0.433,0.145,0.54c0.096,0.108,0.264,0.169,0.504,0.181v2.052c-0.229,0.048-0.441,0.081-0.639,0.099
		c-0.198,0.019-0.369,0.027-0.514,0.027c-0.456-0.012-0.804-0.117-1.044-0.315c-0.24-0.197-0.39-0.465-0.45-0.801l-0.054-0.521
		c-0.42,0.552-0.93,0.972-1.53,1.26C32.457,51.391,31.815,51.534,31.13,51.534z M31.815,49.771c0.407,0,0.794-0.072,1.16-0.216
		c0.366-0.145,0.651-0.336,0.855-0.576c0.264-0.204,0.396-0.432,0.396-0.684v-1.08c-0.287-0.108-0.6-0.195-0.936-0.262
		c-0.336-0.065-0.66-0.099-0.972-0.099c-0.624,0-1.135,0.142-1.53,0.423c-0.396,0.282-0.594,0.639-0.594,1.071
		c0,0.408,0.155,0.747,0.468,1.017C30.974,49.636,31.358,49.771,31.815,49.771z"/>
	<path d="M42.848,51.534c-0.648,0-1.245-0.126-1.791-0.378c-0.547-0.252-1.018-0.6-1.413-1.044
		c-0.396-0.443-0.705-0.963-0.927-1.557c-0.223-0.594-0.333-1.233-0.333-1.917c0-0.685,0.104-1.32,0.314-1.908
		s0.501-1.104,0.873-1.548s0.816-0.792,1.332-1.044s1.08-0.378,1.692-0.378c0.684,0,1.305,0.168,1.862,0.504
		c0.559,0.336,0.993,0.773,1.306,1.313v-5.363h2.412v10.367c0,0.253,0.047,0.433,0.144,0.54c0.096,0.108,0.264,0.169,0.504,0.181
		v2.052c-0.456,0.084-0.84,0.126-1.152,0.126c-0.443-0.012-0.789-0.114-1.034-0.306c-0.246-0.192-0.399-0.462-0.459-0.811
		l-0.055-0.647c-0.348,0.6-0.815,1.053-1.403,1.358C44.131,51.382,43.507,51.534,42.848,51.534z M43.478,49.482
		c0.228,0,0.462-0.039,0.702-0.117c0.239-0.078,0.462-0.188,0.666-0.333c0.203-0.144,0.39-0.312,0.558-0.504
		c0.168-0.191,0.294-0.401,0.378-0.63v-2.25c-0.204-0.528-0.537-0.966-0.999-1.313c-0.462-0.349-0.945-0.522-1.449-0.522
		c-0.359,0-0.692,0.078-0.999,0.234c-0.306,0.155-0.566,0.368-0.782,0.639c-0.217,0.27-0.385,0.579-0.505,0.927
		c-0.12,0.349-0.18,0.708-0.18,1.08c0,0.396,0.066,0.763,0.198,1.098c0.132,0.337,0.314,0.631,0.549,0.883s0.51,0.449,0.828,0.594
		C42.76,49.41,43.106,49.482,43.478,49.482z"/>
	<path d="M55.015,51.534c-0.756,0-1.439-0.129-2.052-0.387s-1.134-0.608-1.566-1.053c-0.432-0.444-0.765-0.96-0.998-1.548
		c-0.234-0.588-0.352-1.206-0.352-1.854c0-0.672,0.114-1.305,0.342-1.898c0.229-0.595,0.559-1.116,0.99-1.566
		s0.957-0.807,1.575-1.071c0.618-0.264,1.311-0.396,2.079-0.396c0.768,0,1.455,0.132,2.061,0.396
		c0.606,0.265,1.122,0.618,1.548,1.062c0.426,0.443,0.75,0.96,0.973,1.548c0.222,0.588,0.333,1.2,0.333,1.836
		c0,0.156-0.003,0.306-0.01,0.45c-0.006,0.144-0.021,0.264-0.045,0.359h-7.29c0.036,0.372,0.126,0.702,0.271,0.99
		c0.144,0.288,0.33,0.534,0.558,0.738c0.229,0.204,0.486,0.36,0.774,0.468c0.288,0.108,0.588,0.162,0.899,0.162
		c0.48,0,0.934-0.117,1.359-0.351c0.426-0.234,0.717-0.543,0.873-0.928l2.07,0.576c-0.349,0.72-0.903,1.312-1.665,1.773
		C56.98,51.304,56.071,51.534,55.015,51.534z M57.463,45.847c-0.061-0.708-0.321-1.275-0.783-1.701s-1.022-0.639-1.683-0.639
		c-0.324,0-0.627,0.057-0.909,0.171s-0.531,0.272-0.747,0.477s-0.393,0.45-0.531,0.738c-0.138,0.288-0.219,0.606-0.242,0.954H57.463
		z"/>
	<path d="M76.975,41.923h2.304l-3.941,9.432h-1.98l-1.62-4.14l-1.602,4.14h-1.98l-3.941-9.432H66.5l2.808,7.164l1.152-3.061
		l-1.656-4.086h1.944l0.989,2.898l1.008-2.898h1.944l-1.638,4.086l1.134,3.061L76.975,41.923z"/>
	<path d="M80.431,40.608v-2.394h2.412v2.394H80.431z M80.431,51.354v-9.432h2.412v9.432H80.431z"/>
	<path d="M90.655,50.868c-0.324,0.145-0.723,0.288-1.197,0.433c-0.474,0.144-0.969,0.216-1.484,0.216
		c-0.337,0-0.651-0.042-0.945-0.126s-0.552-0.219-0.774-0.405c-0.222-0.186-0.398-0.426-0.53-0.72
		c-0.133-0.294-0.198-0.651-0.198-1.071v-5.418h-1.224v-1.854h1.224v-3.061h2.412v3.061h1.998v1.854h-1.998v4.608
		c0,0.336,0.09,0.573,0.27,0.711c0.181,0.138,0.396,0.207,0.648,0.207s0.498-0.042,0.738-0.126c0.239-0.084,0.432-0.156,0.575-0.216
		L90.655,50.868z"/>
	<path d="M100.626,51.354h-2.412v-5.292c0-0.744-0.138-1.293-0.414-1.647c-0.275-0.354-0.666-0.53-1.17-0.53
		c-0.216,0-0.443,0.048-0.684,0.144c-0.24,0.097-0.468,0.231-0.684,0.405c-0.217,0.174-0.414,0.381-0.595,0.621
		c-0.18,0.24-0.312,0.504-0.396,0.792v5.508h-2.412v-13.14h2.412v5.454c0.348-0.612,0.818-1.083,1.413-1.413
		c0.594-0.33,1.251-0.495,1.971-0.495c0.612,0,1.109,0.104,1.494,0.314c0.384,0.21,0.684,0.489,0.899,0.837
		c0.217,0.349,0.366,0.744,0.45,1.188s0.126,0.9,0.126,1.368V51.354z"/>
</g>
</svg>
