<?xml version="1.0" encoding="utf-8"?>
<!-- Generator: Adobe Illustrator 15.1.0, SVG Export Plug-In . SVG Version: 6.00 Build 0)  -->
<!DOCTYPE svg PUBLIC "-//W3C//DTD SVG 1.1//EN" "http://www.w3.org/Graphics/SVG/1.1/DTD/svg11.dtd">
<svg version="1.1" id="Layer_1" xmlns="http://www.w3.org/2000/svg" xmlns:xlink="http://www.w3.org/1999/xlink" x="0px" y="0px"
	 width="100px" height="80px" viewBox="0 0 100 80" enable-background="new 0 0 100 80" xml:space="preserve">
<path d="M0,0v80h100V0H0z M18.49,57.7c-1.47,0.93-1.92,2.891-0.979,4.359c0.93,1.479,2.88,1.921,4.359,0.979
	c1.471-0.93,1.92-2.88,0.98-4.36C21.92,57.21,19.971,56.771,18.49,57.7z"/>
<path fill="#FFFFFF" d="M82.695,43.014l-9.282,6.296c-1.047,0.711-2.362,0.458-3.072-0.588l-2.905-4.423
	c-0.355-0.523-0.229-1.183,0.294-1.537c0.522-0.355,0.67-1.123,0.315-1.646c-1.241-1.83-1.785-1.365-3.827-1.983
	c-1.072-0.381-1.961-1-2.678-1.806L20.174,68.914c-1.568,1.063-3.673,0.773-4.738-0.795l-1.241-1.831
	c-1.085-1.459-0.556-3.632,1.013-4.696l41.186-31.46l-0.005-0.007c3.007-2.04,4.093-5.926,1.965-9.063
	c-4.169-6.145-7.235-6.164-13.05-7.278c9.512-2.159,16.043-1.816,21.84,2.365c2.511,1.732,3.397,3.04,5.171,5.655l3.193,4.706
	c0.798,1.176,1.203,2.619,1.171,3.978c-0.071,2.147-0.703,2.48,0.43,4.29c0.354,0.523,1.012,0.649,1.535,0.294
	s1.182-0.228,1.536,0.294l3.104,4.575C83.993,40.988,83.74,42.305,82.695,43.014z"/>
</svg>
