<?xml version="1.0" encoding="UTF-8" standalone="no"?>
<!DOCTYPE svg PUBLIC "-//W3C//DTD SVG 1.1//EN" "http://www.w3.org/Graphics/SVG/1.1/DTD/svg11.dtd">
<svg width="100%" height="100%" viewBox="0 0 699 244" version="1.1" xmlns="http://www.w3.org/2000/svg" xmlns:xlink="http://www.w3.org/1999/xlink" xml:space="preserve" xmlns:serif="http://www.serif.com/" style="fill-rule:evenodd;clip-rule:evenodd;stroke-linejoin:round;stroke-miterlimit:2;">
    <g id="Artboard1" transform="matrix(0.736838,0,0,0.806907,10.4878,-281.969)">
        <rect x="-14.234" y="349.444" width="948.121" height="301.895" style="fill:none;"/>
        <g transform="matrix(0.334385,0,0,0.332191,21.8893,362.338)">
            <path d="M828.274,703.041C825.924,690.251 820.884,678.421 814.865,667.381C808.804,656.341 801.666,646.031 794.006,636.201C786.336,626.371 778.126,617.02 769.596,608.001C777.506,617.571 785.066,627.421 792.016,637.651C798.947,647.88 805.296,658.509 810.466,669.611C815.596,680.691 819.607,692.331 820.956,704.131C821.626,710.012 821.596,715.911 820.644,721.581C819.706,727.241 817.826,732.661 815.044,737.551C809.504,747.381 800.443,754.903 790.214,760.193C785.094,762.852 779.653,765.003 774.084,766.672C771.304,767.513 768.474,768.234 765.684,768.792C764.985,768.922 764.294,769.052 763.634,769.162C763.254,769.222 763.164,769.232 762.704,769.292L761.584,769.442C760.084,769.63 758.594,769.811 757.094,769.982C733.155,772.662 708.974,771.711 686.434,765.542C675.174,762.472 664.374,758.112 654.286,752.542C644.195,746.972 634.836,740.183 626.315,732.442C609.264,716.931 595.674,697.681 585.014,676.832C574.334,655.952 566.474,633.462 560.714,610.442C557.844,598.921 555.494,587.242 553.674,575.51C552.754,569.652 551.974,563.771 551.334,557.91C551.014,554.98 550.733,552.051 550.494,549.15L550.464,548.74C580.613,541.4 608.264,531.45 628.594,518C695.534,473.721 681.695,423.5 642.104,382C635.144,374.7 627.394,367.681 619.144,361C618.424,360.42 617.706,359.84 616.985,359.28C656.706,350.32 695.804,338.75 733.666,324.1C691.024,334.59 648.186,343.48 605.086,350.28C571.936,326.41 533.976,308.24 507.716,300.14C488.876,294.33 469.806,290.37 450.596,287.61L429.596,284.87C427.256,284.65 424.907,284.44 422.546,284.25C419.446,259.78 415.846,235.38 411.806,211.07C411.506,209.26 411.197,207.45 410.886,205.65C415.596,205.16 420.176,204.37 424.596,203.32C428.046,202.5 431.386,201.52 434.596,200.41C475.546,186.2 495.277,149.5 442.036,128.51C439.576,127.54 437.096,126.62 434.596,125.74C431.296,124.57 427.966,123.49 424.596,122.47C414.416,119.4 403.947,117.02 393.286,115.26C392.526,111.75 391.756,108.25 390.975,104.74C386.925,87.14 382.786,69.57 378.246,52.11C375.966,43.37 373.645,34.66 371.236,25.96C368.765,17.28 366.315,8.6 363.595,0C365.425,8.83 367.215,17.66 368.895,26.51C370.635,35.35 372.315,44.2 373.935,53.06C377.185,70.78 380.395,88.49 383.305,106.25C383.745,108.82 384.175,111.39 384.605,113.96C324.866,106.03 259.845,116.92 205.595,138C122.065,170.47 62.145,266.64 186.815,283.5C256.515,292.92 337.115,290.73 409.755,301.68C411.915,323.45 413.785,345.25 415.305,367.07C367.335,368.06 319.305,366.65 271.385,362.9C245.585,360.91 219.805,358.2 194.095,354.82C181.225,353.19 168.395,351.22 155.575,349.16C149.155,348.13 142.755,347.02 136.365,345.84C129.955,344.71 123.575,343.45 117.205,342.101C123.325,344.34 129.565,346.261 135.805,348.181C142.055,350.04 148.345,351.781 154.655,353.471C167.265,356.851 180.005,359.75 192.775,362.521C218.345,367.92 244.175,372.13 270.125,375.38C318.575,381.37 367.485,383.901 416.354,383.03C417.275,397.81 418.025,412.59 418.604,427.38C419.314,445.29 419.745,463.21 419.825,481.12C419.974,499.04 419.724,516.95 419.175,534.84C419.145,535.692 419.125,536.551 419.085,537.402C364.855,541.271 309.805,539.162 259.314,534.872C238.104,533.061 36.734,514.752 47.594,462.002C61.594,394.002 205.644,422.882 283.594,468.002C230.044,425.922 155.694,395.152 86.594,409.002C45.674,417.202 -9.406,462.002 22.594,511.002C51.204,554.813 189.764,568.752 274.564,568.752C295.354,568.752 342.995,569.582 342.995,569.582C342.995,569.582 374.495,570.042 417.724,567.271C416.274,592.202 414.014,617.082 410.764,641.822C409.575,650.681 408.294,659.532 406.834,668.351C405.384,677.181 403.754,685.971 402.034,694.742C398.554,712.282 394.344,729.681 389.324,746.851C379.424,781.232 366.063,814.721 348.183,846.072C353.423,838.721 358.273,831.093 362.904,823.322C367.473,815.521 371.754,807.542 375.794,799.422C383.854,783.183 390.704,766.353 396.804,749.252C402.794,732.112 407.865,714.652 412.264,697.032C414.484,688.221 416.434,679.362 418.254,670.462C420.074,661.563 421.744,652.643 423.204,643.683C424.683,634.723 426.014,625.744 427.214,616.752C428.404,607.752 429.434,598.732 430.344,589.712C431.155,581.893 431.844,574.063 432.434,566.223C433.155,566.173 433.874,566.114 434.594,566.053C436.244,565.923 437.914,565.782 439.594,565.643C443.214,565.343 446.884,565.013 450.594,564.654C470.454,562.763 491.534,560.164 512.384,556.563C512.744,558.843 513.124,561.103 513.514,563.364C514.655,569.784 515.934,576.143 517.354,582.465C520.195,595.114 523.584,607.614 527.544,619.954C535.483,644.603 545.704,668.704 559.164,691.225C565.903,702.475 573.464,713.315 581.983,723.435C590.483,733.565 599.962,742.965 610.392,751.254C620.824,759.544 632.204,766.694 644.252,772.334C656.312,777.984 669.012,782.124 681.912,784.734C694.822,787.353 707.9,788.463 720.861,788.334C733.822,788.215 746.65,786.864 759.22,784.614C760.79,784.334 762.361,784.045 763.92,783.734L765.1,783.505C765.412,783.444 766.08,783.305 766.46,783.215C767.319,783.005 768.14,782.795 768.96,782.584C772.2,781.704 775.33,780.675 778.43,779.515C784.61,777.204 790.59,774.366 796.282,770.925C801.952,767.486 807.322,763.404 812.052,758.595C816.782,753.795 820.852,748.225 823.792,742.095C826.752,735.975 828.552,729.334 829.19,722.704C829.865,716.051 829.425,709.421 828.274,703.041ZM222.215,271.861C109.015,252.961 199.755,162.331 264.425,145.901C299.795,136.911 346.415,131.591 388.345,136.861C389.535,144.411 390.705,151.971 391.825,159.531L395.724,186.221L397.394,198.381C374.224,198.651 351.344,190.601 329.924,179.671C350.804,198.551 375.494,206.061 398.485,206.251L399.405,212.931C402.514,236.321 405.344,259.741 407.854,283.191C346.825,279.351 281.825,281.811 222.215,271.861ZM409.485,197.461C406.035,177.681 402.245,157.971 398.184,138.321C407.344,139.871 416.205,141.991 424.594,144.731C428.014,145.841 431.344,147.061 434.594,148.391C436.445,149.141 438.254,149.931 440.044,150.761C464.363,162.031 452.264,181.351 434.594,190.021C433.884,190.371 433.164,190.701 432.434,191.011C429.825,192.131 427.214,193.121 424.594,193.961C419.566,195.601 414.524,196.751 409.485,197.461ZM434.295,536.161C434.316,535.921 434.325,535.682 434.335,535.441C435.205,517.331 435.564,499.201 435.625,481.089C435.625,462.969 435.265,444.85 434.585,426.759C434.005,412.03 433.215,397.31 432.205,382.619C477.335,381.139 522.385,376.689 566.885,369.159C571.775,373.269 576.515,377.569 581.025,381.999C623.787,423.999 644.906,477.649 562.917,508.489C527.866,521.669 489.736,529.829 450.597,534.439C446.937,534.869 443.278,535.268 439.597,535.649C437.937,535.808 436.267,535.967 434.597,536.128C434.495,536.14 434.395,536.152 434.295,536.161ZM429.595,305.061L450.595,309.951C472.035,315.481 492.816,322.881 512.616,332.901C525.015,339.171 538.805,347.651 552.247,357.601C511.976,362.38 471.537,365.371 431.047,366.651C429.427,345.8 427.387,324.971 424.977,304.201C426.515,304.481 428.055,304.771 429.595,305.061Z" style="fill:white;fill-rule:nonzero;"/>
        </g>
        <g transform="matrix(6.22943,0,0,5.68849,-1863.3,-2258.19)">
            <path d="M349.907,482.857C349.111,482.857 348.3,482.732 347.472,482.481C346.644,482.231 345.942,481.904 345.364,481.501L347.325,478.707C347.314,478.707 347.393,478.772 347.562,478.903C347.731,479.034 347.97,479.181 348.281,479.344C348.591,479.507 348.943,479.654 349.335,479.785C349.727,479.916 350.135,479.981 350.56,479.981C350.811,479.981 350.996,479.951 351.116,479.891C351.236,479.831 351.315,479.755 351.353,479.663C351.391,479.57 351.41,479.475 351.41,479.377C351.41,479.181 351.306,479.02 351.099,478.895C350.892,478.769 350.628,478.655 350.307,478.552C349.986,478.448 349.645,478.326 349.286,478.184C348.806,477.988 348.409,477.773 348.093,477.538C347.777,477.304 347.54,477.029 347.382,476.713C347.224,476.397 347.145,476.033 347.145,475.619C347.145,474.889 347.29,474.238 347.578,473.666C347.867,473.094 348.256,472.612 348.747,472.22C349.237,471.828 349.781,471.528 350.38,471.321C350.98,471.114 351.59,471.011 352.211,471.011C352.755,471.011 353.267,471.079 353.746,471.215C354.226,471.351 354.667,471.517 355.07,471.713C355.473,471.91 355.822,472.095 356.116,472.269L354.188,474.9C354.209,474.9 354.144,474.845 353.992,474.736C353.839,474.627 353.632,474.505 353.371,474.369C353.109,474.232 352.815,474.11 352.488,474.001C352.161,473.892 351.835,473.838 351.508,473.838C351.355,473.838 351.211,473.862 351.075,473.911C350.939,473.96 350.833,474.034 350.756,474.132C350.68,474.23 350.642,474.36 350.642,474.524C350.642,474.687 350.715,474.823 350.862,474.932C351.01,475.041 351.214,475.142 351.475,475.235C351.737,475.327 352.036,475.439 352.374,475.57C352.897,475.766 353.357,475.981 353.755,476.215C354.152,476.449 354.46,476.741 354.678,477.089C354.896,477.438 355.005,477.884 355.005,478.429C355.005,479.257 354.852,479.954 354.547,480.52C354.242,481.087 353.839,481.542 353.338,481.885C352.837,482.228 352.287,482.476 351.688,482.628C351.089,482.781 350.495,482.857 349.907,482.857Z" style="fill:white;fill-rule:nonzero;"/>
            <path d="M359.269,473.887L356.148,473.887L356.737,471.109L366.148,471.109L365.56,473.887L362.455,473.887L360.576,482.71L357.39,482.71L359.269,473.887Z" style="fill:white;fill-rule:nonzero;"/>
            <path d="M364.449,482.71L366.916,471.109L372.014,471.109C372.646,471.109 373.182,471.27 373.624,471.591C374.065,471.912 374.402,472.329 374.637,472.841C374.871,473.353 374.988,473.892 374.988,474.458C374.988,474.84 374.933,475.218 374.824,475.594C374.716,475.97 374.56,476.332 374.359,476.681C374.157,477.029 373.915,477.353 373.632,477.653C373.348,477.952 373.033,478.217 372.684,478.445L374.073,482.71L370.478,482.71L369.351,479.148L368.387,479.148L367.635,482.71L364.449,482.71ZM370.756,476.37C370.843,476.37 370.941,476.332 371.05,476.256C371.159,476.18 371.262,476.071 371.36,475.929C371.459,475.787 371.54,475.619 371.606,475.423C371.671,475.226 371.704,475.014 371.704,474.785C371.704,474.589 371.679,474.426 371.63,474.295C371.581,474.164 371.518,474.064 371.442,473.993C371.366,473.922 371.284,473.887 371.197,473.887L369.514,473.887L368.991,476.37L370.756,476.37Z" style="fill:white;fill-rule:nonzero;"/>
            <path d="M347.651,486.207L349.856,486.207C350.435,486.207 350.909,486.325 351.278,486.561C351.647,486.798 351.921,487.116 352.101,487.517C352.28,487.918 352.37,488.367 352.37,488.867C352.37,489.48 352.271,490.049 352.072,490.574C351.873,491.1 351.595,491.556 351.237,491.943C350.88,492.331 350.457,492.632 349.969,492.846C349.481,493.06 348.95,493.167 348.376,493.167L346.171,493.167L347.651,486.207ZM348.471,492.712C348.998,492.712 349.47,492.61 349.888,492.407C350.305,492.204 350.66,491.926 350.953,491.573C351.246,491.22 351.47,490.819 351.625,490.37C351.781,489.921 351.858,489.449 351.858,488.955C351.858,488.505 351.78,488.108 351.623,487.764C351.466,487.419 351.233,487.149 350.922,486.954C350.612,486.76 350.225,486.662 349.761,486.662L348.055,486.662L346.765,492.712L348.471,492.712Z" style="fill:white;fill-rule:nonzero;"/>
            <path d="M354.357,486.207L358.681,486.207L358.585,486.662L354.76,486.662L354.176,489.394L357.518,489.394L357.427,489.828L354.085,489.828L353.471,492.712L357.384,492.712L357.289,493.167L352.876,493.167L354.357,486.207Z" style="fill:white;fill-rule:nonzero;"/>
            <path d="M360.63,493.225C360.101,493.225 359.64,493.14 359.246,492.969C358.852,492.799 358.5,492.539 358.189,492.19L358.532,491.79C358.64,491.93 358.766,492.06 358.91,492.178C359.053,492.297 359.217,492.402 359.4,492.491C359.583,492.581 359.784,492.651 360.005,492.701C360.225,492.751 360.468,492.776 360.734,492.776C361.164,492.776 361.537,492.714 361.854,492.591C362.171,492.467 362.416,492.287 362.59,492.052C362.764,491.816 362.851,491.535 362.851,491.208C362.851,490.941 362.783,490.73 362.649,490.576C362.515,490.422 362.316,490.295 362.052,490.195C361.789,490.095 361.464,489.995 361.076,489.896C360.684,489.795 360.351,489.69 360.078,489.582C359.804,489.474 359.596,489.332 359.455,489.154C359.313,488.977 359.242,488.732 359.242,488.421C359.242,488.075 359.311,487.763 359.449,487.486C359.586,487.209 359.779,486.971 360.027,486.773C360.276,486.575 360.567,486.423 360.903,486.317C361.238,486.211 361.604,486.158 362,486.158C362.294,486.158 362.561,486.188 362.8,486.25C363.039,486.312 363.253,486.403 363.441,486.525C363.63,486.646 363.795,486.796 363.938,486.974L363.604,487.366C363.523,487.245 363.426,487.138 363.314,487.044C363.202,486.95 363.075,486.87 362.933,486.805C362.791,486.74 362.637,486.691 362.472,486.658C362.306,486.624 362.125,486.608 361.929,486.608C361.456,486.608 361.06,486.683 360.742,486.834C360.423,486.984 360.184,487.185 360.024,487.438C359.865,487.69 359.786,487.972 359.786,488.285C359.786,488.526 359.846,488.715 359.966,488.852C360.086,488.989 360.268,489.102 360.51,489.189C360.753,489.276 361.061,489.368 361.436,489.463C361.862,489.57 362.221,489.683 362.512,489.805C362.803,489.927 363.023,490.085 363.173,490.28C363.323,490.476 363.398,490.741 363.398,491.076C363.398,491.439 363.328,491.755 363.186,492.026C363.045,492.297 362.849,492.521 362.597,492.697C362.345,492.874 362.051,493.006 361.716,493.094C361.38,493.181 361.018,493.225 360.63,493.225Z" style="fill:white;fill-rule:nonzero;"/>
            <path d="M365.67,486.216L366.169,486.216L364.689,493.167L364.19,493.167L365.67,486.216Z" style="fill:white;fill-rule:nonzero;"/>
            <path d="M368.933,493.216C368.546,493.216 368.2,493.135 367.896,492.973C367.591,492.811 367.336,492.593 367.131,492.318C366.925,492.043 366.769,491.731 366.661,491.381C366.554,491.032 366.5,490.671 366.5,490.299C366.5,489.77 366.603,489.258 366.81,488.765C367.017,488.271 367.3,487.828 367.66,487.434C368.02,487.041 368.436,486.73 368.907,486.501C369.378,486.272 369.881,486.158 370.416,486.158C371.046,486.158 371.536,486.299 371.887,486.582C372.237,486.865 372.469,487.23 372.583,487.677L372.131,487.918C372.009,487.48 371.794,487.153 371.488,486.939C371.182,486.725 370.798,486.618 370.334,486.618C369.864,486.618 369.427,486.722 369.022,486.932C368.617,487.142 368.263,487.423 367.962,487.777C367.66,488.13 367.425,488.523 367.256,488.955C367.088,489.388 367.003,489.828 367.003,490.277C367.003,490.724 367.088,491.135 367.257,491.511C367.427,491.887 367.668,492.189 367.98,492.416C368.292,492.643 368.661,492.756 369.086,492.756C369.491,492.756 369.905,492.645 370.328,492.422C370.751,492.2 371.188,491.854 371.639,491.384L371.524,491.951C371.104,492.374 370.676,492.69 370.239,492.901C369.803,493.111 369.367,493.216 368.933,493.216ZM371.788,490.188L370.295,490.188L370.382,489.784L372.309,489.784L371.59,493.167L371.152,493.167L371.788,490.188Z" style="fill:white;fill-rule:nonzero;"/>
            <path d="M374.513,486.207L374.898,486.207L378.197,492.329L379.492,486.216L379.991,486.216L378.51,493.167L378.065,493.167L374.813,487.147L373.532,493.167L373.033,493.167L374.513,486.207Z" style="fill:white;fill-rule:nonzero;"/>
            <path d="M386.154,486.207L386.586,486.207L387.896,493.167L387.36,493.167L386.933,490.876L383.808,490.876L382.414,493.167L381.878,493.167L386.154,486.207ZM386.894,490.464L386.244,486.815L384.012,490.464L386.894,490.464Z" style="fill:white;fill-rule:nonzero;"/>
            <path d="M390.386,486.207L390.771,486.207L394.069,492.329L395.364,486.216L395.863,486.216L394.383,493.167L393.938,493.167L390.685,487.147L389.404,493.167L388.905,493.167L390.386,486.207Z" style="fill:white;fill-rule:nonzero;"/>
            <path d="M397.67,486.207L399.875,486.207C400.454,486.207 400.927,486.325 401.297,486.561C401.666,486.798 401.94,487.116 402.12,487.517C402.299,487.918 402.389,488.367 402.389,488.867C402.389,489.48 402.289,490.049 402.09,490.574C401.891,491.1 401.613,491.556 401.256,491.943C400.899,492.331 400.476,492.632 399.988,492.846C399.5,493.06 398.969,493.167 398.395,493.167L396.189,493.167L397.67,486.207ZM398.49,492.712C399.017,492.712 399.489,492.61 399.906,492.407C400.323,492.204 400.678,491.926 400.971,491.573C401.264,491.22 401.488,490.819 401.644,490.37C401.799,489.921 401.877,489.449 401.877,488.955C401.877,488.505 401.799,488.108 401.642,487.764C401.485,487.419 401.251,487.149 400.941,486.954C400.63,486.76 400.243,486.662 399.78,486.662L398.073,486.662L396.784,492.712L398.49,492.712Z" style="fill:white;fill-rule:nonzero;"/>
            <path d="M406.876,486.207L409.081,486.207C409.659,486.207 410.133,486.325 410.502,486.561C410.871,486.798 411.146,487.116 411.325,487.517C411.505,487.918 411.595,488.367 411.595,488.867C411.595,489.48 411.495,490.049 411.296,490.574C411.097,491.1 410.819,491.556 410.462,491.943C410.104,492.331 409.682,492.632 409.194,492.846C408.705,493.06 408.174,493.167 407.6,493.167L405.395,493.167L406.876,486.207ZM407.696,492.712C408.223,492.712 408.695,492.61 409.112,492.407C409.529,492.204 409.884,491.926 410.177,491.573C410.47,491.22 410.694,490.819 410.85,490.37C411.005,489.921 411.083,489.449 411.083,488.955C411.083,488.505 411.004,488.108 410.848,487.764C410.691,487.419 410.457,487.149 410.147,486.954C409.836,486.76 409.449,486.662 408.985,486.662L407.279,486.662L405.989,492.712L407.696,492.712Z" style="fill:white;fill-rule:nonzero;"/>
            <path d="M413.581,486.207L417.905,486.207L417.81,486.662L413.985,486.662L413.4,489.394L416.743,489.394L416.652,489.828L413.309,489.828L412.695,492.712L416.609,492.712L416.513,493.167L412.101,493.167L413.581,486.207Z" style="fill:white;fill-rule:nonzero;"/>
            <path d="M418.562,486.207L419.088,486.207L420.242,492.542L424.074,486.207L424.605,486.207L420.335,493.167L419.877,493.167L418.562,486.207Z" style="fill:white;fill-rule:nonzero;"/>
        </g>
    </g>
</svg>
