<?xml version="1.0" encoding="UTF-8" standalone="no"?>
<!DOCTYPE svg PUBLIC "-//W3C//DTD SVG 1.1//EN" "http://www.w3.org/Graphics/SVG/1.1/DTD/svg11.dtd">
<svg width="100%" height="100%" viewBox="0 0 699 244" version="1.1" xmlns="http://www.w3.org/2000/svg" xmlns:xlink="http://www.w3.org/1999/xlink" xml:space="preserve" xmlns:serif="http://www.serif.com/" style="fill-rule:evenodd;clip-rule:evenodd;stroke-linejoin:round;stroke-miterlimit:2;">
    <g id="Artboard1" transform="matrix(0.736838,0,0,0.806907,10.4878,-281.969)">
        <rect x="-14.234" y="349.444" width="948.121" height="301.895" style="fill:none;"/>
        <g transform="matrix(0.334385,0,0,0.332191,21.8893,362.338)">
            <path d="M828.274,703.041C825.924,690.251 820.884,678.421 814.865,667.381C808.804,656.341 801.666,646.031 794.006,636.201C786.336,626.371 778.126,617.02 769.596,608.001C777.506,617.571 785.066,627.421 792.016,637.651C798.947,647.88 805.296,658.509 810.466,669.611C815.596,680.691 819.607,692.331 820.956,704.131C821.626,710.012 821.596,715.911 820.644,721.581C819.706,727.241 817.826,732.661 815.044,737.551C809.504,747.381 800.443,754.903 790.214,760.193C785.094,762.852 779.653,765.003 774.084,766.672C771.304,767.513 768.474,768.234 765.684,768.792C764.985,768.922 764.294,769.052 763.634,769.162C763.254,769.222 763.164,769.232 762.704,769.292L761.584,769.442C760.084,769.63 758.594,769.811 757.094,769.982C733.155,772.662 708.974,771.711 686.434,765.542C675.174,762.472 664.374,758.112 654.286,752.542C644.195,746.972 634.836,740.183 626.315,732.442C609.264,716.931 595.674,697.681 585.014,676.832C574.334,655.952 566.474,633.462 560.714,610.442C557.844,598.921 555.494,587.242 553.674,575.51C552.754,569.652 551.974,563.771 551.334,557.91C551.014,554.98 550.733,552.051 550.494,549.15L550.464,548.74C580.613,541.4 608.264,531.45 628.594,518C695.534,473.721 681.695,423.5 642.104,382C635.144,374.7 627.394,367.681 619.144,361C618.424,360.42 617.706,359.84 616.985,359.28C656.706,350.32 695.804,338.75 733.666,324.1C691.024,334.59 648.186,343.48 605.086,350.28C571.936,326.41 533.976,308.24 507.716,300.14C488.876,294.33 469.806,290.37 450.596,287.61L429.596,284.87C427.256,284.65 424.907,284.44 422.546,284.25C419.446,259.78 415.846,235.38 411.806,211.07C411.506,209.26 411.197,207.45 410.886,205.65C415.596,205.16 420.176,204.37 424.596,203.32C428.046,202.5 431.386,201.52 434.596,200.41C475.546,186.2 495.277,149.5 442.036,128.51C439.576,127.54 437.096,126.62 434.596,125.74C431.296,124.57 427.966,123.49 424.596,122.47C414.416,119.4 403.947,117.02 393.286,115.26C392.526,111.75 391.756,108.25 390.975,104.74C386.925,87.14 382.786,69.57 378.246,52.11C375.966,43.37 373.645,34.66 371.236,25.96C368.765,17.28 366.315,8.6 363.595,0C365.425,8.83 367.215,17.66 368.895,26.51C370.635,35.35 372.315,44.2 373.935,53.06C377.185,70.78 380.395,88.49 383.305,106.25C383.745,108.82 384.175,111.39 384.605,113.96C324.866,106.03 259.845,116.92 205.595,138C122.065,170.47 62.145,266.64 186.815,283.5C256.515,292.92 337.115,290.73 409.755,301.68C411.915,323.45 413.785,345.25 415.305,367.07C367.335,368.06 319.305,366.65 271.385,362.9C245.585,360.91 219.805,358.2 194.095,354.82C181.225,353.19 168.395,351.22 155.575,349.16C149.155,348.13 142.755,347.02 136.365,345.84C129.955,344.71 123.575,343.45 117.205,342.101C123.325,344.34 129.565,346.261 135.805,348.181C142.055,350.04 148.345,351.781 154.655,353.471C167.265,356.851 180.005,359.75 192.775,362.521C218.345,367.92 244.175,372.13 270.125,375.38C318.575,381.37 367.485,383.901 416.354,383.03C417.275,397.81 418.025,412.59 418.604,427.38C419.314,445.29 419.745,463.21 419.825,481.12C419.974,499.04 419.724,516.95 419.175,534.84C419.145,535.692 419.125,536.551 419.085,537.402C364.855,541.271 309.805,539.162 259.314,534.872C238.104,533.061 36.734,514.752 47.594,462.002C61.594,394.002 205.644,422.882 283.594,468.002C230.044,425.922 155.694,395.152 86.594,409.002C45.674,417.202 -9.406,462.002 22.594,511.002C51.204,554.813 189.764,568.752 274.564,568.752C295.354,568.752 342.995,569.582 342.995,569.582C342.995,569.582 374.495,570.042 417.724,567.271C416.274,592.202 414.014,617.082 410.764,641.822C409.575,650.681 408.294,659.532 406.834,668.351C405.384,677.181 403.754,685.971 402.034,694.742C398.554,712.282 394.344,729.681 389.324,746.851C379.424,781.232 366.063,814.721 348.183,846.072C353.423,838.721 358.273,831.093 362.904,823.322C367.473,815.521 371.754,807.542 375.794,799.422C383.854,783.183 390.704,766.353 396.804,749.252C402.794,732.112 407.865,714.652 412.264,697.032C414.484,688.221 416.434,679.362 418.254,670.462C420.074,661.563 421.744,652.643 423.204,643.683C424.683,634.723 426.014,625.744 427.214,616.752C428.404,607.752 429.434,598.732 430.344,589.712C431.155,581.893 431.844,574.063 432.434,566.223C433.155,566.173 433.874,566.114 434.594,566.053C436.244,565.923 437.914,565.782 439.594,565.643C443.214,565.343 446.884,565.013 450.594,564.654C470.454,562.763 491.534,560.164 512.384,556.563C512.744,558.843 513.124,561.103 513.514,563.364C514.655,569.784 515.934,576.143 517.354,582.465C520.195,595.114 523.584,607.614 527.544,619.954C535.483,644.603 545.704,668.704 559.164,691.225C565.903,702.475 573.464,713.315 581.983,723.435C590.483,733.565 599.962,742.965 610.392,751.254C620.824,759.544 632.204,766.694 644.252,772.334C656.312,777.984 669.012,782.124 681.912,784.734C694.822,787.353 707.9,788.463 720.861,788.334C733.822,788.215 746.65,786.864 759.22,784.614C760.79,784.334 762.361,784.045 763.92,783.734L765.1,783.505C765.412,783.444 766.08,783.305 766.46,783.215C767.319,783.005 768.14,782.795 768.96,782.584C772.2,781.704 775.33,780.675 778.43,779.515C784.61,777.204 790.59,774.366 796.282,770.925C801.952,767.486 807.322,763.404 812.052,758.595C816.782,753.795 820.852,748.225 823.792,742.095C826.752,735.975 828.552,729.334 829.19,722.704C829.865,716.051 829.425,709.421 828.274,703.041ZM222.215,271.861C109.015,252.961 199.755,162.331 264.425,145.901C299.795,136.911 346.415,131.591 388.345,136.861C389.535,144.411 390.705,151.971 391.825,159.531L395.724,186.221L397.394,198.381C374.224,198.651 351.344,190.601 329.924,179.671C350.804,198.551 375.494,206.061 398.485,206.251L399.405,212.931C402.514,236.321 405.344,259.741 407.854,283.191C346.825,279.351 281.825,281.811 222.215,271.861ZM409.485,197.461C406.035,177.681 402.245,157.971 398.184,138.321C407.344,139.871 416.205,141.991 424.594,144.731C428.014,145.841 431.344,147.061 434.594,148.391C436.445,149.141 438.254,149.931 440.044,150.761C464.363,162.031 452.264,181.351 434.594,190.021C433.884,190.371 433.164,190.701 432.434,191.011C429.825,192.131 427.214,193.121 424.594,193.961C419.566,195.601 414.524,196.751 409.485,197.461ZM434.295,536.161C434.316,535.921 434.325,535.682 434.335,535.441C435.205,517.331 435.564,499.201 435.625,481.089C435.625,462.969 435.265,444.85 434.585,426.759C434.005,412.03 433.215,397.31 432.205,382.619C477.335,381.139 522.385,376.689 566.885,369.159C571.775,373.269 576.515,377.569 581.025,381.999C623.787,423.999 644.906,477.649 562.917,508.489C527.866,521.669 489.736,529.829 450.597,534.439C446.937,534.869 443.278,535.268 439.597,535.649C437.937,535.808 436.267,535.967 434.597,536.128C434.495,536.14 434.395,536.152 434.295,536.161ZM429.595,305.061L450.595,309.951C472.035,315.481 492.816,322.881 512.616,332.901C525.015,339.171 538.805,347.651 552.247,357.601C511.976,362.38 471.537,365.371 431.047,366.651C429.427,345.8 427.387,324.971 424.977,304.201C426.515,304.481 428.055,304.771 429.595,305.061Z" style="fill:white;fill-rule:nonzero;"/>
        </g>
        <g transform="matrix(6.22943,0,0,5.68849,-1863.3,-2258.19)">
            <text x="345.903px" y="482.71px" style="font-family:'RalewayItalic-Black', 'Raleway';font-weight:100;font-style:italic;font-size:16.34px;fill:white;">S<tspan x="355.119px " y="482.71px ">T</tspan>R</text>
            <text x="345.903px" y="493.167px" style="font-family:'RalewayItalic-Light', 'Raleway';font-weight:100;font-style:italic;font-size:9.804px;fill:white;">DE<tspan x="358.246px " y="493.167px ">S</tspan>IGN <tspan x="382.295px " y="493.167px ">A</tspan>ND DEV</text>
        </g>
    </g>
</svg>
