<?xml version="1.0" encoding="utf-8"?>
<!-- Generator: Adobe Illustrator 15.1.0, SVG Export Plug-In . SVG Version: 6.00 Build 0)  -->
<!DOCTYPE svg PUBLIC "-//W3C//DTD SVG 1.1//EN" "http://www.w3.org/Graphics/SVG/1.1/DTD/svg11.dtd">
<svg version="1.1" id="Layer_1" xmlns="http://www.w3.org/2000/svg" xmlns:xlink="http://www.w3.org/1999/xlink" x="0px" y="0px"
	 width="147.176px" height="34.312px" viewBox="0 0 147.176 34.312" enable-background="new 0 0 147.176 34.312"
	 xml:space="preserve">
<g>
	<path fill="#2AA8C3" d="M2.264,7.776C3.418,6.577,5,5.978,7.01,5.978c2.009,0,4.068,0.199,6.177,0.599l-0.666,5.328
		c-2.198-0.51-3.708-0.766-4.529-0.766c-1.044,0-1.565,0.422-1.565,1.265c0,0.333,0.25,0.655,0.75,0.966
		c0.5,0.312,1.104,0.638,1.815,0.982c0.71,0.344,1.42,0.755,2.131,1.231c0.71,0.479,1.315,1.16,1.815,2.048
		c0.5,0.889,0.75,1.909,0.75,3.063c0,2.109-0.566,3.741-1.699,4.896c-1.132,1.154-2.736,1.731-4.812,1.731
		c-2.076,0-4.102-0.322-6.077-0.966l0.366-4.962c2.375,0.688,4.029,1.031,4.961,1.031c0.933,0,1.399-0.409,1.399-1.231
		c0-0.421-0.25-0.811-0.75-1.165s-1.104-0.71-1.815-1.065c-0.711-0.354-1.427-0.766-2.147-1.231
		c-0.722-0.466-1.332-1.144-1.832-2.031s-0.75-1.942-0.75-3.164C0.533,10.562,1.11,8.975,2.264,7.776z"/>
	<path fill="#80BF1F" d="M28.371,11.339h-3.863V26.99h-5.694V11.339h-4.096l0.333-5.027h13.653L28.371,11.339z"/>
	<path fill="#EF0A7C" d="M44.821,12.871c0,1.244-0.189,2.276-0.566,3.097c-0.378,0.821-0.966,1.565-1.765,2.231l2.764,8.791h-6.161
		l-2.064-7.459h-0.766v7.459h-5.594V6.311h7.726c2.22,0,3.846,0.521,4.878,1.564C44.305,8.919,44.821,10.584,44.821,12.871z
		 M38.361,15.535c0.244-0.333,0.366-0.938,0.366-1.815c0-0.877-0.123-1.486-0.366-1.831c-0.245-0.345-0.645-0.517-1.199-0.517
		h-0.899v4.662h0.866C37.706,16.034,38.117,15.868,38.361,15.535z"/>
</g>
<g>
	<path fill="#CCE312" d="M49.298,27.028V15.526h3.823c0.907,0,1.703,0.15,2.389,0.454c0.686,0.303,1.256,0.713,1.709,1.23
		c0.454,0.52,0.793,1.126,1.021,1.822c0.227,0.697,0.34,1.439,0.34,2.229c0,0.873-0.127,1.665-0.38,2.372
		c-0.254,0.707-0.619,1.312-1.094,1.814s-1.05,0.891-1.725,1.166c-0.675,0.275-1.428,0.413-2.26,0.413H49.298z M57.754,21.26
		c0-0.725-0.103-1.391-0.308-2.002c-0.205-0.608-0.505-1.136-0.899-1.577c-0.395-0.443-0.878-0.789-1.45-1.038
		c-0.572-0.248-1.231-0.373-1.976-0.373h-2.997v10.012h2.997c0.756,0,1.423-0.127,2-0.381s1.061-0.607,1.45-1.062
		c0.389-0.454,0.683-0.985,0.883-1.596C57.655,22.635,57.754,21.974,57.754,21.26z"/>
	<path fill="#CCE312" d="M65.093,27.19c-0.594,0-1.145-0.116-1.652-0.35c-0.508-0.231-0.948-0.551-1.32-0.955
		c-0.373-0.404-0.664-0.872-0.875-1.401c-0.21-0.528-0.316-1.096-0.316-1.701c0-0.594,0.105-1.152,0.316-1.676
		s0.5-0.982,0.867-1.377c0.367-0.396,0.805-0.705,1.312-0.933c0.507-0.227,1.053-0.34,1.636-0.34c0.594,0,1.142,0.115,1.644,0.349
		c0.502,0.231,0.937,0.546,1.304,0.938c0.367,0.396,0.656,0.854,0.867,1.377c0.21,0.524,0.316,1.078,0.316,1.66
		c0,0.055-0.003,0.122-0.008,0.203s-0.008,0.133-0.008,0.154h-7.403c0.032,0.485,0.146,0.937,0.34,1.353
		c0.195,0.415,0.44,0.774,0.737,1.077s0.64,0.54,1.029,0.713c0.389,0.173,0.804,0.26,1.247,0.26c0.292,0,0.581-0.041,0.867-0.122
		c0.286-0.081,0.551-0.191,0.794-0.332c0.243-0.14,0.459-0.311,0.648-0.511c0.189-0.199,0.337-0.418,0.446-0.656l0.712,0.195
		c-0.129,0.303-0.311,0.58-0.542,0.834c-0.232,0.254-0.502,0.473-0.81,0.656c-0.308,0.184-0.646,0.326-1.012,0.43
		C65.859,27.138,65.481,27.19,65.093,27.19z M68.397,22.492c-0.032-0.496-0.143-0.95-0.332-1.361
		c-0.189-0.409-0.432-0.764-0.729-1.061s-0.64-0.529-1.029-0.696c-0.389-0.167-0.805-0.251-1.247-0.251
		c-0.443,0-0.859,0.084-1.248,0.251s-0.732,0.399-1.029,0.696c-0.297,0.297-0.535,0.654-0.713,1.069
		c-0.178,0.416-0.283,0.865-0.315,1.353H68.397z"/>
	<path fill="#CCE312" d="M74.489,27.19c-0.648,0-1.269-0.108-1.863-0.324c-0.594-0.216-1.113-0.54-1.555-0.972l0.405-0.552
		c0.454,0.41,0.923,0.714,1.41,0.906c0.486,0.195,1.021,0.293,1.604,0.293c0.733,0,1.324-0.153,1.772-0.463
		c0.448-0.307,0.673-0.736,0.673-1.287c0-0.26-0.057-0.479-0.17-0.656c-0.114-0.178-0.284-0.329-0.512-0.452
		c-0.227-0.125-0.508-0.235-0.842-0.332c-0.334-0.099-0.724-0.2-1.166-0.31c-0.476-0.106-0.889-0.216-1.24-0.324
		c-0.351-0.106-0.64-0.236-0.867-0.389c-0.227-0.149-0.396-0.334-0.51-0.551c-0.113-0.216-0.17-0.491-0.17-0.826
		c0-0.421,0.081-0.788,0.243-1.102c0.162-0.312,0.386-0.572,0.672-0.777s0.616-0.359,0.988-0.462
		c0.372-0.104,0.771-0.153,1.191-0.153c0.659,0,1.241,0.11,1.75,0.332c0.507,0.221,0.901,0.504,1.183,0.851l-0.453,0.438
		c-0.281-0.324-0.646-0.565-1.094-0.729c-0.449-0.162-0.926-0.243-1.434-0.243c-0.313,0-0.607,0.032-0.883,0.097
		c-0.275,0.065-0.516,0.168-0.721,0.31c-0.206,0.141-0.367,0.32-0.486,0.543c-0.119,0.221-0.178,0.481-0.178,0.784
		c0,0.248,0.041,0.448,0.122,0.601c0.081,0.151,0.211,0.281,0.389,0.389c0.178,0.108,0.407,0.203,0.688,0.283
		c0.281,0.081,0.615,0.17,1.004,0.268c0.529,0.129,0.999,0.254,1.409,0.373s0.754,0.265,1.029,0.438
		c0.274,0.172,0.484,0.377,0.631,0.615c0.146,0.236,0.22,0.54,0.22,0.906c0,0.756-0.295,1.358-0.884,1.807
		C76.256,26.966,75.472,27.19,74.489,27.19z"/>
	<path fill="#CCE312" d="M80.434,16.693v-1.491h0.811v1.491H80.434z M80.434,27.028v-8.424h0.811v8.424H80.434z"/>
	<path fill="#CCE312" d="M88.015,27.158c-0.583,0-1.117-0.121-1.604-0.365c-0.486-0.242-0.906-0.565-1.264-0.972
		s-0.632-0.866-0.826-1.385c-0.193-0.52-0.291-1.055-0.291-1.604c0-0.572,0.094-1.123,0.283-1.651
		c0.188-0.529,0.456-0.996,0.803-1.4c0.346-0.405,0.758-0.728,1.238-0.965c0.48-0.236,1.007-0.355,1.579-0.355
		c0.733,0,1.375,0.191,1.92,0.574c0.546,0.384,1.013,0.852,1.401,1.402v-1.831h0.729v8.586c0,0.572-0.107,1.074-0.324,1.507
		c-0.216,0.432-0.505,0.791-0.867,1.077c-0.36,0.286-0.783,0.502-1.264,0.646c-0.48,0.146-0.984,0.22-1.515,0.22
		c-0.485,0-0.923-0.047-1.312-0.138c-0.39-0.093-0.732-0.223-1.029-0.39s-0.562-0.372-0.795-0.615
		c-0.23-0.243-0.435-0.511-0.606-0.802l0.551-0.373c0.335,0.572,0.789,0.99,1.361,1.256c0.571,0.264,1.183,0.396,1.83,0.396
		c0.433,0,0.84-0.061,1.224-0.179c0.383-0.118,0.719-0.295,1.004-0.526c0.286-0.232,0.514-0.521,0.682-0.866
		c0.166-0.345,0.25-0.751,0.25-1.215v-1.848c-0.346,0.54-0.805,0.979-1.377,1.312C89.225,26.99,88.631,27.158,88.015,27.158z
		 M88.209,26.46c0.355,0,0.701-0.065,1.037-0.202c0.334-0.135,0.64-0.31,0.914-0.525c0.275-0.216,0.506-0.459,0.688-0.729
		c0.185-0.271,0.292-0.541,0.323-0.811v-2.771c-0.129-0.323-0.303-0.625-0.519-0.899c-0.216-0.275-0.461-0.51-0.735-0.704
		c-0.275-0.194-0.573-0.35-0.893-0.462c-0.318-0.113-0.64-0.17-0.964-0.17c-0.508,0-0.961,0.106-1.36,0.323
		s-0.736,0.496-1.013,0.843c-0.276,0.346-0.485,0.736-0.632,1.175c-0.146,0.438-0.219,0.878-0.219,1.32
		c0,0.485,0.086,0.944,0.259,1.377s0.413,0.814,0.722,1.149s0.664,0.6,1.068,0.794C87.293,26.364,87.735,26.46,88.209,26.46z"/>
	<path fill="#CCE312" d="M102.208,27.028h-0.812V22.33c0-1.09-0.153-1.885-0.461-2.381c-0.31-0.497-0.804-0.746-1.481-0.746
		c-0.356,0-0.711,0.065-1.062,0.195c-0.352,0.129-0.676,0.312-0.973,0.551c-0.297,0.237-0.559,0.516-0.785,0.834
		s-0.396,0.662-0.502,1.029v5.216h-0.811v-8.424h0.745v2.009c0.172-0.324,0.39-0.618,0.647-0.883
		c0.26-0.266,0.545-0.492,0.857-0.682c0.312-0.188,0.651-0.335,1.014-0.438c0.361-0.104,0.73-0.153,1.109-0.153
		c0.917,0,1.564,0.32,1.943,0.963c0.378,0.644,0.566,1.564,0.566,2.764v4.844H102.208z"/>
	<path fill="#CCE312" d="M113.627,27.028l-1.476-1.539c-0.442,0.519-0.964,0.932-1.562,1.239c-0.6,0.309-1.256,0.462-1.969,0.462
		c-0.486,0-0.945-0.07-1.377-0.211c-0.434-0.141-0.815-0.344-1.15-0.607c-0.336-0.264-0.6-0.583-0.795-0.956
		c-0.193-0.372-0.291-0.796-0.291-1.271c0-0.39,0.068-0.745,0.203-1.068c0.135-0.324,0.317-0.627,0.551-0.908
		c0.232-0.279,0.502-0.543,0.811-0.785s0.635-0.482,0.979-0.721c-0.303-0.324-0.559-0.619-0.77-0.883
		c-0.21-0.266-0.384-0.506-0.519-0.721c-0.136-0.218-0.231-0.425-0.291-0.625c-0.06-0.199-0.091-0.396-0.091-0.592
		c0-0.335,0.074-0.649,0.22-0.947c0.146-0.296,0.346-0.559,0.601-0.785c0.254-0.228,0.551-0.405,0.891-0.535
		c0.341-0.129,0.711-0.194,1.109-0.194c0.367,0,0.711,0.058,1.028,0.17c0.317,0.113,0.595,0.268,0.826,0.462
		c0.231,0.193,0.413,0.427,0.543,0.696c0.13,0.271,0.194,0.562,0.194,0.875c0,0.324-0.07,0.629-0.211,0.915
		s-0.332,0.554-0.574,0.802c-0.243,0.248-0.524,0.492-0.844,0.729c-0.317,0.238-0.656,0.471-1.013,0.697l3.468,3.629
		c0.248-0.433,0.438-0.896,0.566-1.395c0.129-0.497,0.193-1.021,0.193-1.57h0.697c0,0.647-0.084,1.267-0.252,1.854
		s-0.408,1.125-0.721,1.611l2.09,2.171H113.627z M108.704,26.525c0.614,0,1.174-0.137,1.676-0.412s0.938-0.646,1.305-1.109
		l-3.661-3.854c-0.313,0.215-0.603,0.434-0.866,0.655c-0.264,0.221-0.5,0.453-0.705,0.695c-0.205,0.244-0.363,0.502-0.478,0.777
		c-0.114,0.274-0.17,0.576-0.17,0.899c0,0.39,0.086,0.729,0.259,1.021c0.173,0.292,0.396,0.537,0.672,0.738
		c0.275,0.198,0.586,0.348,0.932,0.444C108.011,26.477,108.357,26.525,108.704,26.525z M106.645,17.826
		c0,0.141,0.02,0.281,0.057,0.422c0.039,0.142,0.113,0.305,0.228,0.494s0.271,0.402,0.471,0.64c0.199,0.237,0.461,0.524,0.785,0.858
		c0.356-0.237,0.678-0.461,0.964-0.672s0.532-0.418,0.737-0.624c0.204-0.205,0.364-0.415,0.478-0.632
		c0.113-0.216,0.17-0.447,0.17-0.696c0-0.454-0.173-0.829-0.518-1.126c-0.346-0.297-0.783-0.445-1.312-0.445
		c-0.291,0-0.562,0.048-0.811,0.146c-0.248,0.097-0.467,0.227-0.655,0.389s-0.335,0.352-0.438,0.567
		C106.697,17.362,106.645,17.589,106.645,17.826z"/>
	<path fill="#CCE312" d="M117.256,27.028V15.526h3.822c0.907,0,1.703,0.15,2.389,0.454c0.688,0.302,1.257,0.713,1.711,1.23
		c0.453,0.52,0.793,1.126,1.021,1.822c0.227,0.697,0.34,1.439,0.34,2.229c0,0.873-0.127,1.665-0.381,2.372
		c-0.255,0.707-0.619,1.312-1.095,1.814s-1.05,0.891-1.726,1.166s-1.428,0.413-2.26,0.413H117.256z M125.711,21.26
		c0-0.725-0.103-1.391-0.308-2.002c-0.204-0.608-0.505-1.136-0.899-1.577c-0.395-0.443-0.877-0.789-1.449-1.038
		c-0.572-0.248-1.23-0.373-1.977-0.373h-2.996v10.012h2.996c0.756,0,1.424-0.127,2-0.381c0.578-0.254,1.062-0.607,1.45-1.062
		c0.39-0.454,0.683-0.985,0.884-1.596C125.613,22.635,125.711,21.974,125.711,21.26z"/>
	<path fill="#CCE312" d="M133.049,27.19c-0.594,0-1.145-0.116-1.651-0.35c-0.507-0.232-0.946-0.551-1.319-0.955
		s-0.664-0.872-0.875-1.401c-0.211-0.528-0.315-1.096-0.315-1.701c0-0.594,0.104-1.152,0.315-1.676s0.5-0.982,0.866-1.377
		c0.367-0.396,0.806-0.705,1.312-0.933c0.508-0.227,1.054-0.34,1.637-0.34c0.594,0,1.143,0.115,1.645,0.349
		c0.502,0.232,0.938,0.546,1.305,0.938c0.367,0.396,0.656,0.854,0.867,1.377c0.209,0.524,0.314,1.078,0.314,1.66
		c0,0.055-0.003,0.122-0.008,0.203c-0.006,0.081-0.008,0.133-0.008,0.154h-7.403c0.032,0.485,0.146,0.937,0.34,1.353
		c0.194,0.415,0.438,0.774,0.737,1.077c0.297,0.303,0.641,0.54,1.027,0.713c0.389,0.173,0.806,0.26,1.248,0.26
		c0.291,0,0.58-0.041,0.867-0.122c0.285-0.081,0.551-0.191,0.793-0.332c0.243-0.14,0.459-0.311,0.647-0.511
		c0.188-0.199,0.338-0.418,0.446-0.656l0.711,0.195c-0.129,0.303-0.311,0.58-0.541,0.834c-0.232,0.254-0.502,0.473-0.812,0.656
		c-0.308,0.184-0.646,0.326-1.012,0.43C133.817,27.138,133.439,27.19,133.049,27.19z M136.355,22.492
		c-0.032-0.496-0.144-0.95-0.332-1.361c-0.188-0.409-0.433-0.764-0.729-1.061s-0.64-0.529-1.028-0.696
		c-0.39-0.167-0.806-0.251-1.247-0.251s-0.857,0.084-1.247,0.251s-0.731,0.399-1.028,0.696c-0.298,0.297-0.535,0.654-0.714,1.069
		c-0.178,0.416-0.282,0.865-0.315,1.353H136.355z"/>
	<path fill="#CCE312" d="M142.107,27.028l-3.517-8.424h0.859l3.094,7.613l3.127-7.613h0.793l-3.516,8.424H142.107z"/>
</g>
<g>
	<g>
		<path fill="#80BF1F" d="M-40.361-213.094h25.645v25.278h-0.016v5.273h0.016v22.713c0.082,0.324,0.066,0.633,0,0.924v498.812
			h-25.645c-0.533-0.81-2.408-1.719-3.328-2.447c-0.018-0.018-0.033-0.035-0.033-0.035c-0.146-0.111-0.289-0.21-0.436-0.308
			c0.191-4.136,5.816-6.522,6.479-11.21c-3.037,0-5.074,4.186-6.756-0.277c0-0.016-0.016-0.016-0.016-0.032
			c-0.031-0.047-0.048-0.11-0.064-0.159c-1.599-4.447,2.748-7.206,3.91-10.287v-0.016c0.082-0.214,0.146-0.439,0.194-0.649
			c1.974-8.243-1.067-5.563-4.315-1.623c-0.016,0.016-0.029,0.031-0.047,0.05c-2.359,2.869-4.832,6.407-5.559,6.812
			c-7.516,5.24-5.803-11.438-1.357-14.765c2.036-1.914,5.461-0.47,7.853-2.385c2.393-1.897,4.104-6.183,4.784-9.053
			c-3.409-2.368-10.939,5.237-8.889-7.141c5.817,2.388,9.584-6.666,8.889-13.336c-2.731,0.487-5.123,6.199-7.176,1.914
			c-0.482-1.021-0.678-1.979-0.662-2.87c0-0.017,0-0.017,0-0.033c0.08-4.378,5.283-7.105,7.078-9.687
			c0.178-0.243,0.323-0.502,0.42-0.746c4.442-9.054-3.069-4.3-6.836-5.239c-4.104-1.428-8.547-8.097-6.834-14.295
			c3.764-13.335,5.799,4.283,8.887,5.715c3.055,1.537,7.645-6.883,8.193-12.689c0.145-1.363,0.049-2.598-0.34-3.504
			c-1.357-2.84-12.199,2.338-7.24-8.438c0.019-0.031,0.049-0.08,0.064-0.129c1.294-2.873,7.386-5.175,7.305-7.968v-0.015
			c-0.033-0.941-0.742-1.915-2.521-2.97c-2.392-1.43-3.748,1.896-6.495-0.957c-0.68-0.941-1.197-2.938-1.585-4.703
			c-0.017-0.052-0.017-0.101-0.031-0.148c-0.179-0.876-0.323-1.669-0.438-2.286c0.519,0.081,1.021,0.228,1.569,0.422
			c0.017,0,0.048,0.017,0.064,0.017c2.729,0.957,5.801,2.708,8.629-0.438c1.162-1.429,1.712-2.434,1.841-3.196v-0.047
			c0.404-2.761-4.718-2.192-5.251-6.279c-0.26-1.171,0.017-2.305,0.533-3.454l0.016-0.019c0.113-0.26,0.243-0.537,0.373-0.797
			c0.017-0.017,0.017-0.032,0.031-0.048c1.114-2.028,2.764-4.04,3.409-5.969c0.438-1.201,0.469-2.388-0.273-3.538
			c-0.179-0.276-0.372-0.504-0.564-0.666l-0.019-0.018c-2.567-2.158-7.062,3.311-8.646-5.496c3.088-0.488,8.889-4.773,5.14-9.057
			c-2.409-2.384-8.549,1.898-11.635,0.471c-3.07-1.428-8.192-7.609-4.089-11.908c2.729-2.369,6.836,2.385,9.566,2.854
			c2.391,0,6.495-1.428,8.209-4.282c0.938-1.738,1.243-2.775,1.163-3.425v-0.016c-0.03-0.194-0.081-0.341-0.194-0.47
			c0-0.019,0-0.033-0.016-0.033c-0.971-1.249-4.929,0.309-5.415-3.666c-0.419-3.196,2.361-3.911,4.188-5.274
			c0.031-0.032,0.063-0.048,0.096-0.079c0-0.017,0-0.017,0-0.017c0.693-0.521,1.229-1.169,1.391-2.078v-0.065
			c0.096-0.552,0.031-1.217-0.192-2.012c-1.019-3.812-6.837,0-7.517-7.626c-0.354-7.625,6.838-5.71,8.193-12.864
			c0.484-2.385,0.324-4.138-0.273-5.453c-1.697-3.683-6.787-3.764-10.115-3.974h-0.082c-0.403-0.032-0.791-0.049-1.147-0.098
			c-5.815-0.956-9.228-7.14-2.051-9.995c3.41-1.297,11.536,0.926,13.331-5.678c0.016-0.016,0.016-0.016,0.016-0.031
			c0.178-0.699,0.291-1.492,0.323-2.387c0.049-1.362-0.08-2.385-0.339-3.131v-0.016c-0.033-0.13-0.064-0.244-0.129-0.341
			c-0.018-0.017-0.018-0.049-0.033-0.063c-0.744-1.64-2.23-1.703-3.895-1.477c-0.018,0-0.049,0-0.064,0.016
			c-2.827,0.358-6.076,1.492-6.818-3.082c-1.02-8.111,6.834-2.873,9.582-6.199c7.516-8.566-3.766-5.239-4.801-6.197
			c-0.889-0.811-1.373-1.605-1.533-2.434c-0.018-0.016-0.018-0.047-0.018-0.064c-0.42-1.996,1.02-4.039,2.604-6.195l0.016-0.019
			c1.906-2.597,4.008-5.354,3.377-8.437c-1.696-6.652-7.514-0.94-10.584-5.225c-1.373-2.385-2.393-7.154-0.354-9.053
			c1.371-0.957,4.104,1.898,5.814,1.898c1.714-0.471,5.479-1.898,6.158-4.754c0.16-0.859,0.273-1.542,0.307-2.076
			c0.018-0.049,0.018-0.082,0.018-0.115c0.047-0.81-0.064-1.25-0.274-1.477c-0.019-0.016-0.05-0.048-0.082-0.048
			c-0.726-0.583-2.438,0.812-3.731-0.097c-2.054-1.428-3.41,0.957-4.104-3.813c-0.679-4.771,1.372-2.854,3.087-6.196
			c0.533-0.975,1.018-1.852,1.389-2.693l0.018-0.016c1.746-3.619,2.052-6.118-0.438-8.194c-0.016-0.016-0.016-0.016-0.031-0.016
			c-0.613-0.518-1.373-0.989-2.312-1.459c-1.712-0.958-11.956-3.814-5.815-10.481c2.748-3.327,7.529,3.342,11.295,0.957
			c2.246-1.461,2.909-3.261,2.635-5.013c0-0.049-0.017-0.083-0.017-0.131c-0.389-2.206-2.263-4.283-4.331-5.337
			c1.356-1.428,2.393-3.813,3.75-4.755c-1.697,0-4.09-1.427-5.123-3.811c0.209-0.114,0.42-0.227,0.629-0.34h0.017
			c0.032-0.016,0.065-0.034,0.082-0.049c13.832-7.673-10.648-6.797-11.668-9.604c-3.069-11.438,17.774-0.486,16.418-14.293
			c-0.111-1.282-0.354-2.207-0.71-2.855c-0.018-0.064-0.049-0.113-0.082-0.162c-0.322-0.553-0.727-0.877-1.18-1.056h-0.017
			c-0.032-0.016-0.063-0.032-0.112-0.032c-1.986-0.665-4.929,1.217-7.143,0.292c-7.516-3.812-0.34-5.71,2.747-8.095
			c4.444-2.386,6.834-6.198,2.392-9.995c-2.748-2.386-5.816,1.428-7.531-4.3c1.438-1.427,3.25-1.492,4.978-1.703
			c0.019-0.017,0.049-0.017,0.065-0.017c1.131-0.145,2.229-0.389,3.166-1.135c3.104-3.083,2.764-5.177,0.922-6.264
			c0,0-0.016,0-0.016-0.015c-1.002-0.567-2.425-0.859-3.976-0.859c-0.114-2.321,0.92-4.138,2.004-5.6h0.017
			c2.246-3.049,4.67-4.542-2.717-5.839c1.02-2.824,5.721-3.31,6.143-6.571v-0.016c0.017-0.033,0.017-0.049,0.017-0.083
			c0.339-2.368-3.071-0.94-2.731-1.898v-4.283c-0.226-1.816,2.004-2.092,2.133-2.659c0.018-0.017,0.018-0.017,0.018-0.034v-0.016
			c0-0.244-0.372-0.536-1.453-1.006c0,0-0.018-0.016-0.033-0.016c-0.05-0.016-0.098-0.049-0.146-0.065
			c-0.323-0.146-0.728-0.31-1.195-0.486c-2.052-0.959-5.139,1.897-7.19,0c-9.229-9.54,24.966-2.388,8.549-15.723
			c6.496-2.854,1.374-7.625-2.73-7.625c0-2.416,2.196-3.828,3.846-5.109c0.017,0,0.017-0.018,0.031-0.018
			c1.893-1.492,3.041-2.806-0.808-5.354c-0.404-0.308-0.97-0.453-1.663-0.453h-0.081c-3.329-0.066-9.082,2.465-10.213-1.446
			c-1.147-4.769,1.875-5.128,5.042-4.396c0.031,0,0.047,0.016,0.08,0.016c2.488,0.584,5.072,1.786,5.816,1.997
			c4.443,0.487,9.229-5.241,3.07-4.753c0.016-0.195,0.031-0.374,0.049-0.569c0-0.016,0-0.016,0-0.032
			c0.484-9.217-11.149-4.754-3.119-10.839c1.715-1.427,6.836,0.471,6.158-5.71l-0.031-0.292l-0.019-0.099
			c-0.889-5.109-5.752-0.73-5.091-7.235c0.064-0.406,0.162-0.778,0.292-1.119v-0.017c1.438-3.57,6.303-3.521,0.063-7.43
			c-2.408-1.428-10.262,0.47-7.869-6.197c0.679-2.386,19.488-3.813,10.6-8.096c0.389-0.34,0.695-0.682,0.954-0.99
			c0-0.017,0.017-0.032,0.032-0.048c1.035-1.282,1.146-2.337,0.711-3.31l-0.016-0.018C-34.964-208.552-39.166-210.32-40.361-213.094
			z"/>
	</g>
	<g>
		<path fill="#2AA8C3" d="M-34.706-213.094h19.989v53.264c0.08,0.324,0.064,0.633,0,0.924v498.812h-21.766
			c-1.02-0.244-2.617-0.453-3.021-0.584c-1.018-0.323-2.618-0.941-4.186-1.863c-0.018-0.018-0.033-0.035-0.033-0.035
			c-0.178-0.096-0.34-0.192-0.518-0.308c-2.779-1.752-5.316-4.477-4.427-8.273c0.291-0.939,2.003-2.095,4.151-3.214
			c0.018-0.016,0.049-0.016,0.064-0.032c3.248-1.702,7.45-3.31,8.984-3.893c-0.452-5.632-2.762-6.085-5.139-6.555
			c-0.031,0-0.049-0.015-0.082-0.015c-1.42-0.278-2.857-0.586-3.94-1.997c-0.05-0.065-0.114-0.146-0.146-0.228
			c-0.017-0.019-0.017-0.034-0.031-0.05c-1.004-1.737-1.586-6.505-0.194-8.308c2.196-3.812,2.196,0.958,4.767,0.487
			c1.844,0,4.769,0,5.866-1.914c2.567-3.812-0.373-3.812,0-7.609c0-0.975,0.824-4.07,1.374-6.149
			c0.275-1.021,0.469-1.784,0.469-1.945c-1.115-3.813-3.668,0-4.768-3.344c-0.711-1.704-0.323-3.146,0.34-4.478
			c1.341-2.758,3.749-5.013-0.712-7.902c-2.812-1.833-6.271,1.673-9.228,0.392c-0.03-0.017-0.049-0.017-0.08-0.033
			c-0.856-0.405-1.682-1.232-2.424-2.74c-4.041-8.567,2.196-8.567,5.865-7.627c1.438,0.356,2.617,0.616,3.637,0.682h0.08
			c2.684,0.18,4.072-1.021,5.284-5.597c0.177-0.665,0.354-1.412,0.533-2.223c-0.243,0.032-0.519,0.064-0.792,0.081
			c-3.346,0.21-8.209-1.057-6.173-7.221c1.098-2.384,14.657-4.77,7.319-11.438c-0.694-0.635-1.486-0.876-2.344-0.86h-0.078
			c-3.619,0.097-8.402,4.493-12.232,1.818c-4.04-2.387-5.493-10.48-0.729-13.338c1.455-0.939,3.377-0.601,5.381-0.423h0.082
			c2.002,0.179,4.088,0.179,5.897-1.477c5.382-4.769,4.233-5.938,1.472-6.62c-0.033,0-0.05-0.015-0.08-0.015
			c-1.375-0.309-3.138-0.52-4.688-0.989c-3.572-1.072-6.949-4.301-5.916-7.641c0.018-0.052,0.033-0.101,0.05-0.148
			c0.192-0.617,0.565-1.231,1.115-1.849l0.017-0.017c0.389-0.455,0.854-0.878,1.438-1.298c1.051-0.553,5.995-0.635,9.017-2.32
			c0.033-0.016,0.049-0.03,0.08-0.047c2.184-1.252,3.297-3.377,1.165-7.156c-0.872-1.592-3.685-1.786-5.883-2.577
			c-0.017,0-0.05-0.019-0.063-0.019c-2.393-0.878-4.041-2.481-1.763-7.415c1.116-2.336,2.894-3.05,4.733-3.603
			c0.019,0,0.051-0.018,0.064-0.018c0.891-0.26,1.795-0.485,2.637-0.826c1.018-0.438,1.955-1.071,2.666-2.225
			c0.467-0.761,0.84-1.767,1.064-3.113c0.081-0.487,0.146-1.037,0.195-1.639c0.129-1.672-0.195-3.408-0.695-5.16
			c-0.064-0.227-0.13-0.47-0.209-0.714c-0.616-1.946-1.407-3.926-2.005-5.856c-0.323-1.021-0.582-2.043-0.743-3.034
			c-0.259-2.044-1.924-5.062-3.2-8.274v-0.016c-0.081-0.163-0.13-0.309-0.194-0.471c0-0.018,0-0.032-0.016-0.032
			c-0.438-1.136-0.808-2.271-1.051-3.406c-0.55-2.614-0.534-4.332-0.178-5.534c0-0.033,0-0.048,0.017-0.08c0-0.016,0-0.016,0-0.016
			c0.306-0.991,0.824-1.607,1.392-2.078c0.03-0.016,0.047-0.049,0.08-0.064c1.146-0.957,2.455-1.396,2.455-3.181
			c0.371-4.771-0.404-3.05-1.875-6.376c0.356,0.439-0.938-7.139-1.099-7.625c0.728-3.812,1.099-4.283,4.396-8.096
			c-0.938-2.239-2.215-2.743-3.668-2.678h-0.08c-1.892,0.084-4.074,1.104-6.144,0.293c-1.13-0.73-3.103-2.289-3.976-4.268
			c-0.273-0.6-0.436-1.25-0.436-1.932c0-4.753,1.471-2.854,4.04-4.283c3.296-1.896,9.162-0.958,8.789-6.668
			c0-1.542-1.179-2.255-2.261-2.889c-0.016,0-0.051-0.016-0.064-0.031c-0.89-0.504-1.697-0.975-1.697-1.833
			c0-1.282,0.631-2.565,1.373-3.765c0.064-0.098,0.131-0.18,0.18-0.276c0.016-0.017,0.031-0.049,0.048-0.063
			c0.599-0.925,1.244-1.785,1.696-2.563c-2.197-0.958-4.396-1.914-5.493-4.771c1.098-0.713,2.763-1.33,4.396-1.994
			c3.848-1.574,7.465-3.377,2.569-7.059c-1.035-0.665-7.483-0.859-10.698-2.986c-0.033-0.016-0.062-0.047-0.097-0.064
			c-1.261-0.843-1.987-2.012-1.683-3.618c0.293-1.638,2.069-2.237,4.283-2.577c0.031,0,0.064-0.019,0.098-0.019
			c3.57-0.552,8.209-0.487,9.566-3.115c3.652-6.181-1.471-9.522-3.313-14.765c1.472-0.469,4.04-2.383,3.669-4.752
			c-0.354-3.344-2.57-0.957-3.297-2.873c-0.469-0.924-1.405-1.248-1.906-2.142c-0.018-0.032-0.048-0.081-0.064-0.114
			c-0.178-0.373-0.291-0.844-0.274-1.477v-0.048c0.017-0.146,0.017-0.325,0.049-0.503c0.372-3.278,3.216-1.477,3.992-2.807
			c0.016-0.017,0.016-0.033,0.032-0.049c0.34-0.697,0.563-1.33,0.711-1.897c1.356-4.916-3.541-5.111-4.832-7.172
			c-0.695-1.07-0.404-2.661,2.295-5.694c-1.422-0.455-4.202-1.363-5.381-3.147c-0.033-0.048-0.082-0.113-0.113-0.179
			c-2.199-4.77,0-2.854,1.454-4.77c2.214-2.386,8.063-3.814,4.04-10.482c-0.082-0.113-0.163-0.227-0.26-0.323
			c-0.033-0.049-0.064-0.083-0.099-0.131c-2.794-3.131-9.192-0.81-9.549-8.111c-0.211-4.186,1.972-5.436,4.476-6.132h0.018
			c0.049-0.016,0.113-0.034,0.162-0.049c1.712-0.454,3.57-0.667,4.879-1.443c1.262-0.828,3.021-1.802,4.139-3.31
			c0.823-1.104,1.309-2.483,1.001-4.3c-0.146-0.729-0.388-1.233-0.694-1.574c-1.324-1.508-3.767-0.324-4.072-2.238
			c-1.744-7.74,5.203-8.081-1.211-13.888c-0.049-0.064-0.113-0.113-0.164-0.162c-0.258-0.228-0.531-0.471-0.822-0.714
			c-0.129-0.113-0.243-0.228-0.354-0.342h-0.018c-0.018-0.016-0.018-0.016-0.033-0.032c-5.703-5.241-3.135-3.115,1.875-9.638
			c6.157-8.923-1.293-10.918-6.433-14.163c0-0.017-0.015-0.017-0.015-0.017c-0.049-0.033-0.114-0.064-0.162-0.098
			c-6.223-3.341-4.768-5.239,1.471-6.667c0.938-0.244,1.874-0.439,2.779-0.634c0.016,0,0.049-0.015,0.064-0.015
			c3.637-0.746,6.527-1.477,5.704-5.694c-0.146-0.78-0.438-1.671-0.856-2.71c-1.101-2.856-4.023,0-4.023-5.24
			c0-5.71,4.023-2.856,5.141-6.198c0.064-0.259,0.11-0.502,0.146-0.729c0.823-4.721-2.44-5.582-5.222-7.235
			c-0.016,0-0.049-0.017-0.063-0.034v-0.016c-0.501-0.291-1.002-0.616-1.455-1.006c0,0-0.017-0.016-0.03-0.016
			c-0.018-0.016-0.051-0.034-0.065-0.065c-0.55-0.504-1.052-1.103-1.39-1.851c1.842-3.326,14.674-3.812,6.609-9.993
			c0.161-0.179,0.29-0.34,0.42-0.503c1.455-1.849,1.355-3.245,0.694-4.574c-1.244-2.468-4.476-4.69-3.312-9.217
			c0.24-1.071,0.903-1.508,1.566-1.8c1.404-0.633,2.859-0.682,0.631-4.867c-0.745-2.386-3.297-2.386-5.141-2.856
			c-0.11-0.064-0.209-0.112-0.322-0.161c-4.33-2.32-6.043-3.781-6.172-4.771v-0.016c-0.229-1.816,4.943-2.06,8.936-3.31
			c0.032-0.016,0.049-0.016,0.081-0.032c2.456-0.78,4.443-1.932,4.443-4.089c0-3.812-3.669-1.427-4.022-5.24
			c-0.373-2.856,3.668-2.856,3.297-6.197c-0.098-0.487-0.34-0.926-0.711-1.314l-0.099-0.099c-2.617-2.725-10.181-3.991-5.431-8.112
			c0.195-0.13,0.421-0.21,0.632-0.243h0.081v-0.017c0.549-0.065,1.146,0.114,1.761,0.358c0.856,0.356,1.745,0.876,2.618,1.217
			c0.712,0.275,1.404,0.421,2.035,0.227c0.34-0.081,0.646-0.276,0.938-0.585c2.247-2.433,1.633-4.737,0.1-6.472
			c-1.473-1.671-3.783-2.823-5.221-3.052c0-6.196,5.493-5.239,4.022-11.438c-0.146-0.957-1.47-1.979-2.505-2.969
			c-0.018-0.017-0.032-0.032-0.049-0.048c-1.325-1.266-2.148-2.467,0.713-3.31c0.016,0,0.048-0.018,0.062-0.018
			c0.404-0.112,0.872-0.211,1.424-0.323C-34.396-210.304-36.078-211.325-34.706-213.094z"/>
	</g>
	<g>
		<path fill="#EF0A7C" d="M-30.827-213.094h16.11v53.264c0.08,0.324,0.064,0.633,0,0.924v498.812h-16.11
			c1.616-0.615,3.731-1.312,3.767-2.465c0.016-0.844,0.871-1.996,2.973-3.65c-0.68-0.146-1.357-0.389-2.02-0.729
			c-1.682-0.861-3.248-2.32-4.478-4.023c1.374-3.342,4.104-4.282,6.157-7.626c-3.426-2.855-9.243,1.43-5.479-6.197
			c0.695-1.427,4.104-1.427,4.784-4.282c0.016-0.08,0.016-0.163,0.031-0.243c0.563-4.235-1.276-1.443-2.924-2.904
			c0,0-0.033-0.015-0.033-0.032c-0.049-0.048-0.098-0.097-0.146-0.146c-5.816-5.71-6.496-3.812-1.018-10.481
			c4.783-5.709,3.068-6.666-2.053-7.625c-0.485-0.081-1.084-0.098-1.729-0.13c-3.086-0.112-7.435-0.242-7.159-6.538
			c0.178-2.189,1.52-2.888,3.2-3.229c1.582-0.34,3.49-0.355,4.992-1.056c2.053-0.469,4.104-0.958,5.478-3.325
			c2.731-4.771,0.68-2.386,0-5.728c-0.678-1.898-3.085,0.487-3.425-3.327c0-0.956,3.425-4.282,4.104-4.768
			c-1.389-2.273-7.125-2.547-8.726-4.625c-0.438-0.552-0.582-1.25-0.259-2.141c0.225-0.635,0.711-1.382,1.471-2.272
			c2.391-2.87,6.834,0,8.549-4.77c2.035-5.241-1.715-4.771-4.8-5.713c0.695-0.484,1.714-2.853,2.407-3.811
			c-2.052-0.471-3.766-1.9-4.8-4.286c2.393-1.913,7.87-4.768,4.8-9.521c-2.052-2.856-6.156,0.472-8.549-0.957
			c1.018-3.343,3.749-4.77,5.462-7.139c-11.957-5.728,6.157-20.493-3.425-23.816c-1.424-0.521-4.396-0.764-5.817-2.144
			c-0.017-0.017-0.032-0.032-0.05-0.048c-0.872-0.893-1.114-2.271,0.064-4.478c0.438-1.007,1.777-1.33,3.346-1.491h0.08
			c2.117-0.196,4.639-0.082,5.802-0.896c2.506-2.287,2.925-3.666,2.198-4.606c-0.582-0.798-1.955-1.298-3.555-1.771
			c-1.488-0.453-3.168-0.892-4.525-1.555c-2.278-1.104-3.686-2.857-1.971-6.346c0.127-0.34,2.844-1.168,5.785-2.288
			c0.354-0.146,0.711-0.291,1.066-0.438c5.008-2.027,9.84-4.9,3.053-7.754c1.309-1.152,2.021-1.638,2.648-2.207
			c0.697-0.617,1.312-1.314,2.539-3.033c-0.146-0.275-0.291-0.52-0.453-0.764c-1.453-2.14-3.684-2.951-5.493-4.542
			c-0.438-0.405-0.873-0.843-1.245-1.362c1.714-4.283,6.837-3.812,9.923-6.668c-0.194-0.453-0.389-0.859-0.582-1.233
			c-0.502-0.972-1.018-1.688-1.552-2.173c-2.827-2.76-5.8,0.242-8.807-2.791c-3.119-2.986,0.08-4.43,3.279-6.168h0.016
			c2.408-1.328,4.801-2.805,4.51-5.254c-0.227-1.121-0.922-1.866-1.745-2.517c-1.616-1.264-3.716-2.11-3.716-4.64
			c0-3.795,2.729-0.94,3.749-3.795c1.712-4.301-0.341-2.873,0.694-7.156c0.678-2.854,0.338-4.284,2.39-6.182
			c-1.372-0.488-5.121-0.488-6.155-2.385c-2.392-4.771,1.373-2.385,1.712-5.24c1.359-9.523-4.104-5.242-10.26-6.199
			c-0.081-0.016-0.179-0.032-0.259-0.049c-0.033,0-0.051-0.016-0.081-0.016c-0.099-0.016-0.194-0.049-0.308-0.064
			c-1.406-0.342-2.699-0.99-3.732-1.803c0-0.015-0.018-0.015-0.018-0.015c-2.746-2.19-3.537-5.581,0.986-7.576
			c1.162-0.375,2.359-0.39,3.587-0.274c3.476,0.307,7.144,1.671,10.423-1.153c0.162-0.146,0.309-0.292,0.453-0.438
			c0.744-0.713,1.293-1.348,1.682-1.914c0.062-0.082,0.129-0.162,0.178-0.244c2.684-4.12-3.217-4.363-6.416-5.971
			c-9.227-5.24-1.713-6.666,2.053-11.438c1.633-2.271,2.295-3.684,2.326-4.576c0.082-1.541-1.616-1.654-3.344-2.107
			c-1.521-0.406-3.055-1.104-3.428-3.311c-0.289-2.645,1.777-4.512,3.797-6.295c1.133-0.973,2.23-1.948,2.912-3.001
			c0.967-1.509,1.063-3.213-0.892-5.467c-1.712-1.916-6.155,2.368-6.851-2.386c-0.019-0.211-0.019-0.422,0-0.617
			c0.031-0.827,0.322-1.443,0.744-1.946c1.178-1.46,3.359-1.965,3.359-3.634c-0.211-4.625-4.443-3.635-8.191-3.538
			c-1.197,0.049-2.359-0.015-3.314-0.372c-0.016,0-0.048-0.016-0.064-0.016c-0.953-0.374-1.696-1.056-2.101-2.257
			c-1.099-3.422-0.13-5.126,1.665-5.937c0.016,0,0.031-0.016,0.049-0.016c0.209-0.112,0.436-0.176,0.68-0.243
			c3.264-1.021,8.354,0.082,9.582-0.471c1.229-0.568,2.568-1.833,3.862-3.408c2.003-2.368,3.927-5.467,5.362-8.03
			c-1.566-2.061-3.278-3.471-4.782-4.59c-4.396-3.31-6.868-4.139,2.054-11.602c8.129-6.264-1.246-4.478-6.933-6.83
			c-1.245-0.486-2.312-1.201-2.991-2.223c0.971-1.914,2.215-2.823,3.299-3.651c1.633-1.183,2.924-2.173,2.521-5.873
			c-0.341-2.855-6.837-4.753-0.341-7.608c-1.373-1.43-3.426-2.856-5.141-4.3c2.846-4.835,8.293-4.397,11.557-8.421
			c0.259-0.324,0.518-0.698,0.758-1.103c-1.532-1.217-3.78-1.849-5.283-3.424c-0.822-0.858-1.438-2.01-1.55-3.714
			c-0.341-6.198,7.513-7.139,7.853-11.422c0.551-5.842-5.414-7.626-11.764-8.437c-2.618-0.358-5.316-0.536-7.66-0.765h-0.08
			c0,0,0,0-0.017,0c-2.569-0.257-4.687-0.582-5.769-1.279c-10.457-6.133,2.115-9.183,9.209-11.13c0.032,0,0.049-0.016,0.082-0.016
			c1.68-0.47,3.055-0.86,3.7-1.235c0.259-0.113,0.581-0.258,0.938-0.453c2.795-1.461,7.836-5.322,6.914-9.558
			c-1.019-3.34-8.207-1.426-3.407-6.667c-2.296-1.59-3.927-3.049-4.703-4.494c-0.808-1.525-0.663-3.001,0.694-4.574
			c0.809-0.91,2.004-1.851,3.668-2.839c0.064-0.033,0.131-0.083,0.193-0.115c3.943-2.303,5.01-3.894,4.412-5.045
			c-0.857-1.654-5.188-2.369-9.404-2.937c-0.211-0.016-0.42-0.049-0.614-0.081c-1.276-0.212-2.392-0.535-3.313-1.005
			c-0.016,0-0.031-0.018-0.048-0.018c-2.858-1.394-3.911-3.763-2.472-5.806c0.24-0.374,0.58-0.715,1.001-1.055
			c0.985-0.811,2.44-1.526,4.428-2.028c1.778-0.632,7.306-0.649,9.729-2.66c0.742-0.618,1.195-1.412,1.179-2.468
			c-0.017-0.811-0.306-1.8-1-2.968c1.372-2.871-0.341-5.24-2.394-7.155c1.373-4.753-2.392-1.428-2.392-4.283
			c0.34-4.771,4.784-2.854,5.14-5.241c0.662-3.698-3.539-4.396-7.24-4.833c-0.709-0.065-1.405-0.146-2.035-0.227
			c-1.18-0.148-2.149-0.325-2.698-0.649c0.017-0.195,0.048-0.39,0.08-0.567c0.5-2.613,2.974-4.3,5.688-5.614
			c6.076-2.904,13.396-3.911,2.778-9.053c0.341-0.488,1.034-0.959,1.712-1.446c-4.476-2.66-4.699-3.844-3.102-5.514
			c0.984-1.006,2.65-2.208,4.461-4.008c-0.486-0.682-1.245-1.282-2.104-1.833C-30.374-209.233-34.739-210.645-30.827-213.094z"/>
	</g>
	<g>
		<path fill="#CCE312" d="M-14.716-158.906v498.812h-2.618c-0.146-0.031-6.513-0.632-7.935-1.426
			c-0.744-0.356-1.342-0.698-1.793-1.039c-2.344-1.704-1.164-3.116,0.953-4.381c2.391-1.428,5.963-2.709,6.948-4.104
			c-1.276-2.854-3.813-2.854-5.091-6.669c2.537-3.341,5.85-2.385,6.609-9.054c-0.855,0.812-4.461-0.356-7.449-2.546
			c-1.133-0.827-2.166-1.816-2.924-2.904c0,0-0.033-0.015-0.033-0.032c-0.793-1.104-1.276-2.305-1.276-3.567
			c0-7.609,3.556-1.43,4.833-1.9c2.536-0.468,4.312-2.855,5.832-7.138c-2.795-4.771-10.665-0.484-8.128-12.864
			c3.296,4.282,8.128,0.956,9.905-5.242c-1.777-3.326-4.314-1.427-6.094-3.326c-3.554-4.3-1.275-4.3,0.762-7.624
			c8.127-12.865-4.314-0.958-4.573-13.337c1.276-0.957,3.556,0,4.832-1.427c4.313-4.284,0.759-3.327-1.021-6.198
			c-5.332-8.566,4.573-6.181,3.557-17.621c-1.018,0.474-4.315,3.815-5.333,1.917c-2.294-3.813,2.797-6.67,3.038-9.54
			c0.518-6.652-6.594-3.329-5.834-11.422c2.537,0,6.094,2.854,6.352-4.285c0.26-2.854-2.035-4.281-1.777-7.625
			c0.258-2.854,3.055-6.668,3.813-9.052c-1.276,0.486-6.108,6.196-5.851,0c0.259-3.813,4.313-6.183,5.592-8.096
			c-1.746-3.507-5.219-1.947-8.629-0.716c-2.279,0.826-4.524,1.508-6.221,0.455c-0.922-0.569-1.684-1.672-2.184-3.555
			c0.113-0.08,0.21-0.146,0.323-0.225c1.713-1.088,3.62-1.43,5.591-1.559c4.121-0.326,8.499,0.193,11.878-3.928
			c-1.729-2.597-8.128-2.109-12.378-2.871c-0.452-0.082-0.891-0.179-1.275-0.277c-1.357-0.404-2.345-1.021-2.604-2.092
			c-0.273-1.688,0.436-3.065,1.665-4.203c1.905-1.783,5.043-3.033,7.707-4.104c1.924-0.763,3.571-1.443,4.348-2.174
			c-0.308-1.006-1.196-1.395-2.263-1.623c-2.471-0.518-5.979-0.096-5.622-4.087c0.017-0.163,0.063-0.31,0.129-0.455
			c0.873-1.995,5.817-2.435,7.237-2.871c1.277-0.959,3.814-0.959,3.572-4.3c0-2.693-1.666-1.963-2.715-2.094
			c-0.242-0.03-0.453-0.096-0.598-0.274c-0.404-0.683-0.713-1.313-0.954-1.897c-1.601-3.896,0.065-5.826,2.487-9.541
			c-2.293-1.426-4.831,2.386-7.385,0.957c-0.209-0.113-0.42-0.244-0.613-0.373h-0.016c-2.941-2.01-2.974-5.451-0.129-7.252
			c0.258-0.242,1.422-0.356,2.907-0.52c4.299-0.471,11.28-1.312,6.754-6.618c0.502-0.959,0.761-2.386,1.276-3.344
			c-6.366-7.14,1.261-7.608-0.774-13.806c-1.521-5.713-7.61,0.471-5.835-9.994c2.538,0,7.628-2.871,3.814-7.156
			c-1.276-1.896-3.814,1.428-5.35-1.426c-1.195-2.483-1.064-3.667-0.42-4.641c0.404-0.633,1.051-1.168,1.682-1.914
			c0.062-0.082,0.129-0.162,0.178-0.244c0.21-0.243,0.404-0.504,0.599-0.812c1.019-1.444,4.314-4.299,4.572-7.153
			c0.517-5.711-1.519-2.856-3.296-4.285c-4.832-3.812-2.536-3.812,0.24-9.522c-1.065-0.858-2.697-0.341-4.152-0.211
			c-0.953,0.099-1.842,0.019-2.439-0.746c-0.403-0.485-0.711-0.94-0.903-1.362c-1.601-3.262,2.375-4.673,3.942-7.203
			c-1.408-0.324-2.926-0.649-3.572-2.401c-0.291-0.779-0.403-1.851-0.24-3.31c0.727-0.18,1.891,0.08,3.15,0.309
			c2.326,0.454,5.023,0.877,6.01-1.266c2.279-4.771-1.533-4.771-1.018-9.055c0-2.384,2.278-5.24,3.038-7.139
			c-6.352-2.384-3.813-3.341-0.502-11.438c-1.985-2.287-5.721-1.312-8.999-1.412c-2.148-0.047-4.123-0.582-5.236-2.87
			c-2.393-5.404,2.699-8.243,5.816-9.75c0.194-0.083,0.372-0.163,0.533-0.245c3.57-1.427,8.902-1.427,8.388-9.054
			c-0.502-5.709-4.056-3.811,0.517-9.052c-0.517-0.958-3.555-3.812-3.555-4.753c-0.259-3.814,2.795-4.285,3.297-6.668
			c2.035-8.583-3.556-4.77-6.094-8.583c1.262-4.284,4.574-5.71,6.094-9.036c-1.213-2.969-3.136-3.213-5.154-3.116
			c-2.215,0.098-4.559,0.584-6.285-1.654c0.387-1.217,1.002-2.159,1.76-2.873c5.123-4.931,16.596-0.324,6.625-12.361
			c7.887-9.542-3.296-4.771-1.018-12.397c1.018-2.854,5.606-1.897,5.091-6.667c-0.761-3.797-5.332-1.429-6.868-1.429
			c-1.261,0-6.852,0.959-6.092-4.282c0.502-2.855,5.591-2.385,6.607-2.855c4.059-1.427,11.686-7.625,3.557-11.438
			c0.502-0.47,1.275-1.898,2.035-2.369c-1.019-4.771-3.555-1.427-5.849-3.343c1.019-3.812,4.314-3.812,6.351-5.71
			c-1.521-6.914-8.049-0.974-12.137-3.846c-0.695-0.486-1.324-1.232-1.843-2.353c1.486-2.563,3.847-2.725,6.255-2.693
			c2.941,0.049,5.946,0.389,7.48-3.018c-1.276-2.856-3.312-2.856-5.09-3.327c0.761-3.812,3.298-3.342,5.332-4.769
			c-1.52-5.274-5.784-2.272-8.418-4.477c-0.469-0.391-0.89-0.942-1.229-1.721c0.112-0.114,1.082-0.356,2.406-0.747
			C-20.855-154.736-15.394-156.488-14.716-158.906z"/>
	</g>
	<g>
		<path fill="#CCE312" d="M-14.716-184.004v24.174c-0.16-0.698-0.76-1.445-1.906-2.24c0.518-0.486,1.018-1.915,1.52-2.384
			c-3.297-2.384-2.795-6.198,0-8.582c-0.761-1.899-16.773-2.855-8.388-8.079C-22.521-181.732-16.429-182.527-14.716-184.004z"/>
	</g>
	<g>
		<path fill="#CCE312" d="M-17.334-213.094h2.618v27.452c-0.533-0.504-1.535-1.056-3.184-1.672c0.774-0.47,1.535-2.855,2.295-3.341
			c-1.521-1.43-3.312-2.369-4.074-5.241c1.277-1.428,2.797-2.369,3.814-4.283c-2.795-4.285-7.109-0.47-10.423-0.47
			c-1.212,0-2.536-0.114-3.296-0.682c-0.824-0.65-0.954-1.851,0.502-4.09c0.516-0.795,1.146-1.362,1.855-1.752
			c3.557-2.043,9.196,0,12.379-1.573C-15.281-211.244-16.251-212.283-17.334-213.094z"/>
	</g>
</g>
</svg>
