<?xml version="1.0" encoding="utf-8"?>
<!-- Generator: Adobe Illustrator 15.1.0, SVG Export Plug-In . SVG Version: 6.00 Build 0)  -->
<!DOCTYPE svg PUBLIC "-//W3C//DTD SVG 1.1//EN" "http://www.w3.org/Graphics/SVG/1.1/DTD/svg11.dtd">
<svg version="1.1" id="Layer_1" xmlns="http://www.w3.org/2000/svg" xmlns:xlink="http://www.w3.org/1999/xlink" x="0px" y="0px"
	 width="193.201px" height="34.31px" viewBox="-46.737 -0.11 193.201 34.31" enable-background="new -46.737 -0.11 193.201 34.31"
	 xml:space="preserve">
<g>
	<path fill="#FFFFFF" d="M2.264,7.776C3.418,6.577,5,5.978,7.01,5.978c2.009,0,4.068,0.199,6.177,0.599l-0.666,5.328
		c-2.198-0.51-3.708-0.766-4.529-0.766c-1.044,0-1.565,0.422-1.565,1.265c0,0.333,0.25,0.655,0.75,0.966
		c0.5,0.312,1.104,0.638,1.815,0.982c0.71,0.344,1.42,0.755,2.131,1.231c0.71,0.479,1.315,1.16,1.815,2.048
		c0.5,0.889,0.75,1.909,0.75,3.063c0,2.109-0.566,3.741-1.699,4.896c-1.132,1.154-2.736,1.731-4.812,1.731
		c-2.076,0-4.102-0.322-6.077-0.966l0.366-4.962c2.375,0.688,4.029,1.031,4.961,1.031c0.933,0,1.399-0.409,1.399-1.231
		c0-0.421-0.25-0.811-0.75-1.165s-1.104-0.71-1.815-1.065c-0.711-0.354-1.427-0.766-2.147-1.231
		c-0.722-0.466-1.332-1.144-1.832-2.031s-0.75-1.942-0.75-3.164C0.533,10.562,1.11,8.975,2.264,7.776z"/>
	<path fill="#FFFFFF" d="M28.371,11.339h-3.863V26.99h-5.694V11.339h-4.096l0.333-5.027h13.653L28.371,11.339z"/>
	<path fill="#FFFFFF" d="M44.821,12.871c0,1.244-0.189,2.276-0.566,3.097c-0.378,0.821-0.966,1.565-1.765,2.231l2.764,8.791h-6.161
		l-2.064-7.459h-0.766v7.459h-5.594V6.311h7.726c2.22,0,3.846,0.521,4.878,1.564C44.305,8.919,44.821,10.584,44.821,12.871z
		 M38.361,15.535c0.244-0.333,0.366-0.938,0.366-1.815c0-0.877-0.123-1.486-0.366-1.831c-0.245-0.345-0.645-0.517-1.199-0.517
		h-0.899v4.662h0.866C37.706,16.034,38.117,15.868,38.361,15.535z"/>
</g>
<g>
	<path fill="#FFFFFF" d="M49.298,27.028V15.526h3.823c0.907,0,1.703,0.15,2.389,0.454c0.686,0.303,1.256,0.713,1.709,1.23
		c0.454,0.52,0.793,1.126,1.021,1.822c0.227,0.697,0.34,1.439,0.34,2.229c0,0.873-0.127,1.665-0.38,2.372
		c-0.254,0.707-0.619,1.312-1.094,1.814s-1.05,0.891-1.725,1.166c-0.675,0.275-1.428,0.413-2.26,0.413H49.298z M57.754,21.26
		c0-0.725-0.103-1.391-0.308-2.002c-0.205-0.608-0.505-1.136-0.899-1.577c-0.395-0.443-0.878-0.789-1.45-1.038
		c-0.572-0.248-1.231-0.373-1.976-0.373h-2.997v10.012h2.997c0.756,0,1.423-0.127,2-0.381s1.061-0.607,1.45-1.062
		c0.389-0.454,0.683-0.985,0.883-1.596C57.655,22.635,57.754,21.974,57.754,21.26z"/>
	<path fill="#FFFFFF" d="M65.093,27.19c-0.594,0-1.145-0.116-1.652-0.35c-0.508-0.231-0.948-0.551-1.32-0.955
		c-0.373-0.404-0.664-0.872-0.875-1.401c-0.21-0.528-0.316-1.096-0.316-1.701c0-0.594,0.105-1.152,0.316-1.676
		s0.5-0.982,0.867-1.377c0.367-0.396,0.805-0.705,1.312-0.933c0.507-0.227,1.053-0.34,1.636-0.34c0.594,0,1.142,0.115,1.644,0.349
		c0.502,0.231,0.937,0.546,1.304,0.938c0.367,0.396,0.656,0.854,0.867,1.377c0.21,0.524,0.316,1.078,0.316,1.66
		c0,0.055-0.003,0.122-0.008,0.203s-0.008,0.133-0.008,0.154h-7.403c0.032,0.485,0.146,0.937,0.34,1.353
		c0.195,0.415,0.44,0.774,0.737,1.077s0.64,0.54,1.029,0.713c0.389,0.173,0.804,0.26,1.247,0.26c0.292,0,0.581-0.041,0.867-0.122
		c0.286-0.081,0.551-0.191,0.794-0.332c0.243-0.14,0.459-0.311,0.648-0.511c0.189-0.199,0.337-0.418,0.446-0.656l0.712,0.195
		c-0.129,0.303-0.311,0.58-0.542,0.834c-0.232,0.254-0.502,0.473-0.81,0.656c-0.308,0.184-0.646,0.326-1.012,0.43
		C65.859,27.138,65.481,27.19,65.093,27.19z M68.397,22.492c-0.032-0.496-0.143-0.95-0.332-1.361
		c-0.189-0.409-0.432-0.764-0.729-1.061s-0.64-0.529-1.029-0.696c-0.389-0.167-0.805-0.251-1.247-0.251
		c-0.443,0-0.859,0.084-1.248,0.251s-0.732,0.399-1.029,0.696c-0.297,0.297-0.535,0.654-0.713,1.069
		c-0.178,0.416-0.283,0.865-0.315,1.353H68.397z"/>
	<path fill="#FFFFFF" d="M74.489,27.19c-0.648,0-1.269-0.108-1.863-0.324c-0.594-0.216-1.113-0.54-1.555-0.972l0.405-0.552
		c0.454,0.41,0.923,0.714,1.41,0.906c0.486,0.195,1.021,0.293,1.604,0.293c0.733,0,1.324-0.153,1.772-0.463
		c0.448-0.307,0.673-0.736,0.673-1.287c0-0.26-0.057-0.479-0.17-0.656c-0.114-0.178-0.284-0.329-0.512-0.452
		c-0.227-0.125-0.508-0.235-0.842-0.332c-0.334-0.099-0.724-0.2-1.166-0.31c-0.476-0.106-0.889-0.216-1.24-0.324
		c-0.351-0.106-0.64-0.236-0.867-0.389c-0.227-0.149-0.396-0.334-0.51-0.551c-0.113-0.216-0.17-0.491-0.17-0.826
		c0-0.421,0.081-0.788,0.243-1.102c0.162-0.312,0.386-0.572,0.672-0.777s0.616-0.359,0.988-0.462
		c0.372-0.104,0.771-0.153,1.191-0.153c0.659,0,1.241,0.11,1.75,0.332c0.507,0.221,0.901,0.504,1.183,0.851l-0.453,0.438
		c-0.281-0.324-0.646-0.565-1.094-0.729c-0.449-0.162-0.926-0.243-1.434-0.243c-0.313,0-0.607,0.032-0.883,0.097
		c-0.275,0.065-0.516,0.168-0.721,0.31c-0.206,0.141-0.367,0.32-0.486,0.543c-0.119,0.221-0.178,0.481-0.178,0.784
		c0,0.248,0.041,0.448,0.122,0.601c0.081,0.151,0.211,0.281,0.389,0.389c0.178,0.108,0.407,0.203,0.688,0.283
		c0.281,0.081,0.615,0.17,1.004,0.268c0.529,0.129,0.999,0.254,1.409,0.373s0.754,0.265,1.029,0.438
		c0.274,0.172,0.484,0.377,0.631,0.615c0.146,0.236,0.22,0.54,0.22,0.906c0,0.756-0.295,1.358-0.884,1.807
		C76.256,26.966,75.472,27.19,74.489,27.19z"/>
	<path fill="#FFFFFF" d="M80.434,16.693v-1.491h0.811v1.491H80.434z M80.434,27.028v-8.424h0.811v8.424H80.434z"/>
	<path fill="#FFFFFF" d="M88.015,27.158c-0.583,0-1.117-0.121-1.604-0.365c-0.486-0.242-0.906-0.565-1.264-0.972
		s-0.632-0.866-0.826-1.385c-0.193-0.52-0.291-1.055-0.291-1.604c0-0.572,0.094-1.123,0.283-1.651
		c0.188-0.529,0.456-0.996,0.803-1.4c0.346-0.405,0.758-0.728,1.238-0.965c0.48-0.236,1.007-0.355,1.579-0.355
		c0.733,0,1.375,0.191,1.92,0.574c0.546,0.384,1.013,0.852,1.401,1.402v-1.831h0.729v8.586c0,0.572-0.107,1.074-0.324,1.507
		c-0.216,0.432-0.505,0.791-0.867,1.077c-0.36,0.286-0.783,0.502-1.264,0.646c-0.48,0.146-0.984,0.22-1.515,0.22
		c-0.485,0-0.923-0.047-1.312-0.138c-0.39-0.093-0.732-0.223-1.029-0.39s-0.562-0.372-0.795-0.615
		c-0.23-0.243-0.435-0.511-0.606-0.802l0.551-0.373c0.335,0.572,0.789,0.99,1.361,1.256c0.571,0.264,1.183,0.396,1.83,0.396
		c0.433,0,0.84-0.061,1.224-0.179c0.383-0.118,0.719-0.295,1.004-0.526c0.286-0.232,0.514-0.521,0.682-0.866
		c0.166-0.345,0.25-0.751,0.25-1.215v-1.848c-0.346,0.54-0.805,0.979-1.377,1.312C89.225,26.99,88.631,27.158,88.015,27.158z
		 M88.209,26.46c0.355,0,0.701-0.065,1.037-0.202c0.334-0.135,0.64-0.31,0.914-0.525c0.275-0.216,0.506-0.459,0.688-0.729
		c0.185-0.271,0.292-0.541,0.323-0.811v-2.771c-0.129-0.323-0.303-0.625-0.519-0.899c-0.216-0.275-0.461-0.51-0.735-0.704
		c-0.275-0.194-0.573-0.35-0.893-0.462c-0.318-0.113-0.64-0.17-0.964-0.17c-0.508,0-0.961,0.106-1.36,0.323
		s-0.736,0.496-1.013,0.843c-0.276,0.346-0.485,0.736-0.632,1.175c-0.146,0.438-0.219,0.878-0.219,1.32
		c0,0.485,0.086,0.944,0.259,1.377s0.413,0.814,0.722,1.149s0.664,0.6,1.068,0.794C87.293,26.364,87.735,26.46,88.209,26.46z"/>
	<path fill="#FFFFFF" d="M102.208,27.028h-0.812V22.33c0-1.09-0.153-1.885-0.461-2.381c-0.31-0.497-0.804-0.746-1.481-0.746
		c-0.356,0-0.711,0.065-1.062,0.195c-0.352,0.129-0.676,0.312-0.973,0.551c-0.297,0.237-0.559,0.516-0.785,0.834
		s-0.396,0.662-0.502,1.029v5.216h-0.811v-8.424h0.745v2.009c0.172-0.324,0.39-0.618,0.647-0.883
		c0.26-0.266,0.545-0.492,0.857-0.682c0.312-0.188,0.651-0.335,1.014-0.438c0.361-0.104,0.73-0.153,1.109-0.153
		c0.917,0,1.564,0.32,1.943,0.963c0.378,0.644,0.566,1.564,0.566,2.764v4.844H102.208z"/>
	<path fill="#FFFFFF" d="M113.627,27.028l-1.476-1.539c-0.442,0.519-0.964,0.932-1.562,1.239c-0.6,0.309-1.256,0.462-1.969,0.462
		c-0.486,0-0.945-0.07-1.377-0.211c-0.434-0.141-0.815-0.344-1.15-0.607c-0.336-0.264-0.6-0.583-0.795-0.956
		c-0.193-0.372-0.291-0.796-0.291-1.271c0-0.39,0.068-0.745,0.203-1.068c0.135-0.324,0.317-0.627,0.551-0.908
		c0.232-0.279,0.502-0.543,0.811-0.785s0.635-0.482,0.979-0.721c-0.303-0.324-0.559-0.619-0.77-0.883
		c-0.21-0.266-0.384-0.506-0.519-0.721c-0.136-0.218-0.231-0.425-0.291-0.625c-0.06-0.199-0.091-0.396-0.091-0.592
		c0-0.335,0.074-0.649,0.22-0.947c0.146-0.296,0.346-0.559,0.601-0.785c0.254-0.228,0.551-0.405,0.891-0.535
		c0.341-0.129,0.711-0.194,1.109-0.194c0.367,0,0.711,0.058,1.028,0.17c0.317,0.113,0.595,0.268,0.826,0.462
		c0.231,0.193,0.413,0.427,0.543,0.696c0.13,0.271,0.194,0.562,0.194,0.875c0,0.324-0.07,0.629-0.211,0.915
		s-0.332,0.554-0.574,0.802c-0.243,0.248-0.524,0.492-0.844,0.729c-0.317,0.238-0.656,0.471-1.013,0.697l3.468,3.629
		c0.248-0.433,0.438-0.896,0.566-1.395c0.129-0.497,0.193-1.021,0.193-1.57h0.697c0,0.647-0.084,1.267-0.252,1.854
		s-0.408,1.125-0.721,1.611l2.09,2.171H113.627z M108.704,26.525c0.614,0,1.174-0.137,1.676-0.412s0.938-0.646,1.305-1.109
		l-3.661-3.854c-0.313,0.215-0.603,0.434-0.866,0.655c-0.264,0.221-0.5,0.453-0.705,0.695c-0.205,0.244-0.363,0.502-0.478,0.777
		c-0.114,0.274-0.17,0.576-0.17,0.899c0,0.39,0.086,0.729,0.259,1.021c0.173,0.292,0.396,0.537,0.672,0.738
		c0.275,0.198,0.586,0.348,0.932,0.444C108.011,26.477,108.357,26.525,108.704,26.525z M106.645,17.826
		c0,0.141,0.02,0.281,0.057,0.422c0.039,0.142,0.113,0.305,0.228,0.494s0.271,0.402,0.471,0.64c0.199,0.237,0.461,0.524,0.785,0.858
		c0.356-0.237,0.678-0.461,0.964-0.672s0.532-0.418,0.737-0.624c0.204-0.205,0.364-0.415,0.478-0.632
		c0.113-0.216,0.17-0.447,0.17-0.696c0-0.454-0.173-0.829-0.518-1.126c-0.346-0.297-0.783-0.445-1.312-0.445
		c-0.291,0-0.562,0.048-0.811,0.146c-0.248,0.097-0.467,0.227-0.655,0.389s-0.335,0.352-0.438,0.567
		C106.697,17.362,106.645,17.589,106.645,17.826z"/>
	<path fill="#FFFFFF" d="M117.256,27.028V15.526h3.822c0.907,0,1.703,0.15,2.389,0.454c0.688,0.302,1.257,0.713,1.711,1.23
		c0.453,0.52,0.793,1.126,1.021,1.822c0.227,0.697,0.34,1.439,0.34,2.229c0,0.873-0.127,1.665-0.381,2.372
		c-0.255,0.707-0.619,1.312-1.095,1.814s-1.05,0.891-1.726,1.166s-1.428,0.413-2.26,0.413H117.256z M125.711,21.26
		c0-0.725-0.103-1.391-0.308-2.002c-0.204-0.608-0.505-1.136-0.899-1.577c-0.395-0.443-0.877-0.789-1.449-1.038
		c-0.572-0.248-1.23-0.373-1.977-0.373h-2.996v10.012h2.996c0.756,0,1.424-0.127,2-0.381c0.578-0.254,1.062-0.607,1.45-1.062
		c0.39-0.454,0.683-0.985,0.884-1.596C125.613,22.635,125.711,21.974,125.711,21.26z"/>
	<path fill="#FFFFFF" d="M133.049,27.19c-0.594,0-1.145-0.116-1.651-0.35c-0.507-0.232-0.946-0.551-1.319-0.955
		s-0.664-0.872-0.875-1.401c-0.211-0.528-0.315-1.096-0.315-1.701c0-0.594,0.104-1.152,0.315-1.676s0.5-0.982,0.866-1.377
		c0.367-0.396,0.806-0.705,1.312-0.933c0.508-0.227,1.054-0.34,1.637-0.34c0.594,0,1.143,0.115,1.645,0.349
		c0.502,0.232,0.938,0.546,1.305,0.938c0.367,0.396,0.656,0.854,0.867,1.377c0.209,0.524,0.314,1.078,0.314,1.66
		c0,0.055-0.003,0.122-0.008,0.203c-0.006,0.081-0.008,0.133-0.008,0.154h-7.403c0.032,0.485,0.146,0.937,0.34,1.353
		c0.194,0.415,0.438,0.774,0.737,1.077c0.297,0.303,0.641,0.54,1.027,0.713c0.389,0.173,0.806,0.26,1.248,0.26
		c0.291,0,0.58-0.041,0.867-0.122c0.285-0.081,0.551-0.191,0.793-0.332c0.243-0.14,0.459-0.311,0.647-0.511
		c0.188-0.199,0.338-0.418,0.446-0.656l0.711,0.195c-0.129,0.303-0.311,0.58-0.541,0.834c-0.232,0.254-0.502,0.473-0.812,0.656
		c-0.308,0.184-0.646,0.326-1.012,0.43C133.817,27.138,133.439,27.19,133.049,27.19z M136.355,22.492
		c-0.032-0.496-0.144-0.95-0.332-1.361c-0.188-0.409-0.433-0.764-0.729-1.061s-0.64-0.529-1.028-0.696
		c-0.39-0.167-0.806-0.251-1.247-0.251s-0.857,0.084-1.247,0.251s-0.731,0.399-1.028,0.696c-0.298,0.297-0.535,0.654-0.714,1.069
		c-0.178,0.416-0.282,0.865-0.315,1.353H136.355z"/>
	<path fill="#FFFFFF" d="M142.107,27.028l-3.517-8.424h0.859l3.094,7.613l3.127-7.613h0.793l-3.516,8.424H142.107z"/>
</g>
<g id="Arrow_28">
	<path fill="#FFFFFF" d="M-8.716,20.609h-22.862l9.242,9.242h-11.198l-13.204-13.2l13.204-13.203h11.198l-9.242,9.241h22.862V20.609
		z"/>
</g>
</svg>
