<?xml version="1.0" encoding="UTF-8" standalone="no"?>
<!DOCTYPE svg PUBLIC "-//W3C//DTD SVG 1.1//EN" "http://www.w3.org/Graphics/SVG/1.1/DTD/svg11.dtd">
<svg width="100%" height="100%" viewBox="0 0 111 112" version="1.1" xmlns="http://www.w3.org/2000/svg" xmlns:xlink="http://www.w3.org/1999/xlink" xml:space="preserve" xmlns:serif="http://www.serif.com/" style="fill-rule:evenodd;clip-rule:evenodd;stroke-miterlimit:10;">
    <g id="Artboard1" transform="matrix(0.710246,-0.00261529,0.00262614,0.713193,19.3453,19.6892)">
        <rect x="-27.137" y="-27.137" width="155.274" height="155.274" style="fill:none;"/>
        <clipPath id="_clip1">
            <rect x="-27.137" y="-27.137" width="155.274" height="155.274"/>
        </clipPath>
        <g clip-path="url(#_clip1)">
            <g transform="matrix(1.40794,0.00516295,-0.00518437,1.40213,-20.2439,-20.8517)">
                <circle cx="50.5" cy="50.5" r="50" style="fill:white;stroke:black;stroke-width:5.5px;"/>
            </g>
            <g transform="matrix(1.40794,0.00516295,-0.00518437,1.40213,-20.2439,-20.8517)">
                <path d="M83.833,50.5C83.833,52.985 81.346,55.001 78.277,55.001L22.722,55.001C19.654,55.001 17.166,52.985 17.166,50.5C17.166,48.015 19.653,46.001 22.722,46.001L78.278,46.001C81.346,46 83.833,48.014 83.833,50.5Z" style="fill-rule:nonzero;"/>
                <path d="M76.944,67.679C76.944,69.613 74.97,71.18 72.537,71.18L28.463,71.18C26.029,71.18 24.056,69.613 24.056,67.679C24.056,65.746 26.03,64.18 28.463,64.18L72.537,64.18C74.971,64.18 76.944,65.747 76.944,67.679Z" style="fill-rule:nonzero;"/>
                <path d="M76.944,33.32C76.944,35.254 74.97,36.82 72.537,36.82L28.463,36.82C26.029,36.82 24.056,35.254 24.056,33.32C24.056,31.386 26.03,29.82 28.463,29.82L72.537,29.82C74.971,29.82 76.944,31.386 76.944,33.32Z" style="fill-rule:nonzero;"/>
            </g>
        </g>
    </g>
</svg>
