<?xml version="1.0" encoding="utf-8"?>
<!-- Generator: Adobe Illustrator 15.1.0, SVG Export Plug-In . SVG Version: 6.00 Build 0)  -->
<!DOCTYPE svg PUBLIC "-//W3C//DTD SVG 1.1//EN" "http://www.w3.org/Graphics/SVG/1.1/DTD/svg11.dtd">
<svg version="1.1" id="Layer_1" xmlns="http://www.w3.org/2000/svg" xmlns:xlink="http://www.w3.org/1999/xlink" x="0px" y="0px"
	 width="101px" height="101px" viewBox="0 0 101 101" enable-background="new 0 0 101 101" xml:space="preserve">
<circle fill="#FFFFFF" stroke="#FFFFFF" stroke-miterlimit="10" cx="50.5" cy="50.5" r="50"/>
<g>
	<path d="M83.833,50.5c0,2.485-2.487,4.501-5.556,4.501H22.722c-3.068,0-5.556-2.016-5.556-4.501l0,0
		c0-2.485,2.487-4.499,5.556-4.499h55.556C81.346,46,83.833,48.014,83.833,50.5L83.833,50.5z"/>
	<path d="M76.944,67.679c0,1.934-1.974,3.501-4.407,3.501H28.463c-2.434,0-4.407-1.567-4.407-3.501l0,0
		c0-1.933,1.974-3.499,4.407-3.499h44.074C74.971,64.18,76.944,65.747,76.944,67.679L76.944,67.679z"/>
	<path d="M76.944,33.32c0,1.934-1.974,3.5-4.407,3.5H28.463c-2.434,0-4.407-1.566-4.407-3.5l0,0c0-1.934,1.974-3.5,4.407-3.5h44.074
		C74.971,29.82,76.944,31.386,76.944,33.32L76.944,33.32z"/>
</g>
</svg>
