<?xml version="1.0" encoding="utf-8"?>
<!-- Generator: Adobe Illustrator 23.0.3, SVG Export Plug-In . SVG Version: 6.00 Build 0)  -->
<svg version="1.1" id="Layer_1" xmlns="http://www.w3.org/2000/svg" xmlns:xlink="http://www.w3.org/1999/xlink" x="0px" y="0px"
	 viewBox="0 0 100.1 79.9" style="enable-background:new 0 0 100.1 79.9;" xml:space="preserve">
<style type="text/css">
	.st0{fill:#FFFFFF;}
</style>
<rect y="0" width="100.1" height="80"/>
<path class="st0" d="M86.6,22.3H16.9V17h-4.4v18.4h7.6V29h16.8v6.4h2.8V29h16.8v6.4h5.2v-4.8h7.6c0.4-3,2.9-5.2,6-5.2
	c3.4,0,6.1,2.7,6.1,6.1s-2.7,6.1-6.1,6.1c-3.3,0-6-2.6-6.1-5.9h-6.6v12.4h6.7c0.4-2.9,2.9-5.2,6-5.2c3.4,0,6.1,2.7,6.1,6.1
	c0,3.4-2.7,6.1-6.1,6.1c-3.3,0-6-2.6-6.1-5.9h-6.6v12.5h6.7c0.4-3,2.9-5.3,6-5.3c3.4,0,6.1,2.7,6.1,6.1s-2.7,6.1-6.1,6.1
	c-3.3,0-5.9-2.6-6.1-5.8h-7.5V36.4h-5.2v7.3H39.8v-7.3H37v7.3h-8.4V58H42v-7h16.8v14.5H41.9v-6.8H27.6V43.6h-7.5v-7.3h-8.5V16h5.3
	v-2.6h69.8L86.6,22.3L86.6,22.3z"/>
</svg>
