<?xml version="1.0" encoding="utf-8"?>
<!-- Generator: Adobe Illustrator 15.1.0, SVG Export Plug-In . SVG Version: 6.00 Build 0)  -->
<!DOCTYPE svg PUBLIC "-//W3C//DTD SVG 1.1//EN" "http://www.w3.org/Graphics/SVG/1.1/DTD/svg11.dtd">
<svg version="1.1" id="Layer_1" xmlns="http://www.w3.org/2000/svg" xmlns:xlink="http://www.w3.org/1999/xlink" x="0px" y="0px"
	 width="102.051px" height="80px" viewBox="0 0 102.051 80" enable-background="new 0 0 102.051 80" xml:space="preserve">
<rect width="102.051" height="80"/>
<path fill="#FFFFFF" d="M19.474,23.174v-5.007h-4.175V35.68h7.239v-6.052h16.001v6.052h2.695v-6.052h16v6.052h4.949v-4.517h7.196
	c0.401-2.796,2.806-4.932,5.702-4.932c3.188,0,5.775,2.579,5.775,5.769c0,3.186-2.588,5.767-5.775,5.767
	c-3.14,0-5.693-2.504-5.761-5.635H63.02v11.776h6.36c0.401-2.795,2.806-4.932,5.702-4.932c3.188,0,5.775,2.581,5.775,5.768
	s-2.588,5.768-5.775,5.768c-3.131,0-5.693-2.506-5.761-5.626H63.02V56.77h6.346c0.35-2.844,2.779-5.047,5.719-5.047
	c3.188,0,5.775,2.589,5.775,5.768c0,3.188-2.588,5.773-5.775,5.773c-3.098,0-5.635-2.453-5.75-5.523h-7.148V36.514h-4.949V43.4
	H41.234v-6.887h-2.695V43.4h-8.005v13.538H43.22v-6.47h15.992v13.773H43.221v-6.471H29.699V43.398h-7.161v-6.887h-8.072V17.188
	h5.007v-2.504h66.26v8.49L19.474,23.174L19.474,23.174z"/>
</svg>
