<?xml version="1.0" encoding="utf-8"?>
<!-- Generator: Adobe Illustrator 15.1.0, SVG Export Plug-In . SVG Version: 6.00 Build 0)  -->
<!DOCTYPE svg PUBLIC "-//W3C//DTD SVG 1.1//EN" "http://www.w3.org/Graphics/SVG/1.1/DTD/svg11.dtd">
<svg version="1.1" id="Layer_1" xmlns="http://www.w3.org/2000/svg" xmlns:xlink="http://www.w3.org/1999/xlink" x="0px" y="0px"
	 width="102.051px" height="80px" viewBox="1.875 1.47 102.051 80" enable-background="new 1.875 1.47 102.051 80"
	 xml:space="preserve">
<path d="M1.871,1.47v80h102.06v-80H1.871z M89.481,23.79h-69.74v-5.28h-4.4v18.44h7.62v-6.37h16.84v6.37h2.84v-6.37h16.84v6.37h5.21
	V32.2h7.58c0.42-2.95,2.95-5.2,6-5.2c3.36,0,6.08,2.72,6.08,6.08c0,3.35-2.72,6.07-6.08,6.07c-3.3,0-5.99-2.64-6.061-5.93h-6.64
	v12.39h6.7c0.42-2.939,2.95-5.189,6-5.189c3.36,0,6.08,2.72,6.08,6.069c0,3.36-2.72,6.07-6.08,6.07c-3.29,0-5.99-2.63-6.061-5.92
	h-6.64v12.51h6.68c0.37-2.989,2.931-5.31,6.021-5.31c3.36,0,6.08,2.72,6.08,6.07c0,3.35-2.72,6.079-6.08,6.079
	c-3.26,0-5.93-2.59-6.05-5.819h-7.521V37.83h-5.22v7.25h-16.84v-7.25h-2.84v7.25h-8.42v14.25h13.35V52.52h16.84v14.5h-16.84v-6.81
	h-14.23V45.08h-7.54v-7.25h-8.5V17.49h5.27v-2.64h69.75V23.79z"/>
</svg>
