<?xml version="1.0" encoding="utf-8"?>
<!-- Generator: Adobe Illustrator 15.1.0, SVG Export Plug-In . SVG Version: 6.00 Build 0)  -->
<!DOCTYPE svg PUBLIC "-//W3C//DTD SVG 1.1//EN" "http://www.w3.org/Graphics/SVG/1.1/DTD/svg11.dtd">
<svg version="1.1" id="Layer_1" xmlns="http://www.w3.org/2000/svg" xmlns:xlink="http://www.w3.org/1999/xlink" x="0px" y="0px"
	 width="87px" height="553px" viewBox="0 0 87 553" enable-background="new 0 0 87 553" xml:space="preserve">
<rect x="0.054" y="0.08" width="86.946" height="553"/>
<g>
	<g>
		<path fill="#80BF1F" d="M22.007,553.08H0.046v-25.277H0.06v-5.272H0.046v-22.713c-0.069-0.324-0.056-0.634,0-0.926V0.08h21.961
			c0.457,0.81,2.062,1.719,2.85,2.447c0.016,0.018,0.029,0.035,0.029,0.035c0.124,0.112,0.247,0.21,0.372,0.308
			c-0.163,4.136-4.98,6.523-5.547,11.21c2.601,0,4.345-4.186,5.786,0.277c0,0.016,0.013,0.016,0.013,0.033
			c0.027,0.046,0.041,0.11,0.056,0.159c1.369,4.447-2.354,7.206-3.349,10.287v0.015c-0.07,0.214-0.125,0.44-0.166,0.65
			c-1.69,8.243,0.914,5.563,3.695,1.623c0.014-0.016,0.025-0.031,0.04-0.05c2.021-2.869,4.138-6.407,4.76-6.812
			c6.437-5.241,4.97,11.438,1.163,14.764c-1.744,1.914-4.677,0.47-6.725,2.385c-2.049,1.898-3.515,6.183-4.097,9.053
			c2.919,2.368,9.368-5.238,7.612,7.14c-4.981-2.387-8.208,6.666-7.612,13.336c2.339-0.487,4.387-6.199,6.145-1.914
			c0.413,1.021,0.58,1.979,0.567,2.87c0,0.017,0,0.017,0,0.034c-0.069,4.378-4.524,7.105-6.062,9.686
			c-0.152,0.243-0.277,0.502-0.359,0.746c-3.804,9.054,2.628,4.3,5.854,5.239c3.514,1.428,7.319,8.097,5.853,14.295
			c-3.224,13.335-4.966-4.283-7.61-5.714c-2.616-1.538-6.546,6.882-7.016,12.689c-0.125,1.363-0.042,2.598,0.291,3.504
			c1.163,2.84,10.447-2.338,6.2,8.438c-0.016,0.032-0.042,0.08-0.055,0.129c-1.108,2.873-6.325,5.175-6.256,7.968v0.015
			c0.028,0.941,0.636,1.915,2.16,2.969c2.047,1.43,3.209-1.896,5.562,0.957c0.582,0.942,1.025,2.938,1.357,4.704
			c0.014,0.051,0.014,0.1,0.026,0.148c0.153,0.876,0.277,1.669,0.376,2.286c-0.444-0.081-0.875-0.228-1.344-0.422
			c-0.015,0-0.041-0.016-0.056-0.016c-2.338-0.957-4.968-2.708-7.39,0.438c-0.995,1.429-1.466,2.434-1.576,3.196v0.047
			c-0.346,2.761,4.04,2.193,4.497,6.28c0.222,1.17-0.015,2.304-0.457,3.454l-0.013,0.018c-0.097,0.26-0.208,0.537-0.32,0.797
			c-0.014,0.017-0.014,0.032-0.026,0.048c-0.955,2.028-2.367,4.04-2.919,5.969c-0.375,1.201-0.402,2.388,0.234,3.538
			c0.153,0.276,0.319,0.504,0.483,0.666l0.016,0.017c2.199,2.158,6.048-3.31,7.404,5.497c-2.645,0.488-7.612,4.773-4.401,9.056
			c2.062,2.384,7.32-1.898,9.963-0.471c2.63,1.428,7.016,7.61,3.502,11.909c-2.338,2.369-5.854-2.385-8.192-2.855
			c-2.047,0-5.562,1.428-7.03,4.283c-0.804,1.737-1.065,2.775-0.996,3.424v0.016c0.026,0.194,0.069,0.34,0.167,0.47
			c0,0.018,0,0.033,0.013,0.033c0.832,1.249,4.221-0.309,4.637,3.666c0.358,3.196-2.022,3.911-3.587,5.274
			c-0.026,0.033-0.054,0.048-0.082,0.08c0,0.016,0,0.016,0,0.016c-0.594,0.52-1.052,1.169-1.19,2.078v0.065
			c-0.082,0.552-0.027,1.217,0.166,2.012c0.871,3.812,5.854,0,6.436,7.626c0.303,7.625-5.856,5.71-7.017,12.865
			c-0.415,2.384-0.278,4.137,0.234,5.452c1.453,3.683,5.812,3.764,8.662,3.974h0.07c0.346,0.033,0.678,0.049,0.982,0.098
			c4.98,0.956,7.902,7.139,1.757,9.995c-2.921,1.297-9.879-0.926-11.417,5.678c-0.014,0.016-0.014,0.016-0.014,0.031
			c-0.152,0.699-0.249,1.492-0.277,2.386c-0.042,1.363,0.069,2.385,0.291,3.131v0.016c0.028,0.13,0.055,0.244,0.11,0.341
			c0.015,0.016,0.015,0.049,0.028,0.064c0.637,1.639,1.91,1.703,3.335,1.476c0.015,0,0.041,0,0.055-0.015
			c2.421-0.359,5.203-1.493,5.839,3.082c0.873,8.111-5.853,2.872-8.206,6.198c-6.436,8.567,3.225,5.24,4.112,6.198
			c0.761,0.811,1.176,1.605,1.312,2.433c0.015,0.016,0.015,0.048,0.015,0.065c0.36,1.996-0.873,4.039-2.229,6.195l-0.013,0.019
			c-1.633,2.597-3.433,5.354-2.892,8.437c1.453,6.652,6.434,0.94,9.064,5.225c1.176,2.385,2.049,7.154,0.303,9.053
			c-1.175,0.957-3.515-1.898-4.979-1.898c-1.468,0.471-4.692,1.898-5.274,4.754c-0.137,0.859-0.234,1.542-0.262,2.076
			c-0.015,0.049-0.015,0.082-0.015,0.115c-0.041,0.81,0.055,1.25,0.235,1.477c0.016,0.016,0.042,0.048,0.07,0.048
			c0.621,0.583,2.088-0.812,3.195,0.097c1.759,1.428,2.92-0.957,3.515,3.813c0.582,4.771-1.175,2.854-2.644,6.196
			c-0.456,0.975-0.871,1.852-1.188,2.693L22.6,323.98c-1.495,3.619-1.757,6.119,0.375,8.194c0.014,0.017,0.014,0.017,0.026,0.017
			c0.525,0.518,1.176,0.988,1.979,1.459c1.467,0.957,10.239,3.813,4.98,10.48c-2.354,3.327-6.448-3.342-9.673-0.957
			c-1.924,1.461-2.491,3.262-2.256,5.014c0,0.049,0.014,0.082,0.014,0.131c0.333,2.205,1.938,4.283,3.709,5.337
			c-1.162,1.428-2.049,3.812-3.211,4.755c1.453,0,3.501,1.427,4.386,3.811c-0.179,0.114-0.359,0.228-0.538,0.34h-0.015
			c-0.027,0.017-0.056,0.035-0.07,0.049c-11.845,7.674,9.119,6.798,9.992,9.605c2.629,11.438-15.222,0.486-14.06,14.292
			c0.095,1.282,0.303,2.207,0.608,2.855c0.015,0.063,0.042,0.112,0.07,0.161c0.276,0.554,0.622,0.877,1.01,1.058h0.014
			c0.028,0.017,0.054,0.031,0.096,0.031c1.701,0.665,4.221-1.218,6.116-0.292c6.437,3.812,0.292,5.71-2.352,8.095
			c-3.807,2.387-5.853,6.198-2.048,9.995c2.353,2.386,4.981-1.428,6.45,4.3c-1.232,1.428-2.783,1.492-4.263,1.703
			c-0.017,0.016-0.042,0.016-0.057,0.016c-0.968,0.146-1.908,0.391-2.711,1.137c-2.658,3.083-2.367,5.177-0.79,6.265
			c0,0,0.014,0,0.014,0.015c0.858,0.567,2.077,0.859,3.405,0.859c0.098,2.321-0.788,4.138-1.717,5.6h-0.014
			c-1.924,3.05-3.999,4.542,2.326,5.839c-0.873,2.824-4.899,3.312-5.26,6.57v0.017c-0.014,0.032-0.014,0.05-0.014,0.083
			c-0.29,2.367,2.63,0.939,2.339,1.896v4.283c0.193,1.815-1.716,2.093-1.827,2.66c-0.015,0.017-0.015,0.017-0.015,0.033v0.016
			c0,0.244,0.319,0.536,1.245,1.006c0,0,0.015,0.016,0.028,0.016c0.042,0.018,0.083,0.051,0.125,0.065
			c0.277,0.146,0.623,0.31,1.024,0.486c1.757,0.959,4.4-1.897,6.157,0c7.903,9.54-21.38,2.388-7.321,15.724
			c-5.562,2.854-1.177,7.625,2.338,7.625c0,2.416-1.881,3.827-3.293,5.109c-0.014,0-0.014,0.018-0.027,0.018
			c-1.62,1.492-2.604,2.806,0.692,5.354c0.346,0.309,0.831,0.452,1.424,0.452h0.069c2.851,0.065,7.777-2.465,8.746,1.445
			c0.982,4.77-1.606,5.128-4.318,4.396c-0.026,0-0.04-0.017-0.068-0.017c-2.131-0.585-4.344-1.787-4.981-1.997
			c-3.805-0.486-7.903,5.241-2.629,4.753c-0.014,0.195-0.026,0.373-0.042,0.568c0,0.017,0,0.017,0,0.033
			c-0.415,9.217,9.548,4.754,2.671,10.838c-1.468,1.428-5.854-0.471-5.273,5.711l0.026,0.291l0.016,0.099
			c0.761,5.108,4.926,0.729,4.359,7.235c-0.055,0.406-0.139,0.777-0.25,1.119v0.018c-1.231,3.569-5.397,3.521-0.054,7.431
			c2.062,1.428,8.788-0.472,6.739,6.196c-0.581,2.387-16.689,3.812-9.077,8.097c-0.333,0.34-0.596,0.682-0.817,0.989
			c0,0.018-0.015,0.031-0.028,0.048c-0.887,1.282-0.981,2.338-0.609,3.311l0.014,0.018C17.386,548.537,20.983,550.306,22.007,553.08
			z"/>
	</g>
	<g>
		<path fill="#2AA8C3" d="M17.164,553.08H0.046v-53.264c-0.069-0.324-0.056-0.634,0-0.926V0.08h18.639
			c0.874,0.244,2.242,0.453,2.588,0.584c0.871,0.323,2.242,0.941,3.584,1.863c0.016,0.018,0.029,0.035,0.029,0.035
			c0.151,0.096,0.291,0.193,0.442,0.308c2.381,1.752,4.553,4.477,3.791,8.274c-0.249,0.939-1.715,2.094-3.555,3.213
			c-0.016,0.016-0.042,0.016-0.056,0.033c-2.781,1.702-6.38,3.309-7.694,3.892c0.388,5.632,2.365,6.085,4.401,6.555
			c0.026,0,0.042,0.015,0.07,0.015c1.216,0.278,2.447,0.585,3.374,1.997c0.043,0.065,0.099,0.146,0.125,0.227
			c0.015,0.019,0.015,0.034,0.026,0.05c0.86,1.737,1.358,6.505,0.167,8.308c-1.881,3.812-1.881-0.958-4.082-0.488
			c-1.579,0-4.084,0-5.024,1.914c-2.199,3.812,0.32,3.812,0,7.61c0,0.974-0.706,4.07-1.176,6.149
			c-0.235,1.022-0.402,1.784-0.402,1.945c0.955,3.814,3.142,0,4.083,3.344c0.609,1.704,0.277,3.146-0.291,4.478
			c-1.148,2.758-3.21,5.012,0.61,7.902c2.407,1.833,5.369-1.673,7.902-0.392c0.025,0.017,0.041,0.017,0.068,0.034
			c0.733,0.405,1.439,1.232,2.075,2.74c3.461,8.567-1.881,8.567-5.022,7.627c-1.231-0.357-2.241-0.616-3.114-0.682h-0.069
			c-2.298-0.179-3.487,1.021-4.525,5.597c-0.151,0.665-0.304,1.412-0.457,2.223c0.208-0.033,0.443-0.065,0.678-0.082
			c2.865-0.209,7.029,1.057,5.286,7.221c-0.94,2.384-12.552,4.77-6.269,11.438c0.595,0.634,1.273,0.876,2.007,0.86h0.068
			c3.1-0.097,7.196-4.493,10.476-1.818c3.46,2.386,4.704,10.48,0.624,13.338c-1.246,0.939-2.893,0.6-4.608,0.422h-0.07
			c-1.714-0.178-3.5-0.178-5.05,1.477c-4.609,4.769-3.625,5.937-1.259,6.62c0.028,0,0.042,0.015,0.068,0.015
			c1.177,0.308,2.687,0.519,4.014,0.989c3.059,1.072,5.951,4.301,5.066,7.641c-0.016,0.051-0.029,0.1-0.043,0.148
			c-0.165,0.617-0.484,1.232-0.955,1.849l-0.015,0.016c-0.332,0.455-0.73,0.878-1.23,1.298c-0.901,0.553-5.135,0.635-7.723,2.32
			c-0.028,0.016-0.042,0.031-0.068,0.047c-1.87,1.252-2.823,3.377-0.998,7.157c0.747,1.591,3.155,1.786,5.038,2.577
			c0.014,0,0.042,0.018,0.054,0.018c2.049,0.878,3.46,2.482,1.509,7.415c-0.955,2.336-2.478,3.05-4.053,3.603
			c-0.016,0-0.043,0.017-0.055,0.017c-0.762,0.26-1.537,0.486-2.257,0.826c-0.872,0.439-1.674,1.072-2.283,2.225
			c-0.4,0.761-0.72,1.767-0.912,3.113c-0.069,0.488-0.125,1.038-0.167,1.639c-0.11,1.672,0.167,3.408,0.595,5.16
			c0.055,0.227,0.111,0.47,0.179,0.714c0.527,1.947,1.205,3.926,1.717,5.857c0.277,1.021,0.499,2.043,0.636,3.034
			c0.222,2.044,1.647,5.062,2.741,8.274v0.016c0.069,0.163,0.111,0.309,0.167,0.47c0,0.018,0,0.033,0.013,0.033
			c0.375,1.136,0.692,2.271,0.9,3.406c0.472,2.614,0.458,4.332,0.152,5.534c0,0.033,0,0.048-0.014,0.08c0,0.016,0,0.016,0,0.016
			c-0.262,0.991-0.706,1.607-1.192,2.078c-0.026,0.016-0.04,0.049-0.068,0.065c-0.982,0.957-2.102,1.396-2.102,3.18
			c-0.318,4.771,0.345,3.05,1.604,6.376c-0.305-0.439,0.803,7.139,0.941,7.625c-0.623,3.813-0.941,4.284-3.765,8.096
			c0.803,2.239,1.897,2.743,3.142,2.677h0.069c1.62-0.083,3.488-1.104,5.261-0.292c0.968,0.73,2.657,2.289,3.404,4.267
			c0.234,0.6,0.373,1.25,0.373,1.932c0,4.753-1.259,2.854-3.459,4.283c-2.823,1.897-7.847,0.958-7.527,6.668
			c0,1.542,1.009,2.255,1.936,2.889c0.013,0,0.043,0.016,0.056,0.031c0.761,0.504,1.453,0.975,1.453,1.833
			c0,1.282-0.54,2.565-1.176,3.765c-0.055,0.097-0.112,0.179-0.154,0.276c-0.013,0.016-0.027,0.049-0.041,0.064
			c-0.512,0.924-1.065,1.784-1.453,2.563c1.882,0.958,3.765,1.914,4.705,4.771c-0.94,0.713-2.366,1.33-3.764,1.994
			c-3.295,1.574-6.394,3.376-2.201,7.058c0.887,0.665,6.408,0.86,9.161,2.986c0.029,0.016,0.054,0.048,0.083,0.065
			c1.08,0.843,1.702,2.012,1.441,3.618c-0.251,1.638-1.772,2.237-3.668,2.577c-0.027,0-0.056,0.019-0.084,0.019
			c-3.058,0.552-7.029,0.487-8.192,3.115c-3.127,6.181,1.26,9.522,2.838,14.765c-1.26,0.469-3.459,2.383-3.142,4.752
			c0.303,3.344,2.201,0.957,2.823,2.873c0.401,0.924,1.204,1.248,1.633,2.141c0.015,0.033,0.042,0.082,0.055,0.115
			c0.152,0.373,0.25,0.844,0.235,1.477v0.048c-0.014,0.146-0.014,0.325-0.042,0.503c-0.319,3.278-2.754,1.477-3.418,2.807
			c-0.014,0.017-0.014,0.032-0.027,0.049c-0.291,0.697-0.483,1.33-0.61,1.897c-1.161,4.916,3.033,5.111,4.139,7.173
			c0.595,1.069,0.346,2.66-1.965,5.693c1.217,0.455,3.599,1.363,4.607,3.146c0.029,0.049,0.07,0.113,0.098,0.18
			c1.883,4.77,0,2.854-1.245,4.77c-1.897,2.387-6.907,3.814-3.46,10.482c0.07,0.113,0.14,0.227,0.222,0.322
			c0.029,0.049,0.056,0.084,0.085,0.131c2.393,3.132,7.872,0.811,8.178,8.111c0.181,4.187-1.688,5.437-3.833,6.133h-0.015
			c-0.042,0.016-0.098,0.033-0.14,0.049c-1.465,0.453-3.057,0.666-4.177,1.443c-1.081,0.827-2.588,1.801-3.545,3.31
			c-0.705,1.104-1.12,2.483-0.857,4.3c0.124,0.729,0.332,1.232,0.594,1.574c1.134,1.508,3.226,0.324,3.487,2.238
			c1.494,7.739-4.456,8.08,1.037,13.888c0.042,0.063,0.097,0.112,0.141,0.161c0.221,0.229,0.455,0.473,0.704,0.716
			c0.11,0.112,0.208,0.227,0.303,0.342h0.015c0.015,0.017,0.015,0.017,0.028,0.031c4.884,5.239,2.685,3.114-1.606,9.638
			c-5.272,8.923,1.108,10.918,5.509,14.163c0,0.016,0.013,0.016,0.013,0.016c0.042,0.033,0.098,0.064,0.139,0.1
			c5.329,3.341,4.083,5.238-1.26,6.667c-0.803,0.244-1.604,0.438-2.38,0.635c-0.014,0-0.042,0.015-0.055,0.015
			c-3.114,0.745-5.59,1.479-4.885,5.694c0.124,0.779,0.375,1.671,0.733,2.71c0.943,2.856,3.446,0,3.446,5.24
			c0,5.71-3.446,2.855-4.402,6.198c-0.056,0.259-0.095,0.502-0.125,0.729c-0.705,4.722,2.091,5.582,4.472,7.236
			c0.014,0,0.042,0.017,0.055,0.032v0.017c0.429,0.291,0.858,0.617,1.246,1.006c0,0,0.014,0.016,0.026,0.016
			c0.015,0.018,0.043,0.034,0.056,0.065c0.471,0.504,0.901,1.103,1.19,1.851c-1.577,3.326-12.566,3.812-5.66,9.993
			c-0.138,0.179-0.249,0.34-0.36,0.503c-1.246,1.851-1.161,3.245-0.594,4.574c1.065,2.469,3.833,4.69,2.836,9.217
			c-0.206,1.071-0.774,1.508-1.342,1.801c-1.203,0.634-2.449,0.683-0.54,4.867c0.638,2.387,2.823,2.387,4.402,2.856
			c0.094,0.062,0.179,0.112,0.276,0.161c3.708,2.319,5.175,3.78,5.285,4.771v0.017c0.196,1.815-4.233,2.059-7.652,3.309
			c-0.028,0.017-0.042,0.017-0.069,0.033c-2.104,0.778-3.805,1.932-3.805,4.089c0,3.812,3.142,1.427,3.445,5.239
			c0.319,2.856-3.142,2.856-2.823,6.196c0.083,0.487,0.291,0.927,0.608,1.314l0.085,0.099c2.241,2.727,8.719,3.991,4.651,8.112
			c-0.167,0.129-0.361,0.21-0.542,0.242h-0.069v0.018c-0.47,0.064-0.981-0.114-1.508-0.358c-0.733-0.355-1.494-0.875-2.242-1.218
			c-0.609-0.274-1.203-0.421-1.742-0.227c-0.292,0.082-0.554,0.276-0.803,0.586c-1.924,2.435-1.398,4.736-0.085,6.472
			c1.26,1.672,3.239,2.823,4.471,3.053c0,6.195-4.705,5.238-3.445,11.438c0.124,0.957,1.259,1.979,2.146,2.969
			c0.014,0.018,0.027,0.031,0.041,0.049c1.136,1.267,1.84,2.468-0.61,3.31c-0.014,0-0.042,0.018-0.054,0.018
			c-0.346,0.112-0.747,0.211-1.219,0.323C16.899,550.29,18.339,551.312,17.164,553.08z"/>
	</g>
	<g>
		<path fill="#EF0A7C" d="M13.842,553.08H0.046v-53.264c-0.069-0.324-0.056-0.634,0-0.926V0.08h13.796
			c-1.384,0.615-3.196,1.312-3.225,2.465c-0.014,0.844-0.747,1.996-2.546,3.65c0.582,0.146,1.163,0.389,1.73,0.73
			c1.439,0.861,2.782,2.32,3.834,4.023c-1.177,3.342-3.515,4.282-5.272,7.626c2.934,2.856,7.915-1.43,4.692,6.197
			c-0.595,1.427-3.514,1.427-4.097,4.283c-0.014,0.08-0.014,0.163-0.026,0.243c-0.483,4.235,1.092,1.443,2.504,2.904
			c0,0,0.028,0.015,0.028,0.032c0.042,0.048,0.083,0.097,0.125,0.146c4.98,5.71,5.563,3.812,0.872,10.481
			c-4.096,5.709-2.628,6.666,1.758,7.625c0.415,0.081,0.927,0.098,1.48,0.13c2.643,0.112,6.368,0.242,6.131,6.538
			c-0.153,2.19-1.302,2.888-2.741,3.229c-1.354,0.34-2.989,0.355-4.275,1.055c-1.758,0.469-3.515,0.958-4.691,3.326
			c-2.338,4.77-0.581,2.385,0,5.727c0.581,1.899,2.642-0.487,2.934,3.327c0,0.956-2.934,4.283-3.515,4.768
			c1.188,2.273,6.101,2.547,7.472,4.625c0.375,0.552,0.499,1.25,0.222,2.141c-0.192,0.634-0.609,1.381-1.26,2.272
			c-2.047,2.87-5.853,0-7.32,4.77c-1.744,5.241,1.467,4.77,4.109,5.712c-0.595,0.485-1.467,2.853-2.061,3.811
			c1.757,0.471,3.225,1.9,4.11,4.286c-2.049,1.913-6.739,4.768-4.11,9.522c1.757,2.856,5.271-0.472,7.321,0.957
			c-0.872,3.342-3.21,4.769-4.677,7.138c10.24,5.728-5.272,20.493,2.933,23.817c1.219,0.521,3.765,0.763,4.981,2.143
			c0.015,0.017,0.028,0.032,0.042,0.048c0.747,0.893,0.955,2.272-0.056,4.478c-0.375,1.006-1.521,1.33-2.864,1.491h-0.068
			c-1.814,0.196-3.973,0.082-4.969,0.895c-2.146,2.287-2.505,3.667-1.882,4.607c0.499,0.797,1.674,1.297,3.044,1.77
			c1.273,0.454,2.713,0.892,3.875,1.555c1.951,1.104,3.155,2.857,1.688,6.346c-0.111,0.34-2.436,1.167-4.955,2.288
			c-0.303,0.146-0.609,0.291-0.914,0.438c-4.288,2.027-8.426,4.9-2.614,7.754c-1.121,1.152-1.73,1.638-2.269,2.207
			c-0.596,0.617-1.123,1.313-2.173,3.033c0.125,0.276,0.25,0.52,0.388,0.764c1.245,2.14,3.155,2.951,4.704,4.542
			c0.375,0.405,0.748,0.843,1.066,1.362c-1.468,4.283-5.855,3.812-8.498,6.669c0.166,0.453,0.333,0.859,0.498,1.233
			c0.43,0.972,0.872,1.688,1.329,2.173c2.421,2.759,4.967-0.242,7.542,2.791c2.671,2.986-0.068,4.43-2.809,6.167h-0.014
			c-2.062,1.329-4.11,2.805-3.861,5.255c0.193,1.12,0.789,1.866,1.494,2.516c1.384,1.264,3.182,2.11,3.182,4.64
			c0,3.795-2.337,0.94-3.21,3.795c-1.466,4.3,0.292,2.873-0.594,7.156c-0.581,2.854-0.29,4.284-2.047,6.182
			c1.175,0.488,4.386,0.488,5.271,2.385c2.048,4.77-1.176,2.384-1.466,5.24c-1.164,9.523,3.515,5.242,8.787,6.199
			c0.069,0.015,0.152,0.032,0.222,0.048c0.028,0,0.042,0.016,0.069,0.016c0.083,0.016,0.167,0.049,0.264,0.065
			c1.205,0.341,2.31,0.99,3.196,1.802c0,0.015,0.016,0.015,0.016,0.015c2.35,2.19,3.029,5.581-0.846,7.576
			c-0.995,0.375-2.021,0.39-3.072,0.275c-2.976-0.307-6.118-1.671-8.926,1.153c-0.139,0.146-0.264,0.292-0.388,0.439
			c-0.637,0.713-1.107,1.347-1.439,1.914c-0.054,0.081-0.11,0.162-0.152,0.244c-2.298,4.12,2.754,4.363,5.495,5.97
			c7.902,5.241,1.467,6.667-1.758,11.438c-1.397,2.271-1.965,3.684-1.992,4.576c-0.07,1.541,1.384,1.654,2.863,2.107
			c1.303,0.406,2.616,1.104,2.935,3.311c0.248,2.645-1.521,4.512-3.251,6.295c-0.97,0.973-1.91,1.948-2.493,3.001
			c-0.829,1.509-0.911,3.213,0.763,5.468c1.466,1.916,5.271-2.369,5.867,2.385c0.015,0.211,0.015,0.422,0,0.617
			c-0.028,0.827-0.276,1.443-0.637,1.946c-1.009,1.46-2.877,1.966-2.877,3.634c0.181,4.625,3.805,3.635,7.016,3.538
			c1.024-0.049,2.02,0.015,2.838,0.372c0.014,0,0.041,0.016,0.056,0.016c0.814,0.375,1.452,1.057,1.798,2.258
			c0.94,3.422,0.111,5.126-1.426,5.937c-0.013,0-0.026,0.017-0.042,0.017c-0.179,0.111-0.374,0.176-0.581,0.242
			c-2.795,1.021-7.154-0.082-8.206,0.472c-1.052,0.567-2.2,1.833-3.308,3.407c-1.715,2.369-3.362,5.468-4.592,8.03
			c1.341,2.062,2.807,3.472,4.095,4.591c3.764,3.31,5.881,4.139-1.758,11.602c-6.961,6.264,1.066,4.479,5.937,6.83
			c1.066,0.486,1.979,1.201,2.562,2.223c-0.832,1.914-1.897,2.823-2.825,3.65c-1.398,1.184-2.504,2.174-2.159,5.873
			c0.292,2.855,5.855,4.754,0.292,7.608c1.176,1.431,2.935,2.856,4.402,4.3c-2.437,4.836-7.101,4.397-9.896,8.422
			c-0.222,0.323-0.444,0.697-0.649,1.104c1.312,1.217,3.237,1.849,4.524,3.424c0.705,0.857,1.23,2.01,1.327,3.713
			c0.292,6.199-6.434,7.141-6.725,11.422c-0.471,5.843,4.636,7.628,10.074,8.438c2.242,0.357,4.552,0.535,6.56,0.765h0.068
			c0,0,0,0,0.015,0c2.2,0.258,4.013,0.582,4.941,1.279c8.953,6.133-1.812,9.183-7.887,11.13c-0.028,0-0.042,0.017-0.072,0.017
			c-1.438,0.471-2.615,0.86-3.168,1.234c-0.222,0.112-0.498,0.258-0.803,0.452c-2.394,1.461-6.711,5.322-5.922,9.559
			c0.873,3.341,7.029,1.427,2.918,6.666c1.966,1.592,3.363,3.05,4.027,4.494c0.692,1.525,0.568,3.002-0.594,4.574
			c-0.693,0.91-1.716,1.852-3.142,2.84c-0.055,0.033-0.112,0.082-0.166,0.115c-3.376,2.303-4.29,3.894-3.778,5.045
			c0.734,1.654,4.443,2.369,8.053,2.937c0.182,0.018,0.36,0.051,0.526,0.081c1.093,0.214,2.047,0.535,2.837,1.007
			c0.014,0,0.028,0.018,0.042,0.018c2.449,1.395,3.349,3.763,2.117,5.807c-0.207,0.373-0.498,0.716-0.857,1.056
			c-0.845,0.811-2.091,1.525-3.792,2.027c-1.523,0.633-6.256,0.649-8.332,2.659c-0.636,0.619-1.024,1.412-1.01,2.469
			c0.014,0.812,0.262,1.802,0.856,2.969c-1.175,2.871,0.292,5.238,2.049,7.154c-1.176,4.754,2.048,1.429,2.048,4.283
			c-0.291,4.771-4.097,2.854-4.401,5.241c-0.568,3.698,3.031,4.396,6.2,4.833c0.607,0.066,1.203,0.146,1.743,0.227
			c1.011,0.148,1.84,0.326,2.311,0.65c-0.014,0.195-0.041,0.39-0.069,0.566c-0.428,2.612-2.546,4.301-4.872,5.613
			c-5.203,2.904-11.472,3.911-2.379,9.054c-0.292,0.487-0.886,0.959-1.466,1.445c3.833,2.66,4.024,3.845,2.656,5.515
			c-0.843,1.007-2.269,2.208-3.82,4.009c0.417,0.682,1.066,1.282,1.801,1.833C13.454,549.219,17.192,550.631,13.842,553.08z"/>
	</g>
	<g>
		<path fill="#CCE312" d="M0.046,498.892V0.08h2.242c0.124,0.031,5.578,0.632,6.794,1.426c0.637,0.356,1.149,0.698,1.535,1.039
			c2.008,1.704,0.997,3.116-0.816,4.381C7.754,8.353,4.695,9.635,3.851,11.03c1.092,2.854,3.266,2.854,4.359,6.669
			c-2.172,3.341-5.01,2.385-5.66,9.054c0.733-0.812,3.82,0.356,6.38,2.546c0.969,0.827,1.854,1.816,2.504,2.904
			c0,0,0.028,0.015,0.028,0.032c0.68,1.104,1.093,2.305,1.093,3.568c0,7.609-3.044,1.429-4.139,1.9
			c-2.172,0.468-3.694,2.855-4.995,7.138c2.394,4.77,9.133,0.484,6.96,12.864c-2.822-4.282-6.96-0.956-8.482,5.242
			c1.521,3.326,3.694,1.427,5.218,3.326c3.043,4.3,1.092,4.3-0.652,7.624c-6.96,12.866,3.694,0.958,3.916,13.337
			c-1.092,0.957-3.045,0-4.138,1.427c-3.694,4.284-0.65,3.327,0.874,6.198c4.566,8.567-3.917,6.181-3.045,17.621
			c0.872-0.473,3.695-3.815,4.567-1.917c1.964,3.814-2.395,6.67-2.602,9.54c-0.443,6.653,5.646,3.329,4.995,11.422
			c-2.171,0-5.218-2.854-5.438,4.285c-0.222,2.854,1.742,4.282,1.522,7.625c-0.222,2.855-2.616,6.668-3.266,9.052
			c1.092-0.486,5.23-6.196,5.011,0c-0.222,3.814-3.694,6.183-4.789,8.096c1.495,3.506,4.469,1.947,7.389,0.715
			c1.952-0.826,3.875-1.507,5.328-0.455c0.79,0.57,1.441,1.672,1.87,3.555c-0.098,0.08-0.18,0.146-0.277,0.225
			c-1.467,1.088-3.1,1.429-4.788,1.559c-3.529,0.325-7.278-0.194-10.172,3.927c1.48,2.597,6.96,2.109,10.6,2.872
			c0.387,0.082,0.762,0.178,1.092,0.276c1.162,0.405,2.008,1.022,2.229,2.093c0.234,1.687-0.374,3.065-1.426,4.202
			c-1.632,1.784-4.319,3.034-6.6,4.104c-1.647,0.763-3.058,1.444-3.723,2.174c0.263,1.006,1.024,1.395,1.938,1.623
			c2.116,0.518,5.12,0.096,4.814,4.087c-0.014,0.163-0.054,0.309-0.11,0.455c-0.748,1.995-4.981,2.434-6.199,2.871
			c-1.093,0.959-3.266,0.959-3.058,4.3c0,2.693,1.426,1.963,2.324,2.093c0.208,0.031,0.388,0.097,0.513,0.275
			c0.346,0.682,0.61,1.314,0.817,1.898c1.37,3.895-0.056,5.825-2.131,9.54c1.965,1.427,4.138-2.385,6.324-0.957
			c0.18,0.114,0.36,0.244,0.526,0.374h0.014c2.519,2.01,2.546,5.45,0.11,7.252c-0.222,0.242-1.218,0.356-2.49,0.519
			c-3.682,0.471-9.66,1.313-5.784,6.618c-0.43,0.959-0.652,2.386-1.093,3.344c5.452,7.139-1.08,7.608,0.663,13.806
			c1.302,5.712,6.518-0.471,4.997,9.994c-2.173,0-6.533,2.871-3.267,7.156c1.093,1.897,3.267-1.428,4.581,1.426
			c1.023,2.483,0.912,3.667,0.359,4.641c-0.346,0.632-0.899,1.167-1.439,1.914c-0.054,0.081-0.11,0.162-0.153,0.244
			c-0.18,0.243-0.346,0.503-0.513,0.811c-0.872,1.444-3.694,4.299-3.916,7.154c-0.443,5.711,1.301,2.856,2.823,4.284
			c4.138,3.812,2.172,3.812-0.206,9.523c0.913,0.858,2.31,0.341,3.556,0.211c0.816-0.099,1.577-0.019,2.088,0.746
			c0.346,0.485,0.609,0.94,0.774,1.362c1.37,3.262-2.034,4.672-3.376,7.203c1.205,0.324,2.505,0.649,3.059,2.401
			c0.249,0.778,0.345,1.851,0.206,3.31c-0.623,0.18-1.62-0.08-2.698-0.309c-1.991-0.454-4.302-0.877-5.147,1.266
			c-1.952,4.771,1.314,4.771,0.872,9.055c0,2.384-1.951,5.24-2.602,7.139c5.439,2.384,3.267,3.341,0.43,11.438
			c1.701,2.287,4.899,1.312,7.707,1.412c1.84,0.047,3.53,0.582,4.484,2.87c2.049,5.404-2.312,8.243-4.981,9.75
			c-0.167,0.083-0.319,0.163-0.457,0.245c-3.058,1.428-7.625,1.428-7.184,9.055c0.43,5.709,3.474,3.811-0.441,9.051
			c0.441,0.959,3.043,3.812,3.043,4.754c0.222,3.813-2.394,4.285-2.823,6.668c-1.743,8.583,3.045,4.77,5.219,8.583
			c-1.08,4.284-3.917,5.711-5.219,9.036c1.039,2.969,2.686,3.214,4.415,3.115c1.897-0.098,3.904-0.584,5.382,1.654
			c-0.331,1.217-0.858,2.158-1.507,2.873c-4.387,4.93-14.212,0.323-5.674,12.36c-6.753,9.542,2.823,4.771,0.872,12.396
			c-0.872,2.854-4.802,1.897-4.36,6.667c0.652,3.798,4.566,1.429,5.881,1.429c1.08,0,5.867-0.959,5.217,4.283
			c-0.43,2.854-4.788,2.386-5.659,2.854c-3.475,1.427-10.007,7.625-3.045,11.438c-0.43,0.471-1.093,1.898-1.742,2.368
			c0.872,4.771,3.043,1.427,5.008,3.343c-0.872,3.812-3.694,3.812-5.438,5.711c1.302,6.913,6.892,0.975,10.393,3.847
			c0.595,0.484,1.134,1.231,1.579,2.352c-1.273,2.563-3.293,2.727-5.357,2.693c-2.519-0.049-5.092-0.39-6.405,3.018
			c1.093,2.856,2.836,2.856,4.358,3.327c-0.651,3.812-2.824,3.342-4.566,4.77c1.302,5.272,4.954,2.271,7.209,4.477
			c0.402,0.391,0.761,0.942,1.052,1.722c-0.096,0.114-0.927,0.356-2.061,0.747C5.303,494.722,0.626,496.475,0.046,498.892z"/>
	</g>
	<g>
		<path fill="#CCE312" d="M0.046,523.99v-24.174c0.137,0.696,0.65,1.443,1.632,2.239c-0.443,0.485-0.872,1.914-1.301,2.385
			c2.823,2.384,2.394,6.197,0,8.581c0.651,1.899,14.364,2.855,7.183,8.079C6.729,521.719,1.512,522.514,0.046,523.99z"/>
	</g>
	<g>
		<path fill="#CCE312" d="M2.288,553.08H0.046v-27.452c0.456,0.505,1.314,1.056,2.726,1.673c-0.663,0.47-1.314,2.854-1.965,3.341
			c1.302,1.431,2.836,2.368,3.488,5.241c-1.094,1.428-2.395,2.369-3.266,4.282c2.394,4.284,6.089,0.47,8.926,0.47
			c1.038,0,2.172,0.115,2.822,0.683c0.706,0.649,0.817,1.852-0.43,4.09c-0.442,0.795-0.981,1.362-1.589,1.752
			c-3.045,2.044-7.875,0-10.601,1.573C0.529,551.23,1.36,552.27,2.288,553.08z"/>
	</g>
</g>
</svg>
